<svg xmlns="http://www.w3.org/2000/svg" xmlns:xlink="http://www.w3.org/1999/xlink" width="1920" zoomAndPan="magnify" viewBox="0 0 1440 809.999993" height="1080" preserveAspectRatio="xMidYMid meet" version="1.0"><defs><clipPath id="11717af85b"><path d="M 724 29 L 1109 29 L 1109 501 L 724 501 Z M 724 29 " clip-rule="nonzero"/></clipPath><clipPath id="b0e639f05a"><path d="M 929.617188 0.00390625 L 1163.738281 277.414062 L 532.691406 809.992188 L 298.566406 532.585938 Z M 929.617188 0.00390625 " clip-rule="nonzero"/></clipPath><clipPath id="c9182ebdc2"><path d="M 929.617188 0.00390625 L 1163.738281 277.414062 L 532.691406 809.992188 L 298.566406 532.585938 Z M 929.617188 0.00390625 " clip-rule="nonzero"/></clipPath><clipPath id="f639fdebb1"><path d="M 929.617188 0.00390625 L 1163.738281 277.414062 L 532.691406 809.992188 L 298.566406 532.585938 Z M 929.617188 0.00390625 " clip-rule="nonzero"/></clipPath><clipPath id="8d4aaf8452"><path d="M 763 178 L 1030 178 L 1030 487 L 763 487 Z M 763 178 " clip-rule="nonzero"/></clipPath><clipPath id="9e68869296"><path d="M 929.617188 0.00390625 L 1163.738281 277.414062 L 532.691406 809.992188 L 298.566406 532.585938 Z M 929.617188 0.00390625 " clip-rule="nonzero"/></clipPath><clipPath id="a7e74e7166"><path d="M 929.617188 0.00390625 L 1163.738281 277.414062 L 532.691406 809.992188 L 298.566406 532.585938 Z M 929.617188 0.00390625 " clip-rule="nonzero"/></clipPath><clipPath id="b264ff6b2e"><path d="M 929.617188 0.00390625 L 1163.738281 277.414062 L 532.691406 809.992188 L 298.566406 532.585938 Z M 929.617188 0.00390625 " clip-rule="nonzero"/></clipPath><clipPath id="d1f93826f5"><path d="M 593 29 L 1114 29 L 1114 582 L 593 582 Z M 593 29 " clip-rule="nonzero"/></clipPath><clipPath id="eb0f39543f"><path d="M 929.617188 0.00390625 L 1163.738281 277.414062 L 532.691406 809.992188 L 298.566406 532.585938 Z M 929.617188 0.00390625 " clip-rule="nonzero"/></clipPath><clipPath id="87f968cb01"><path d="M 929.617188 0.00390625 L 1163.738281 277.414062 L 532.691406 809.992188 L 298.566406 532.585938 Z M 929.617188 0.00390625 " clip-rule="nonzero"/></clipPath><clipPath id="01a7330cc3"><path d="M 929.617188 0.00390625 L 1163.738281 277.414062 L 532.691406 809.992188 L 298.566406 532.585938 Z M 929.617188 0.00390625 " clip-rule="nonzero"/></clipPath><clipPath id="15e06596bf"><path d="M 445 182 L 938 182 L 938 708 L 445 708 Z M 445 182 " clip-rule="nonzero"/></clipPath><clipPath id="43ebb3a78c"><path d="M 929.617188 0.00390625 L 1163.738281 277.414062 L 532.691406 809.992188 L 298.566406 532.585938 Z M 929.617188 0.00390625 " clip-rule="nonzero"/></clipPath><clipPath id="4f98e85e87"><path d="M 929.617188 0.00390625 L 1163.738281 277.414062 L 532.691406 809.992188 L 298.566406 532.585938 Z M 929.617188 0.00390625 " clip-rule="nonzero"/></clipPath><clipPath id="c45d509504"><path d="M 929.617188 0.00390625 L 1163.738281 277.414062 L 532.691406 809.992188 L 298.566406 532.585938 Z M 929.617188 0.00390625 " clip-rule="nonzero"/></clipPath></defs><g clip-path="url(#11717af85b)"><g clip-path="url(#b0e639f05a)"><g clip-path="url(#c9182ebdc2)"><g clip-path="url(#f639fdebb1)"><path fill="#707673" d="M 1104.554688 227.953125 C 1102.34375 228.902344 1096.984375 231.179688 1092.648438 233.019531 C 1073.265625 241.234375 1065.519531 244.964844 1046.171875 255.402344 C 1040.746094 258.332031 1030.484375 263.769531 1023.371094 267.484375 C 1009.886719 274.535156 1004.835938 277.234375 992.039062 284.234375 C 985.160156 287.992188 982.828125 289.386719 969.46875 297.730469 C 954.886719 306.835938 947.519531 311.472656 947.191406 311.75 C 946.847656 312.039062 947.363281 311.890625 948.578125 311.347656 C 949.757812 310.820312 958.785156 306.570312 978.65625 297.179688 C 985.265625 294.054688 988.96875 292.167969 995.566406 288.5625 C 1007.828125 281.859375 1014.167969 278.472656 1025.496094 272.570312 C 1037.136719 266.503906 1039.179688 265.421875 1049.964844 259.601562 C 1063.597656 252.242188 1071.507812 248.296875 1081.960938 243.636719 C 1086.359375 241.675781 1096.8125 237.195312 1097.085938 237.152344 C 1097.175781 237.140625 1097.675781 236.625 1098.191406 236.007812 C 1100.546875 233.21875 1103.902344 229.988281 1106.570312 227.949219 C 1107.726562 227.066406 1108.652344 226.316406 1108.625 226.285156 C 1108.597656 226.253906 1106.765625 227.003906 1104.554688 227.953125 M 899.523438 30.382812 C 899.054688 30.101562 898.148438 29.800781 897.515625 29.71875 L 896.359375 29.5625 L 897.363281 31.457031 C 898.652344 33.898438 902.402344 41.839844 904.113281 45.746094 C 905.476562 48.855469 913.664062 69.695312 916.582031 77.46875 C 919.402344 84.988281 922.195312 93.066406 924.664062 100.832031 C 926.949219 108.023438 932.398438 126.582031 933.464844 130.816406 C 936.398438 142.441406 938.066406 154.546875 938.121094 164.566406 C 938.136719 167.960938 937.519531 174.738281 936.796875 179.011719 C 936.355469 181.652344 936.285156 182.535156 936.515625 182.578125 C 936.742188 182.617188 936.867188 183.152344 936.980469 184.582031 L 937.136719 186.527344 L 934.929688 191.707031 C 933.714844 194.554688 932.804688 196.894531 932.910156 196.910156 C 933.011719 196.925781 932.941406 196.992188 932.753906 197.066406 C 932.5625 197.136719 932.492188 197.222656 932.601562 197.257812 C 933.085938 197.414062 929.464844 209.421875 926.304688 218.136719 C 923.855469 224.882812 918.503906 236.507812 914.976562 242.738281 C 907.140625 256.574219 906.296875 258.265625 909.933594 252.859375 C 913.894531 246.96875 917.414062 240.691406 921.835938 231.648438 C 921.988281 231.335938 922.609375 230.140625 923.214844 228.988281 C 925.746094 224.164062 929.054688 216.394531 932.050781 208.230469 C 934.59375 201.300781 936.871094 194.644531 937.0625 193.574219 C 937.085938 193.441406 937.238281 192.949219 937.398438 192.480469 C 938.257812 189.988281 940.097656 180.742188 940.882812 174.96875 C 941.46875 170.636719 941.871094 165.996094 941.894531 163.269531 C 941.925781 159.8125 941.925781 159.808594 941.800781 158.441406 C 941.742188 157.800781 941.703125 157.210938 941.710938 157.132812 C 941.722656 157.058594 941.640625 156.222656 941.527344 155.277344 C 941.414062 154.335938 941.367188 152.332031 941.421875 150.832031 C 941.511719 148.398438 941.585938 142.472656 941.554688 140.148438 C 941.53125 138.417969 941.070312 131.105469 940.929688 130.25 C 940.847656 129.765625 940.796875 129.300781 940.808594 129.21875 C 940.824219 129.132812 940.730469 128.421875 940.597656 127.636719 C 940.464844 126.847656 940.289062 125.695312 940.207031 125.074219 C 939.679688 121.0625 937.199219 112.300781 934.714844 105.683594 C 933.4375 102.269531 929.535156 93.3125 926.300781 86.371094 C 921.832031 76.773438 919.707031 71.914062 915.445312 61.570312 C 909.828125 47.929688 903.804688 35.355469 901.375 32.1875 C 900.644531 31.234375 900.152344 30.753906 899.523438 30.382812 M 1070.589844 265.757812 C 1063.195312 269.285156 1054.128906 273.742188 1047.226562 277.25 C 1024.105469 288.996094 1003.882812 298.289062 985.425781 305.652344 C 971.257812 311.300781 962.753906 314.179688 934.679688 322.824219 C 910.824219 330.167969 904.792969 332.148438 895.632812 335.652344 C 866.292969 346.871094 864.246094 347.667969 864.226562 347.886719 C 864.214844 348.042969 866.742188 347.425781 890.558594 341.429688 C 899.242188 339.246094 907.109375 337.214844 908.035156 336.921875 C 913.886719 335.058594 931.179688 329.664062 941.039062 326.625 C 958.03125 321.390625 964.585938 319.261719 973.246094 316.171875 C 994.445312 308.601562 1019.710938 297.371094 1049.460938 282.285156 C 1054.023438 279.972656 1058.804688 277.570312 1060.09375 276.953125 L 1062.433594 275.824219 L 1064.75 273.515625 C 1068.140625 270.140625 1068.101562 270.183594 1070.515625 267.535156 C 1071.738281 266.195312 1072.753906 265.007812 1072.765625 264.902344 C 1072.78125 264.792969 1071.804688 265.179688 1070.589844 265.757812 M 876.867188 91.238281 C 876.222656 93.296875 875.757812 96.804688 874.664062 107.804688 C 872.960938 124.96875 872.425781 129.308594 871.261719 135.304688 C 867.636719 153.988281 864.160156 166.429688 857.371094 184.984375 C 851.863281 200.039062 847.875 209.226562 840.441406 223.996094 C 837.171875 230.484375 830.695312 243.082031 829.097656 246.0625 C 828.453125 247.261719 827.953125 248.242188 827.988281 248.246094 C 828.023438 248.25 829.179688 246.636719 830.558594 244.664062 C 834.203125 239.441406 836.613281 235.621094 842.671875 225.445312 C 848.75 215.234375 860.871094 193.152344 863.597656 187.316406 C 863.910156 186.648438 864.191406 186.082031 864.222656 186.058594 C 864.425781 185.882812 868.125 177.78125 869.347656 174.828125 C 873.148438 165.652344 875.242188 159.609375 877.933594 150.082031 C 878.609375 147.6875 880.25 140.464844 880.875 137.152344 C 882.007812 131.109375 882.972656 119.886719 882.824219 114.382812 C 882.808594 113.707031 882.796875 113.089844 882.808594 113.015625 C 882.84375 112.664062 882.675781 109.4375 882.539062 107.902344 C 881.738281 98.808594 880.660156 94.660156 878.226562 91.28125 L 877.269531 89.949219 L 876.867188 91.238281 M 1010.484375 263.753906 C 1001.09375 267.851562 950.914062 290.890625 946.058594 293.328125 C 932.1875 300.292969 917.488281 307.925781 910.9375 311.558594 C 903.199219 315.851562 895.375 320.628906 880.03125 330.433594 C 875.976562 333.023438 867.722656 338.226562 861.6875 341.992188 C 855.652344 345.761719 847.226562 351.023438 842.964844 353.6875 C 838.703125 356.351562 835.316406 358.382812 835.441406 358.203125 C 835.566406 358.023438 835.269531 358.210938 834.785156 358.617188 C 834.296875 359.023438 832.226562 360.46875 830.183594 361.820312 C 826.589844 364.203125 826.367188 364.382812 823.378906 367.179688 C 821.679688 368.769531 820.28125 370.125 820.277344 370.195312 C 820.269531 370.261719 820.398438 370.214844 820.554688 370.089844 C 821.292969 369.507812 822.734375 368.53125 824.46875 367.4375 C 825.507812 366.78125 826.476562 366.164062 826.621094 366.070312 C 827.007812 365.808594 827.714844 365.753906 831.160156 365.722656 L 834.277344 365.691406 L 836.535156 364.234375 C 837.777344 363.429688 844.695312 359.089844 851.910156 354.585938 C 870.84375 342.769531 873.382812 341.171875 882.191406 335.546875 C 908.113281 319 912.933594 316.273438 945.371094 299.824219 C 950.878906 297.03125 960.910156 291.589844 979.925781 281.074219 C 1010.289062 264.285156 1011.441406 263.644531 1011.457031 263.457031 C 1011.460938 263.382812 1011.023438 263.515625 1010.484375 263.753906 M 863.101562 91.820312 C 862.066406 92.613281 860.15625 94.085938 858.863281 95.097656 L 856.507812 96.933594 L 852.683594 105.683594 C 848.417969 115.449219 842.605469 129.207031 839.328125 137.3125 C 826.726562 168.441406 808.839844 211.105469 793.34375 246.988281 C 785.285156 265.65625 783.175781 270.371094 780.226562 276.34375 C 777.683594 281.488281 777.789062 281.148438 778 283.785156 C 778.101562 285.0625 778.261719 286.113281 778.351562 286.121094 C 778.664062 286.148438 781.394531 284.613281 782.160156 283.980469 C 783.660156 282.738281 787.203125 275.117188 799.1875 247.34375 C 815.488281 209.5625 831.164062 172.152344 845.402344 137.050781 C 846.863281 133.445312 851.363281 122.796875 855.40625 113.386719 C 859.445312 103.972656 863.253906 94.945312 863.871094 93.328125 L 864.988281 90.382812 L 863.101562 91.820312 M 816.578125 139.222656 C 816.359375 139.410156 813.550781 144.980469 804.445312 163.289062 C 797.902344 176.441406 796.613281 179.195312 793.0625 187.558594 C 786.984375 201.882812 786.128906 203.984375 778.519531 223.304688 C 771.28125 241.675781 769.019531 247.148438 760.207031 267.5625 C 751.210938 288.398438 749.589844 292.300781 745.339844 303.355469 C 743.816406 307.308594 742.128906 311.628906 741.585938 312.957031 L 740.597656 315.367188 L 740.714844 313.414062 C 740.8125 311.734375 740.792969 311.816406 740.558594 314.011719 C 740.292969 316.535156 739.859375 317.851562 738.566406 320.046875 C 738.351562 320.410156 738.226562 320.765625 738.285156 320.835938 C 738.34375 320.902344 738.289062 320.976562 738.167969 320.992188 C 738.042969 321.011719 738 321.09375 738.070312 321.179688 C 738.140625 321.261719 738.054688 321.378906 737.875 321.441406 C 737.6875 321.507812 737.640625 321.582031 737.761719 321.621094 C 737.976562 321.695312 735.347656 327.953125 735.042969 328.089844 C 734.949219 328.132812 734.792969 328.46875 734.699219 328.835938 C 734.601562 329.203125 734.210938 330.175781 733.828125 330.996094 C 733.226562 332.277344 731.386719 337.851562 731.183594 339.007812 C 731.144531 339.222656 731.152344 339.878906 731.199219 340.464844 L 731.28125 341.527344 L 732.203125 338.359375 L 733.125 335.1875 L 734.117188 334.347656 C 734.84375 333.734375 735.246094 333.234375 735.605469 332.496094 C 736.136719 331.40625 736.023438 331.507812 739.621094 328.96875 L 741.445312 327.679688 L 742.601562 325.035156 C 744.402344 320.898438 746.753906 315.042969 750.230469 306.035156 C 754.964844 293.757812 755.5 292.464844 765.164062 270.007812 C 774.558594 248.1875 776.753906 242.878906 783.890625 224.734375 C 790.191406 208.71875 791.773438 204.828125 797.339844 191.660156 C 801.867188 180.945312 802.765625 178.601562 808.214844 163.355469 C 816.179688 141.058594 816.914062 138.945312 816.578125 139.222656 M 787.054688 161.277344 C 786.566406 161.855469 785.167969 164 774.511719 180.5 C 764.613281 195.832031 765.050781 195.132812 762.640625 199.414062 C 751.6875 218.894531 748.96875 224.082031 744.800781 233.492188 C 735.3125 254.902344 729.644531 274.167969 726.746094 294.851562 C 725.84375 301.289062 724.023438 324 724.433594 323.652344 C 724.535156 323.570312 725.03125 322.601562 725.542969 321.5 C 727.003906 318.335938 730.152344 312.5 730.753906 311.839844 C 731.121094 311.4375 731.1875 311.277344 730.964844 311.363281 C 730.699219 311.464844 730.761719 310.015625 731.261719 304.546875 C 733.269531 282.613281 737.992188 264.226562 747.621094 240.863281 C 751.867188 230.566406 755.113281 224.171875 765.839844 204.988281 C 768.613281 200.03125 770.890625 195.570312 774.816406 187.421875 C 777.710938 181.414062 781.292969 173.976562 782.78125 170.890625 C 786.109375 163.988281 787.613281 160.613281 787.054688 161.277344 M 961.390625 429.480469 C 952.007812 433.121094 933.121094 438.300781 917.480469 441.53125 C 878.941406 449.484375 879.546875 449.347656 866.78125 453.164062 C 851.492188 457.738281 847.9375 458.835938 847.925781 459 C 847.910156 459.1875 849.230469 459.035156 865.179688 456.992188 L 879.066406 455.214844 L 893.378906 452.199219 C 901.25 450.539062 911.171875 448.472656 915.421875 447.601562 C 929.011719 444.816406 944.945312 440.796875 953.898438 437.894531 C 955.8125 437.277344 955.980469 437.183594 956.839844 436.304688 C 959.179688 433.898438 962.898438 429.429688 962.933594 428.972656 C 962.941406 428.921875 962.246094 429.148438 961.390625 429.480469 M 909.472656 429.242188 C 909.109375 429.285156 902.433594 430.355469 894.632812 431.621094 C 880.875 433.855469 880.195312 433.988281 871.734375 436.125 C 855.171875 440.316406 846.917969 442.765625 831.355469 448.125 C 817.542969 452.878906 805.023438 457.890625 789.339844 464.949219 C 786.5625 466.203125 784.277344 467.128906 784.261719 467.015625 C 784.242188 466.890625 784.15625 466.949219 784.046875 467.160156 C 783.945312 467.351562 782.949219 468.800781 781.839844 470.378906 L 779.816406 473.246094 L 777.875 474.335938 C 770.9375 478.230469 766.632812 480.394531 755.160156 485.738281 C 748.847656 488.679688 741.296875 492.347656 736.582031 494.765625 C 734.84375 495.65625 732.429688 496.894531 731.222656 497.515625 C 727.757812 499.289062 726.617188 499.902344 726.609375 499.992188 C 726.605469 500.039062 727.058594 499.980469 727.613281 499.867188 C 728.839844 499.613281 730.050781 499.375 733.171875 498.78125 C 741.507812 497.191406 744.542969 496.496094 747.738281 495.449219 C 759.675781 491.53125 771.011719 489.300781 782.757812 488.558594 C 784.65625 488.441406 786.050781 488.28125 785.859375 488.207031 C 785.289062 487.984375 778.710938 487.207031 775.730469 487.011719 C 769.210938 486.582031 766.160156 486.738281 759.148438 487.875 C 756.628906 488.285156 754.765625 488.515625 755.007812 488.390625 C 755.25 488.265625 757.644531 486.941406 760.328125 485.441406 C 772.457031 478.679688 784.039062 473.117188 801.816406 465.507812 C 816.519531 459.21875 823.238281 456.65625 838.21875 451.632812 C 850.425781 447.542969 857.136719 445.554688 868.761719 442.597656 C 872.808594 441.566406 877.421875 440.390625 879.015625 439.980469 C 881.316406 439.386719 900.886719 432.777344 908.398438 430.054688 C 910.066406 429.449219 910.507812 429.117188 909.472656 429.242188 " fill-opacity="1" fill-rule="evenodd"/></g></g></g></g><g clip-path="url(#8d4aaf8452)"><g clip-path="url(#9e68869296)"><g clip-path="url(#a7e74e7166)"><g clip-path="url(#b264ff6b2e)"><path fill="#ffffff" d="M 1025.246094 234.628906 C 1022.792969 233.808594 1020.78125 236.8125 1022.457031 238.792969 C 1023.398438 239.910156 1024.996094 240.046875 1026.113281 239.101562 C 1027.671875 237.789062 1027.183594 235.273438 1025.246094 234.628906 M 1027.695312 242.9375 C 1025.75 242.648438 1024.277344 244.21875 1024.710938 246.125 C 1025.003906 247.417969 1026.460938 248.339844 1027.773438 248.0625 C 1029.832031 247.625 1030.554688 245.40625 1029.167969 243.765625 C 1028.691406 243.199219 1028.421875 243.046875 1027.695312 242.9375 M 1015.933594 243.003906 C 1015.550781 242.890625 1014.925781 242.878906 1014.546875 242.980469 C 1013.894531 243.152344 1013.835938 243.128906 1013.390625 242.457031 C 1012.488281 241.105469 1010.695312 240.796875 1009.515625 241.792969 C 1007.582031 243.421875 1008.625 246.378906 1011.152344 246.425781 C 1011.644531 246.4375 1012.136719 246.371094 1012.238281 246.285156 C 1012.378906 246.167969 1012.601562 246.367188 1013.089844 247.035156 C 1013.707031 247.882812 1013.816406 247.957031 1014.675781 248.085938 C 1016.398438 248.34375 1017.667969 247.34375 1017.777344 245.636719 C 1017.84375 244.566406 1016.960938 243.304688 1015.933594 243.003906 M 918.167969 179.085938 C 916.65625 178.367188 914.851562 179.25 914.519531 180.867188 C 914.210938 182.367188 915.226562 183.894531 916.632812 184.042969 L 917.339844 184.117188 L 916.574219 184.679688 C 914.859375 185.929688 915.09375 188.320312 917.015625 189.191406 C 918.511719 189.871094 920.375 188.867188 920.617188 187.25 C 920.855469 185.6875 920.039062 184.480469 918.578125 184.230469 L 917.871094 184.109375 L 918.546875 183.648438 C 919.503906 182.992188 919.863281 182.023438 919.585938 180.851562 C 919.316406 179.71875 919.199219 179.574219 918.167969 179.085938 M 1005.984375 311.71875 C 1005.28125 311.410156 1004.140625 311.484375 1003.679688 311.871094 C 1003.472656 312.046875 1003.445312 311.828125 1003.566406 310.988281 C 1003.722656 309.90625 1003.707031 309.851562 1002.980469 308.988281 C 1002.351562 308.246094 1002.117188 308.089844 1001.53125 308.019531 C 1000.078125 307.847656 999.148438 308.328125 998.601562 309.535156 C 998.199219 310.417969 998.359375 311.421875 999.035156 312.21875 C 999.789062 313.117188 1000.578125 313.378906 1001.738281 313.105469 L 1002.734375 312.875 L 1002.371094 313.339844 C 1002.171875 313.597656 1001.847656 314.035156 1001.648438 314.320312 C 1001.300781 314.8125 1001.273438 314.816406 1000.753906 314.371094 C 999.273438 313.109375 997.105469 313.453125 996.441406 315.0625 C 996.054688 316.003906 996.121094 316.886719 996.628906 317.652344 L 997.109375 318.367188 L 996.203125 318.632812 C 995.589844 318.8125 995.167969 319.058594 994.890625 319.398438 C 994.09375 320.375 994.101562 321.898438 994.910156 322.859375 L 995.328125 323.351562 L 997.40625 322.183594 C 999.414062 321.058594 999.484375 321.003906 999.453125 320.582031 C 999.4375 320.34375 999.328125 320.03125 999.207031 319.890625 C 998.882812 319.507812 999.046875 319.261719 999.722656 319.113281 C 1000.484375 318.941406 1001.144531 318.390625 1001.433594 317.679688 C 1001.652344 317.144531 1001.671875 317.140625 1001.976562 317.5 C 1002.152344 317.707031 1002.644531 318.007812 1003.070312 318.167969 C 1003.800781 318.4375 1003.917969 318.414062 1005.007812 317.765625 C 1005.804688 317.292969 1006.21875 316.953125 1006.324219 316.6875 C 1006.40625 316.476562 1006.652344 316.15625 1006.867188 315.972656 C 1007.453125 315.480469 1007.730469 314.480469 1007.527344 313.601562 C 1007.308594 312.648438 1006.859375 312.097656 1005.984375 311.71875 M 988.609375 319.996094 C 987.746094 319.492188 987.277344 319.421875 986.496094 319.667969 C 984.515625 320.292969 983.957031 322.414062 985.34375 324.054688 C 986.171875 325.039062 986.957031 325.351562 987.992188 325.109375 C 989.066406 324.859375 989.621094 324.375 989.878906 323.457031 C 990.292969 321.976562 989.824219 320.703125 988.609375 319.996094 M 980.277344 325.207031 C 979.714844 324.914062 978.691406 324.925781 978.011719 325.230469 C 976.523438 325.898438 976.039062 327.953125 977.078125 329.1875 C 977.777344 330.015625 978.628906 330.378906 979.550781 330.234375 C 980.898438 330.023438 981.96875 328.578125 981.765625 327.242188 C 981.65625 326.535156 980.933594 325.542969 980.277344 325.207031 M 965.5 330.410156 C 963.929688 329.367188 961.679688 330.34375 961.386719 332.191406 C 961.015625 334.5625 963.898438 336.136719 965.75 334.574219 C 966.996094 333.519531 966.863281 331.316406 965.5 330.410156 M 945.65625 337.347656 C 943.785156 336.964844 942.121094 338.460938 942.390625 340.289062 C 942.707031 342.417969 945.054688 343.230469 946.757812 341.800781 C 947.394531 341.261719 947.484375 341.078125 947.5625 340.144531 C 947.644531 339.175781 947.597656 339.023438 946.972656 338.285156 C 946.472656 337.691406 946.125 337.445312 945.65625 337.347656 M 819.976562 250.507812 C 819.074219 250.140625 818.199219 250.308594 817.382812 250.996094 C 816.554688 251.695312 816.253906 252.527344 816.484375 253.507812 C 816.800781 254.875 817.597656 255.503906 819.105469 255.578125 C 819.691406 255.605469 819.953125 255.492188 820.667969 254.886719 C 821.382812 254.285156 821.542969 254.042969 821.609375 253.464844 C 821.789062 251.96875 821.269531 251.027344 819.976562 250.507812 M 812.59375 259.636719 C 810.761719 259.027344 808.875 260.730469 809.273438 262.632812 C 809.640625 264.355469 811.421875 265.261719 812.996094 264.527344 C 813.925781 264.089844 814.410156 263.289062 814.433594 262.140625 C 814.445312 261.417969 814.339844 261.121094 813.863281 260.558594 C 813.503906 260.128906 813.019531 259.777344 812.59375 259.636719 M 886.6875 348.304688 C 885.878906 347.929688 885.363281 347.941406 884.417969 348.367188 C 883.265625 348.886719 882.648438 350.734375 883.25 351.871094 C 883.398438 352.15625 883.425781 352.527344 883.308594 352.714844 C 882.90625 353.351562 882.847656 354.519531 883.183594 355.238281 C 883.628906 356.191406 884.417969 356.671875 885.578125 356.691406 C 886.300781 356.707031 886.597656 356.597656 887.160156 356.121094 C 887.585938 355.761719 887.941406 355.273438 888.082031 354.851562 C 888.304688 354.191406 888.191406 353.105469 887.863281 352.710938 C 887.773438 352.609375 887.832031 352.183594 887.992188 351.773438 C 888.582031 350.261719 888.085938 348.953125 886.6875 348.304688 M 887.480469 358.222656 C 886.902344 357.917969 885.601562 357.984375 884.953125 358.347656 C 884.125 358.820312 883.5 360.191406 883.703125 361.085938 C 884.039062 362.558594 885.449219 363.496094 886.875 363.191406 C 887.851562 362.980469 888.398438 362.496094 888.765625 361.519531 C 889.21875 360.304688 888.648438 358.835938 887.480469 358.222656 M 875.914062 351.304688 C 875.015625 350.914062 874.046875 351.09375 873.195312 351.8125 C 872.628906 352.289062 872.472656 352.5625 872.363281 353.289062 C 872.101562 355.039062 873.179688 356.3125 874.957031 356.347656 C 875.671875 356.359375 875.980469 356.25 876.523438 355.792969 C 878.125 354.441406 877.8125 352.132812 875.914062 351.304688 M 803.636719 271.703125 C 802.988281 271.402344 802.613281 271.378906 801.867188 271.597656 C 801.0625 271.832031 800.859375 271.96875 800.511719 272.5 C 799.945312 273.367188 799.804688 274.238281 800.109375 274.996094 C 800.367188 275.632812 800.359375 275.648438 799.597656 276.148438 C 797.191406 277.738281 798.507812 281.378906 801.347656 280.984375 C 802.046875 280.886719 802.203125 280.785156 802.878906 280.003906 C 803.496094 279.285156 803.621094 279 803.585938 278.386719 C 803.5625 277.980469 803.464844 277.464844 803.367188 277.242188 C 803.214844 276.882812 803.277344 276.785156 804.023438 276.265625 C 804.667969 275.816406 804.894531 275.542969 805.070312 275 C 805.523438 273.566406 804.988281 272.328125 803.636719 271.703125 M 794.457031 284.726562 C 793.21875 284.316406 791.792969 285.023438 791.28125 286.3125 C 790.746094 287.660156 791.480469 289.199219 792.910156 289.734375 L 793.667969 290.015625 L 795.015625 288.621094 C 796.09375 287.503906 796.355469 287.132812 796.332031 286.761719 C 796.28125 286.082031 795.292969 285.007812 794.457031 284.726562 M 777.910156 290.171875 C 775.636719 289.414062 773.675781 291.667969 774.703125 293.863281 C 775.363281 295.273438 777.496094 295.722656 778.707031 294.703125 C 780.265625 293.390625 779.8125 290.804688 777.910156 290.171875 M 772.484375 295.234375 C 771.730469 294.960938 771.566406 294.828125 771.375 294.324219 C 770.832031 292.90625 768.625 292.394531 767.421875 293.410156 C 766.667969 294.046875 765.976562 295.5625 765.902344 296.746094 C 765.859375 297.4375 765.945312 297.648438 766.601562 298.425781 C 767.328125 299.285156 767.386719 299.3125 768.445312 299.339844 C 769.046875 299.355469 769.644531 299.488281 769.769531 299.640625 C 769.898438 299.789062 770.324219 300.019531 770.71875 300.152344 C 771.117188 300.285156 771.425781 300.417969 771.410156 300.449219 C 770.515625 302.324219 770.996094 303.933594 772.640625 304.585938 C 774.417969 305.289062 776.441406 303.707031 776.15625 301.839844 C 776.011719 300.925781 775.132812 299.828125 774.375 299.628906 C 773.859375 299.492188 773.835938 299.464844 773.960938 299.105469 C 774.28125 298.175781 774.339844 297.492188 774.148438 296.882812 C 773.855469 295.957031 773.503906 295.605469 772.484375 295.234375 M 766.578125 300.355469 C 765.675781 299.988281 764.796875 300.152344 763.984375 300.84375 C 763.152344 301.542969 762.855469 302.375 763.085938 303.355469 C 763.402344 304.722656 764.195312 305.351562 765.707031 305.425781 C 766.289062 305.453125 766.554688 305.335938 767.269531 304.734375 C 767.980469 304.132812 768.140625 303.890625 768.210938 303.3125 C 768.390625 301.8125 767.871094 300.875 766.578125 300.355469 M 845.71875 481.546875 C 844.941406 481.316406 843.824219 481.523438 843.234375 482.007812 C 842.664062 482.472656 842.207031 483.75 842.335938 484.515625 C 842.390625 484.855469 842.671875 485.414062 842.957031 485.75 C 843.246094 486.089844 843.746094 486.460938 844.070312 486.574219 C 844.78125 486.820312 846.128906 486.597656 846.667969 486.140625 C 847.25 485.652344 847.695312 484.421875 847.566406 483.671875 C 847.410156 482.792969 846.539062 481.789062 845.71875 481.546875 M 841.347656 478.160156 C 840.847656 477.898438 839.484375 477.90625 838.9375 478.175781 C 838.261719 478.503906 837.660156 479.363281 837.515625 480.199219 L 837.382812 480.964844 L 836.746094 480.929688 C 835.800781 480.878906 834.601562 481.757812 834.28125 482.734375 C 833.6875 484.546875 835.242188 486.46875 837.074219 486.183594 C 838.234375 486.003906 839.167969 485.109375 839.332031 484.023438 C 839.410156 483.492188 839.550781 483.179688 839.6875 483.222656 C 840.210938 483.394531 841.640625 482.890625 842.074219 482.382812 C 843.226562 481.042969 842.867188 478.960938 841.347656 478.160156 M 828.265625 480.039062 C 827.550781 479.742188 827.183594 479.726562 826.429688 479.972656 C 825.5 480.273438 825.484375 480.285156 825.046875 481.136719 C 824.433594 482.332031 824.515625 483.148438 825.355469 484.144531 C 825.960938 484.863281 826.121094 484.945312 827.015625 485.023438 C 830.078125 485.28125 831.097656 481.21875 828.265625 480.039062 M 814.136719 479.679688 C 810.261719 478.382812 810.195312 478.371094 807.433594 478.355469 C 804.410156 478.339844 803.71875 478.527344 802.652344 479.660156 C 801.328125 481.070312 801.347656 480.917969 802.339844 482.097656 C 803.636719 483.628906 804.34375 483.878906 807.378906 483.863281 C 808.761719 483.855469 810.199219 483.777344 810.578125 483.691406 C 812.027344 483.355469 817.707031 481.429688 817.875 481.214844 C 817.996094 481.054688 816.902344 480.605469 814.136719 479.679688 " fill-opacity="1" fill-rule="evenodd"/></g></g></g></g><g clip-path="url(#d1f93826f5)"><g clip-path="url(#eb0f39543f)"><g clip-path="url(#87f968cb01)"><g clip-path="url(#01a7330cc3)"><path fill="#8b908c" d="M 1110.210938 214.59375 C 1108.878906 213.835938 1106.785156 213.546875 1104.953125 213.875 C 1104.410156 213.96875 1103.902344 214.039062 1103.820312 214.023438 C 1103.738281 214.007812 1101.410156 214.40625 1098.644531 214.902344 C 1091.421875 216.207031 1089.980469 216.402344 1084.703125 216.785156 C 1081.675781 217.003906 1073.679688 217.289062 1073.246094 217.195312 C 1073.160156 217.175781 1070.730469 217.183594 1067.84375 217.207031 C 1064.957031 217.234375 1062.367188 217.257812 1062.089844 217.253906 C 1060.609375 217.246094 1050.765625 217.390625 1048.648438 217.449219 C 1047.296875 217.488281 1046.121094 217.507812 1046.042969 217.492188 C 1045.960938 217.480469 1044.800781 217.515625 1043.464844 217.570312 C 1034.871094 217.9375 1032.59375 218.050781 1030.109375 218.242188 C 1028.582031 218.359375 1027.222656 218.460938 1027.085938 218.464844 C 1026.65625 218.480469 1022.308594 219.027344 1021.394531 219.179688 C 1020.910156 219.261719 1020.449219 219.320312 1020.367188 219.308594 C 1020.074219 219.261719 1012.625 220.539062 1010.246094 221.042969 C 993.148438 224.652344 983.179688 228.757812 964.351562 239.9375 C 954.144531 246 950.40625 248.8125 932.613281 263.816406 L 918.335938 275.851562 L 908.78125 284.976562 C 903.527344 289.992188 897.097656 296.074219 894.492188 298.488281 C 891.890625 300.902344 888.425781 304.171875 886.792969 305.753906 C 885.160156 307.332031 883.625 308.796875 883.378906 309.003906 C 882.820312 309.472656 883.160156 309.492188 884.210938 309.054688 C 884.648438 308.871094 885.035156 308.796875 885.074219 308.890625 C 885.152344 309.085938 882.398438 315.699219 880.597656 319.632812 L 879.402344 322.246094 L 876.847656 324.738281 C 875.445312 326.113281 872.621094 328.878906 870.578125 330.890625 C 862.523438 338.816406 858.574219 342.101562 850.816406 347.320312 C 845.328125 351.011719 843.738281 352.117188 839.707031 355.046875 C 832.976562 359.933594 832.421875 360.261719 861.6875 341.992188 C 867.722656 338.226562 875.976562 333.023438 880.03125 330.433594 C 903.71875 315.300781 910.113281 311.632812 934.503906 299.183594 C 948.28125 292.152344 951.832031 290.460938 976.191406 279.335938 C 1015.03125 261.59375 1015.035156 261.59375 1008.144531 265.449219 C 986.519531 277.558594 951.953125 296.488281 945.371094 299.824219 C 928.867188 308.195312 920.445312 312.582031 913.523438 316.410156 C 905.027344 321.113281 900.804688 323.703125 877.273438 338.675781 C 873.535156 341.054688 864.382812 346.796875 856.9375 351.4375 C 841.148438 361.277344 834.796875 365.292969 834.644531 365.539062 C 834.585938 365.636719 836.535156 365.679688 838.976562 365.636719 C 841.417969 365.59375 843.871094 365.566406 844.433594 365.574219 C 851.949219 365.691406 867.789062 365.648438 873.714844 365.496094 C 881.148438 365.304688 894.019531 363.957031 899.636719 362.785156 C 900.050781 362.699219 901.417969 362.441406 902.679688 362.210938 C 910.734375 360.75 923.164062 356.925781 934.175781 352.523438 C 941.835938 349.460938 956.695312 342.839844 966.773438 338 C 972.359375 335.316406 974.46875 334.289062 975.222656 333.886719 C 975.640625 333.664062 976.921875 333.027344 978.0625 332.476562 C 982.023438 330.558594 994.355469 324.015625 994.949219 323.515625 C 995.1875 323.316406 995.171875 323.167969 994.875 322.8125 C 994.101562 321.898438 994.109375 320.355469 994.890625 319.398438 C 995.167969 319.058594 995.589844 318.8125 996.203125 318.632812 L 997.109375 318.367188 L 996.628906 317.652344 C 996.121094 316.886719 996.054688 316.003906 996.441406 315.0625 C 997.105469 313.453125 999.273438 313.109375 1000.753906 314.371094 C 1001.273438 314.816406 1001.300781 314.8125 1001.648438 314.320312 C 1001.847656 314.035156 1002.171875 313.597656 1002.371094 313.339844 L 1002.734375 312.875 L 1001.738281 313.105469 C 1000.578125 313.378906 999.789062 313.117188 999.035156 312.21875 C 997.792969 310.75 998.46875 308.46875 1000.261719 308.066406 C 1001.476562 307.792969 1002.167969 308.027344 1002.980469 308.988281 C 1003.707031 309.851562 1003.722656 309.90625 1003.566406 310.988281 C 1003.445312 311.828125 1003.472656 312.046875 1003.679688 311.871094 C 1004.449219 311.226562 1006.257812 311.53125 1007.019531 312.433594 C 1007.835938 313.402344 1007.746094 315.226562 1006.84375 316 C 1006.613281 316.195312 1006.378906 316.496094 1006.324219 316.667969 C 1006.199219 317.066406 1006.316406 317.007812 1009.761719 314.9375 C 1011.234375 314.050781 1012.625 313.214844 1012.855469 313.078125 C 1013.300781 312.8125 1016.515625 310.804688 1017.476562 310.199219 C 1017.792969 309.996094 1018.863281 309.320312 1019.859375 308.691406 C 1023.359375 306.484375 1026.066406 304.691406 1030.199219 301.84375 C 1032.285156 300.40625 1032.367188 300.347656 1034.527344 298.765625 C 1041.742188 293.484375 1045.640625 290.421875 1052.542969 284.59375 C 1057.554688 280.363281 1062.101562 276.3125 1062.125 276.054688 C 1062.136719 275.910156 1057.769531 278.066406 1047.609375 283.222656 C 1024.207031 295.097656 1000.261719 305.945312 982.265625 312.828125 C 970.484375 317.332031 962.28125 320.078125 941.039062 326.625 C 931.179688 329.664062 913.886719 335.058594 908.035156 336.921875 C 907.109375 337.214844 899.242188 339.246094 890.558594 341.429688 C 866.742188 347.425781 864.214844 348.042969 864.226562 347.886719 C 864.246094 347.667969 866.292969 346.871094 895.632812 335.652344 C 904.792969 332.148438 910.824219 330.167969 934.679688 322.824219 C 962.753906 314.179688 971.257812 311.300781 985.425781 305.652344 C 1003.765625 298.335938 1024.105469 288.996094 1046.875 277.429688 C 1055.582031 273.007812 1061.710938 269.984375 1068.460938 266.78125 C 1073.78125 264.257812 1072.878906 264.917969 1076.34375 261.007812 C 1078.269531 258.832031 1080.949219 255.867188 1082.070312 254.664062 C 1083.089844 253.574219 1085.214844 251.207031 1086.359375 249.894531 C 1086.78125 249.410156 1087.421875 248.691406 1087.78125 248.296875 C 1088.140625 247.902344 1088.546875 247.441406 1088.679688 247.269531 C 1088.8125 247.101562 1089.5 246.300781 1090.203125 245.496094 C 1090.910156 244.691406 1091.625 243.859375 1091.792969 243.648438 C 1091.964844 243.441406 1093.226562 241.921875 1094.601562 240.273438 C 1095.976562 238.625 1097.109375 237.234375 1097.113281 237.179688 C 1097.117188 237.125 1096.96875 237.148438 1096.785156 237.226562 C 1096.597656 237.308594 1094.113281 238.371094 1091.261719 239.585938 C 1075.378906 246.367188 1066.605469 250.617188 1049.964844 259.601562 C 1039.179688 265.421875 1037.136719 266.503906 1025.496094 272.570312 C 1014.167969 278.472656 1007.828125 281.859375 995.566406 288.5625 C 988.96875 292.167969 985.265625 294.054688 978.65625 297.179688 C 958.785156 306.570312 949.757812 310.820312 948.578125 311.347656 C 947.363281 311.890625 946.847656 312.039062 947.191406 311.75 C 947.519531 311.472656 954.886719 306.835938 969.46875 297.730469 C 982.828125 289.386719 985.160156 287.992188 992.039062 284.234375 C 1004.835938 277.234375 1009.886719 274.535156 1023.371094 267.484375 C 1030.484375 263.769531 1040.746094 258.332031 1046.171875 255.402344 C 1065.515625 244.96875 1073.242188 241.246094 1092.648438 233.019531 C 1106.160156 227.289062 1108.828125 226.121094 1109.679688 225.570312 C 1110.71875 224.898438 1112.265625 223.136719 1112.679688 222.152344 C 1113.128906 221.082031 1113.167969 218.777344 1112.75 217.664062 C 1112.332031 216.550781 1111.164062 215.136719 1110.210938 214.59375 M 895.082031 29.816406 C 894.035156 30.082031 893.828125 30.207031 892.628906 31.316406 C 891.417969 32.433594 891.292969 32.613281 890.945312 33.742188 C 890.378906 35.570312 890.484375 36.464844 892.132812 43.636719 C 892.691406 46.070312 893.46875 49.546875 893.863281 51.359375 C 894.257812 53.171875 894.785156 55.613281 895.039062 56.78125 C 896.050781 61.417969 896.808594 65.882812 897.359375 70.421875 C 898.339844 78.507812 899.027344 83.980469 899.1875 84.980469 C 899.261719 85.46875 899.328125 85.976562 899.328125 86.113281 C 899.332031 86.25 899.570312 88.371094 899.855469 90.828125 C 900.144531 93.285156 900.378906 95.40625 900.382812 95.542969 C 900.382812 95.683594 900.507812 96.878906 900.65625 98.207031 C 900.804688 99.53125 900.917969 100.679688 900.90625 100.757812 C 900.898438 100.835938 900.953125 101.300781 901.027344 101.789062 C 901.105469 102.277344 901.171875 102.789062 901.171875 102.925781 C 901.175781 103.339844 902.347656 112.632812 902.578125 114.066406 C 902.652344 114.554688 902.714844 115.085938 902.707031 115.25 C 902.703125 115.414062 902.808594 116.285156 902.945312 117.183594 C 903.972656 124.019531 904.519531 131.824219 905.246094 149.925781 C 905.757812 162.761719 905.308594 171.902344 903.476562 186.015625 C 901.992188 197.476562 900.925781 203.191406 898.949219 210.332031 C 898.675781 211.324219 898.277344 212.789062 898.066406 213.589844 C 897.859375 214.390625 897.625 215.265625 897.546875 215.539062 C 897.46875 215.8125 897.246094 216.671875 897.050781 217.453125 C 896.773438 218.566406 895.597656 222.695312 894.214844 227.421875 C 893.605469 229.496094 889.726562 240.246094 888.027344 244.5625 C 886.070312 249.53125 880.539062 261.9375 876.355469 270.730469 C 871.03125 281.929688 869.71875 284.546875 868.46875 286.457031 C 867.953125 287.242188 866.417969 289.574219 865.054688 291.636719 C 862.371094 295.699219 861.746094 296.878906 861.503906 298.34375 C 861.417969 298.878906 860.980469 299.917969 860.507812 300.71875 C 860.046875 301.503906 856.636719 307.417969 852.933594 313.863281 C 849.230469 320.308594 845.265625 327.164062 844.125 329.09375 C 842.984375 331.027344 840.949219 334.589844 839.597656 337.011719 C 838.25 339.4375 836.867188 341.859375 836.523438 342.398438 C 836.183594 342.9375 835.9375 343.417969 835.980469 343.46875 C 836.023438 343.519531 837.171875 342.765625 838.53125 341.789062 L 841.003906 340.019531 L 847.714844 330.808594 C 857.9375 316.777344 858.578125 315.886719 860.792969 312.578125 C 861.925781 310.886719 864.601562 306.535156 866.738281 302.910156 C 876.636719 286.109375 885.664062 271.878906 898.945312 252.128906 C 906.296875 241.203125 909.457031 236.03125 914.398438 226.84375 C 916.875 222.234375 924.695312 205.121094 930.726562 191.109375 L 933.289062 185.15625 L 934.75 183.847656 L 936.214844 182.542969 L 936.835938 178.742188 C 938.605469 167.9375 938.492188 158.132812 936.445312 145.457031 C 934.886719 135.808594 933.644531 130.738281 929.0625 115.359375 C 923.808594 97.730469 921.132812 89.605469 916.582031 77.46875 C 913.640625 69.625 905.46875 48.84375 904.113281 45.75 C 901.488281 39.761719 897.03125 30.5 896.429688 29.777344 C 896.300781 29.625 895.792969 29.636719 895.082031 29.816406 M 1025.246094 234.628906 C 1022.792969 233.808594 1020.78125 236.8125 1022.457031 238.792969 C 1023.398438 239.910156 1024.996094 240.046875 1026.113281 239.101562 C 1027.671875 237.789062 1027.183594 235.273438 1025.246094 234.628906 M 1027.695312 242.9375 C 1025.75 242.648438 1024.277344 244.21875 1024.710938 246.125 C 1025.003906 247.417969 1026.460938 248.339844 1027.773438 248.0625 C 1029.832031 247.625 1030.554688 245.40625 1029.167969 243.765625 C 1028.691406 243.199219 1028.421875 243.046875 1027.695312 242.9375 M 1015.933594 243.003906 C 1015.550781 242.890625 1014.925781 242.878906 1014.546875 242.980469 C 1013.894531 243.152344 1013.835938 243.128906 1013.390625 242.457031 C 1012.488281 241.105469 1010.695312 240.796875 1009.515625 241.792969 C 1007.582031 243.421875 1008.625 246.378906 1011.152344 246.425781 C 1011.644531 246.4375 1012.136719 246.371094 1012.238281 246.285156 C 1012.378906 246.167969 1012.601562 246.367188 1013.089844 247.035156 C 1013.707031 247.882812 1013.816406 247.957031 1014.675781 248.085938 C 1016.398438 248.34375 1017.667969 247.34375 1017.777344 245.636719 C 1017.84375 244.566406 1016.960938 243.304688 1015.933594 243.003906 M 875.851562 88.855469 C 873.417969 87.289062 870.359375 87.351562 867.289062 89.027344 C 865.070312 90.234375 865 90.328125 863.691406 93.773438 C 863.039062 95.480469 859.257812 104.445312 855.28125 113.6875 C 851.308594 122.933594 846.863281 133.445312 845.402344 137.050781 C 831.152344 172.175781 815.488281 209.5625 799.1875 247.34375 C 787.203125 275.117188 783.660156 282.738281 782.160156 283.980469 C 781.394531 284.613281 778.664062 286.148438 778.351562 286.121094 C 778.261719 286.113281 778.101562 285.0625 778 283.785156 C 777.789062 281.148438 777.683594 281.488281 780.226562 276.34375 C 783.175781 270.371094 785.285156 265.65625 793.34375 246.988281 C 808.808594 211.179688 826.964844 167.878906 839.242188 137.515625 C 842.3125 129.929688 849.5 112.921875 853.195312 104.519531 L 856.421875 97.171875 L 853.992188 99.046875 C 841.132812 108.976562 836.1875 112.5625 820.5625 123.285156 C 805.050781 133.929688 801.242188 136.75 792.898438 143.789062 C 775.980469 158.058594 763.1875 171.886719 751.078125 188.996094 C 741.847656 202.042969 737.40625 209.773438 731.90625 222.390625 C 729.148438 228.710938 727.871094 231.957031 726.089844 237.140625 C 724.59375 241.5 722.886719 247.902344 722.007812 252.449219 C 720.226562 261.6875 719.65625 271.042969 720.292969 280.734375 C 720.347656 281.519531 720.375 282.230469 720.363281 282.3125 C 720.324219 282.542969 721.222656 294.941406 721.40625 296.65625 C 721.496094 297.5 721.566406 298.324219 721.566406 298.488281 C 721.566406 298.839844 721.9375 302.542969 722.148438 304.253906 C 722.226562 304.917969 722.3125 305.617188 722.332031 305.804688 C 722.355469 305.996094 722.640625 308.527344 722.96875 311.429688 C 723.6875 317.785156 724.105469 322.121094 724.09375 323.121094 C 724.09375 323.296875 724.144531 323.394531 724.214844 323.335938 C 724.28125 323.28125 724.558594 319.820312 724.828125 315.644531 C 725.8125 300.4375 726.992188 291.089844 729.34375 279.945312 C 732.410156 265.414062 737.695312 249.519531 744.800781 233.492188 C 748.96875 224.082031 751.6875 218.894531 762.640625 199.414062 C 765.050781 195.132812 764.613281 195.832031 774.511719 180.5 C 785.167969 164 786.566406 161.855469 787.054688 161.277344 C 787.613281 160.613281 786.109375 163.988281 782.78125 170.890625 C 781.292969 173.976562 777.710938 181.414062 774.816406 187.421875 C 770.890625 195.570312 768.613281 200.03125 765.839844 204.988281 C 755.113281 224.171875 751.867188 230.566406 747.621094 240.863281 C 737.992188 264.226562 733.273438 282.597656 731.261719 304.554688 L 730.621094 311.515625 L 731.449219 310.898438 C 732.140625 310.378906 733.617188 308.699219 734.425781 307.503906 C 734.589844 307.261719 734.664062 307.273438 734.785156 307.558594 C 734.925781 307.894531 735.039062 307.847656 736.367188 306.878906 C 737.152344 306.304688 738.617188 305.140625 739.625 304.292969 C 740.808594 303.292969 741.480469 302.816406 741.53125 302.941406 C 741.570312 303.050781 741.378906 305.890625 741.105469 309.253906 L 740.601562 315.371094 L 741.585938 312.957031 C 742.128906 311.628906 743.816406 307.308594 745.339844 303.355469 C 749.589844 292.300781 751.210938 288.398438 760.207031 267.5625 C 769.019531 247.148438 771.28125 241.675781 778.519531 223.304688 C 786.128906 203.984375 786.984375 201.878906 793.0625 187.558594 C 796.730469 178.921875 797.804688 176.644531 805.804688 160.570312 C 815.464844 141.167969 816.457031 139.207031 816.628906 139.222656 C 816.789062 139.238281 814.828125 144.851562 807.953125 164.09375 C 802.792969 178.527344 801.820312 181.054688 797.335938 191.660156 C 791.773438 204.828125 790.191406 208.71875 783.890625 224.734375 C 776.757812 242.875 774.558594 248.183594 765.167969 270.011719 C 755.566406 292.3125 754.808594 294.140625 750.230469 306.035156 C 747.042969 314.316406 743.84375 322.261719 742.390625 325.507812 C 741.425781 327.664062 741.476562 327.707031 743.4375 326.34375 C 744.851562 325.363281 750.253906 322.007812 753.105469 320.339844 C 754.21875 319.6875 755.613281 318.855469 756.207031 318.488281 C 756.796875 318.125 757.925781 317.445312 758.714844 316.984375 C 764.363281 313.664062 771.351562 309.027344 775.90625 305.566406 C 779.460938 302.867188 788.878906 294.816406 791.34375 292.371094 C 792.585938 291.136719 793.609375 290.089844 793.617188 290.046875 C 793.621094 290.003906 793.300781 289.859375 792.90625 289.730469 C 791.515625 289.265625 790.75 287.65625 791.28125 286.3125 C 792.035156 284.414062 794.378906 284.035156 795.703125 285.597656 C 795.996094 285.945312 796.277344 286.417969 796.324219 286.644531 C 796.402344 287.003906 796.460938 287.015625 796.792969 286.738281 C 797.160156 286.425781 801.789062 281.320312 802.007812 280.980469 C 802.070312 280.890625 801.804688 280.882812 801.421875 280.96875 C 800.492188 281.179688 799.164062 280.601562 798.699219 279.777344 C 797.964844 278.484375 798.335938 276.980469 799.597656 276.148438 C 800.359375 275.648438 800.367188 275.632812 800.109375 274.996094 C 799.804688 274.238281 799.945312 273.367188 800.511719 272.5 C 800.859375 271.96875 801.0625 271.832031 801.867188 271.597656 C 802.644531 271.367188 802.972656 271.394531 803.691406 271.746094 C 805.660156 272.703125 805.804688 275.109375 803.964844 276.324219 C 803.269531 276.78125 803.210938 276.875 803.367188 277.238281 C 803.464844 277.460938 803.5625 277.972656 803.582031 278.375 L 803.625 279.101562 L 805.046875 277.460938 C 806.789062 275.449219 808.097656 273.890625 810.277344 271.226562 C 811.195312 270.101562 812.425781 268.605469 813.011719 267.902344 C 815.847656 264.472656 819.953125 259.207031 823.710938 254.167969 C 827.777344 248.722656 827.921875 248.46875 834.5625 235.539062 C 847.015625 211.292969 850.871094 202.75 857.371094 184.984375 C 864.160156 166.429688 867.636719 153.988281 871.261719 135.304688 C 872.421875 129.320312 872.984375 124.785156 874.625 108.195312 C 875.742188 96.878906 876.167969 93.613281 876.796875 91.5 C 877.289062 89.855469 877.253906 89.757812 875.851562 88.855469 M 918.167969 179.085938 C 916.65625 178.367188 914.851562 179.25 914.519531 180.867188 C 914.210938 182.367188 915.226562 183.894531 916.632812 184.042969 L 917.339844 184.117188 L 916.574219 184.679688 C 914.859375 185.929688 915.09375 188.320312 917.015625 189.191406 C 918.511719 189.871094 920.375 188.867188 920.617188 187.25 C 920.855469 185.6875 920.039062 184.480469 918.578125 184.230469 L 917.871094 184.109375 L 918.546875 183.648438 C 919.503906 182.992188 919.863281 182.023438 919.585938 180.851562 C 919.316406 179.71875 919.199219 179.574219 918.167969 179.085938 M 932.835938 196.824219 C 932.761719 196.890625 930.851562 201.164062 926.792969 210.359375 C 925.9375 212.300781 925.183594 213.957031 925.117188 214.042969 C 925.050781 214.132812 924.367188 215.601562 923.59375 217.3125 C 921.378906 222.222656 920.8125 223.445312 920.214844 224.652344 C 919.90625 225.269531 919.449219 226.203125 919.195312 226.726562 C 918.941406 227.246094 918.683594 227.746094 918.625 227.839844 C 918.5625 227.929688 917.433594 229.949219 916.113281 232.324219 C 914.792969 234.699219 913.414062 237.117188 913.046875 237.691406 C 912.683594 238.269531 912.21875 239.066406 912.019531 239.457031 C 911.816406 239.851562 911.644531 240.164062 911.636719 240.15625 C 911.628906 240.144531 911.089844 241.050781 910.4375 242.164062 C 909.785156 243.28125 909.023438 244.527344 908.746094 244.9375 C 908.46875 245.347656 907.195312 247.265625 905.917969 249.199219 C 904.640625 251.128906 903.132812 253.375 902.570312 254.183594 C 902.007812 254.996094 900.703125 256.945312 899.671875 258.511719 C 898.644531 260.082031 897.664062 261.542969 897.5 261.757812 C 896.746094 262.742188 895.183594 265.160156 895.15625 265.382812 C 895.140625 265.519531 894.992188 265.742188 894.832031 265.878906 C 894.570312 266.101562 892.875 268.582031 892.511719 269.277344 C 892.429688 269.429688 892.324219 269.59375 892.277344 269.648438 C 892.230469 269.699219 892.183594 269.835938 892.171875 269.945312 C 892.164062 270.058594 892.011719 270.269531 891.839844 270.417969 C 891.664062 270.566406 891.308594 271.027344 891.046875 271.445312 C 890.605469 272.152344 887.8125 276.554688 885.8125 279.695312 C 885.335938 280.445312 884.816406 281.328125 884.660156 281.65625 C 884.5 281.984375 884.289062 282.320312 884.195312 282.402344 C 883.988281 282.578125 881.839844 285.894531 881.734375 286.203125 C 881.691406 286.320312 881.582031 286.503906 881.484375 286.613281 C 881.386719 286.726562 880.871094 287.527344 880.339844 288.394531 C 879.808594 289.261719 878.457031 291.441406 877.339844 293.238281 C 876.222656 295.035156 875.183594 296.753906 875.027344 297.066406 C 874.875 297.375 874.40625 298.164062 873.992188 298.820312 C 873.578125 299.476562 873.109375 300.265625 872.953125 300.574219 C 872.800781 300.882812 872.316406 301.722656 871.878906 302.4375 C 871.445312 303.152344 870.484375 304.765625 869.746094 306.027344 C 869.007812 307.285156 867.875 309.164062 867.222656 310.203125 C 866.574219 311.238281 865.960938 312.257812 865.859375 312.464844 C 865.675781 312.828125 861.378906 319.082031 860.65625 320.03125 C 860.460938 320.289062 860.273438 320.613281 860.246094 320.753906 C 860.214844 320.894531 859.945312 321.273438 859.640625 321.601562 C 859.101562 322.1875 856.71875 325.375 856.421875 325.90625 C 856.339844 326.054688 856.203125 326.210938 856.121094 326.253906 C 856.039062 326.296875 855.945312 326.46875 855.917969 326.632812 C 855.886719 326.800781 855.808594 326.933594 855.746094 326.929688 C 855.679688 326.921875 854.644531 328.300781 853.4375 329.988281 L 851.246094 333.054688 L 853.609375 331.082031 C 854.910156 329.996094 856.816406 328.289062 857.839844 327.289062 C 859.628906 325.542969 859.773438 325.347656 861.355469 322.5625 C 862.957031 319.742188 863.046875 319.621094 864.449219 318.4375 C 866.261719 316.910156 869.847656 312.386719 871.660156 309.339844 C 871.804688 309.097656 872.90625 307.3125 874.105469 305.375 C 875.308594 303.433594 877.21875 300.28125 878.351562 298.375 C 880.058594 295.496094 880.566406 294.773438 881.34375 294.117188 C 881.878906 293.664062 882.59375 292.832031 883.023438 292.167969 C 883.433594 291.53125 884.335938 290.269531 885.03125 289.367188 C 888.136719 285.328125 890.234375 282.519531 891.824219 280.253906 C 893.933594 277.257812 899.058594 269.648438 899.316406 269.136719 C 899.601562 268.574219 903.84375 261.753906 905.871094 258.597656 C 906.847656 257.078125 908.574219 254.152344 909.707031 252.097656 C 910.835938 250.042969 912.613281 246.886719 913.65625 245.082031 C 916.144531 240.777344 917.074219 238.984375 920.121094 232.597656 C 923.914062 224.640625 925.9375 219.59375 928.820312 210.882812 C 930.421875 206.042969 933.125 196.582031 932.835938 196.824219 M 1002.984375 318.117188 C 1002.625 318.007812 1002.179688 317.738281 1001.996094 317.519531 C 1001.671875 317.136719 1001.65625 317.140625 1001.433594 317.679688 C 1001.140625 318.390625 1000.484375 318.941406 999.710938 319.113281 C 999 319.273438 998.984375 319.316406 999.332031 320.214844 C 999.527344 320.71875 999.648438 320.867188 999.808594 320.800781 C 1000.398438 320.554688 1003.800781 318.472656 1003.726562 318.402344 C 1003.679688 318.355469 1003.34375 318.230469 1002.984375 318.117188 M 988.609375 319.996094 C 987.746094 319.492188 987.277344 319.421875 986.496094 319.667969 C 984.515625 320.292969 983.957031 322.414062 985.34375 324.054688 C 986.171875 325.039062 986.957031 325.351562 987.992188 325.109375 C 989.066406 324.859375 989.621094 324.375 989.878906 323.457031 C 990.292969 321.976562 989.824219 320.703125 988.609375 319.996094 M 980.277344 325.207031 C 979.714844 324.914062 978.691406 324.925781 978.011719 325.230469 C 976.523438 325.898438 976.039062 327.953125 977.078125 329.1875 C 977.777344 330.015625 978.628906 330.378906 979.550781 330.234375 C 980.898438 330.023438 981.96875 328.578125 981.765625 327.242188 C 981.65625 326.535156 980.933594 325.542969 980.277344 325.207031 M 965.5 330.410156 C 963.929688 329.367188 961.679688 330.34375 961.386719 332.191406 C 961.015625 334.5625 963.898438 336.136719 965.75 334.574219 C 966.996094 333.519531 966.863281 331.316406 965.5 330.410156 M 945.65625 337.347656 C 943.785156 336.964844 942.121094 338.460938 942.390625 340.289062 C 942.707031 342.417969 945.054688 343.230469 946.757812 341.800781 C 947.394531 341.261719 947.484375 341.078125 947.5625 340.144531 C 947.644531 339.175781 947.597656 339.023438 946.972656 338.285156 C 946.472656 337.691406 946.125 337.445312 945.65625 337.347656 M 964.503906 409.175781 C 962.199219 407.855469 958.285156 407.226562 949.183594 406.714844 C 940.570312 406.230469 937.140625 406.101562 933.566406 406.117188 C 932.597656 406.125 931.742188 406.117188 931.664062 406.105469 C 931.261719 406.042969 921.105469 406.257812 917.546875 406.402344 C 913.90625 406.550781 902.757812 407.269531 900.832031 407.476562 C 900.550781 407.503906 899.492188 407.589844 898.480469 407.664062 C 897.464844 407.738281 895.835938 407.90625 894.851562 408.035156 C 893.871094 408.167969 892.941406 408.273438 892.785156 408.269531 C 892.007812 408.257812 883.265625 409.953125 880.003906 410.75 C 873.015625 412.453125 867.542969 414.332031 855.03125 419.320312 C 841.515625 424.707031 837.582031 426.691406 818.449219 437.757812 C 804.183594 446.011719 797.953125 449.824219 785.980469 457.632812 C 778.320312 462.628906 777.222656 463.375 777.324219 463.496094 C 777.367188 463.546875 778.421875 463.546875 779.671875 463.496094 C 784.445312 463.3125 786.46875 463.289062 786.574219 463.414062 C 786.683594 463.542969 786.074219 464.53125 784.921875 466.082031 C 784.597656 466.515625 784.320312 466.953125 784.304688 467.050781 C 784.289062 467.152344 786.554688 466.207031 789.335938 464.953125 C 805.023438 457.890625 817.539062 452.878906 831.355469 448.125 C 846.867188 442.785156 855.199219 440.308594 871.832031 436.09375 C 879.957031 434.039062 880.726562 433.886719 894.75 431.609375 C 909.425781 429.230469 910.367188 429.089844 910.0625 429.363281 C 909.5625 429.808594 882.25 439.148438 879.015625 439.980469 C 877.421875 440.390625 872.808594 441.566406 868.761719 442.597656 C 857.136719 445.554688 850.425781 447.542969 838.21875 451.632812 C 823.238281 456.65625 816.519531 459.21875 801.816406 465.507812 C 784.039062 473.117188 772.457031 478.679688 760.328125 485.441406 C 757.644531 486.941406 755.25 488.265625 755.007812 488.390625 C 754.769531 488.515625 756.511719 488.300781 758.886719 487.914062 C 763.898438 487.09375 766.691406 486.804688 769.863281 486.773438 C 772.613281 486.75 782.632812 487.578125 784.886719 488.015625 C 785.777344 488.191406 787.515625 488.308594 788.753906 488.277344 C 793.398438 488.160156 807.03125 488.128906 809.175781 488.226562 C 809.332031 488.234375 810.1875 488.246094 811.078125 488.253906 C 811.96875 488.265625 813.625 488.289062 814.757812 488.3125 C 818.898438 488.394531 825.558594 488.371094 829.210938 488.261719 C 830.628906 488.222656 832.035156 488.1875 832.335938 488.183594 C 833.410156 488.179688 840.539062 487.769531 841.902344 487.632812 C 843.835938 487.441406 847.472656 487.007812 848.664062 486.824219 C 849.207031 486.738281 850.515625 486.550781 851.570312 486.40625 C 857.734375 485.546875 869.003906 483.148438 875.699219 481.265625 C 884.078125 478.910156 895.53125 474.492188 904.492188 470.167969 C 905.378906 469.738281 907.675781 468.632812 909.597656 467.710938 C 920.292969 462.566406 928.863281 457.789062 936.0625 452.953125 C 938.570312 451.273438 939.664062 450.503906 944.992188 446.667969 C 947.21875 445.066406 954.839844 438.515625 955.277344 437.828125 C 955.585938 437.34375 955.523438 437.347656 953.761719 437.933594 C 945.769531 440.585938 928.953125 444.828125 915.421875 447.601562 C 911.171875 448.472656 901.25 450.539062 893.378906 452.199219 L 879.066406 455.214844 L 865.179688 456.992188 C 849.230469 459.035156 847.910156 459.1875 847.925781 459 C 847.9375 458.835938 851.492188 457.738281 866.78125 453.164062 C 879.546875 449.347656 878.988281 449.476562 917.480469 441.53125 C 932.976562 438.332031 950.007812 433.683594 960.726562 429.726562 L 963.171875 428.824219 L 963.996094 427.625 C 966.539062 423.929688 968.410156 419.292969 968.5 416.476562 C 968.523438 415.777344 968.410156 414.671875 968.246094 414.023438 C 967.988281 412.984375 967.796875 412.648438 966.683594 411.269531 C 965.695312 410.046875 965.210938 409.582031 964.503906 409.175781 M 819.976562 250.507812 C 819.074219 250.140625 818.199219 250.308594 817.382812 250.996094 C 816.554688 251.695312 816.253906 252.527344 816.484375 253.507812 C 816.800781 254.875 817.597656 255.503906 819.105469 255.578125 C 819.691406 255.605469 819.953125 255.492188 820.667969 254.886719 C 821.382812 254.285156 821.542969 254.042969 821.609375 253.464844 C 821.789062 251.96875 821.269531 251.027344 819.976562 250.507812 M 812.59375 259.636719 C 810.761719 259.027344 808.875 260.730469 809.273438 262.632812 C 809.640625 264.355469 811.421875 265.261719 812.996094 264.527344 C 813.925781 264.089844 814.410156 263.289062 814.433594 262.140625 C 814.445312 261.417969 814.339844 261.121094 813.863281 260.558594 C 813.503906 260.128906 813.019531 259.777344 812.59375 259.636719 M 886.6875 348.304688 C 885.878906 347.929688 885.363281 347.941406 884.417969 348.367188 C 883.265625 348.886719 882.648438 350.734375 883.25 351.871094 C 883.398438 352.15625 883.425781 352.527344 883.308594 352.714844 C 882.90625 353.351562 882.847656 354.519531 883.183594 355.238281 C 883.628906 356.191406 884.417969 356.671875 885.578125 356.691406 C 886.300781 356.707031 886.597656 356.597656 887.160156 356.121094 C 887.585938 355.761719 887.941406 355.273438 888.082031 354.851562 C 888.304688 354.191406 888.191406 353.105469 887.863281 352.710938 C 887.773438 352.609375 887.832031 352.183594 887.992188 351.773438 C 888.582031 350.261719 888.085938 348.953125 886.6875 348.304688 M 887.480469 358.222656 C 886.902344 357.917969 885.601562 357.984375 884.953125 358.347656 C 884.125 358.820312 883.5 360.191406 883.703125 361.085938 C 884.039062 362.558594 885.449219 363.496094 886.875 363.191406 C 887.851562 362.980469 888.398438 362.496094 888.765625 361.519531 C 889.21875 360.304688 888.648438 358.835938 887.480469 358.222656 M 875.914062 351.304688 C 875.015625 350.914062 874.046875 351.09375 873.195312 351.8125 C 872.628906 352.289062 872.472656 352.5625 872.363281 353.289062 C 872.101562 355.039062 873.179688 356.3125 874.957031 356.347656 C 875.671875 356.359375 875.980469 356.25 876.523438 355.792969 C 878.125 354.441406 877.8125 352.132812 875.914062 351.304688 M 777.910156 290.171875 C 775.636719 289.414062 773.675781 291.667969 774.703125 293.863281 C 775.363281 295.273438 777.496094 295.722656 778.707031 294.703125 C 780.265625 293.390625 779.8125 290.804688 777.910156 290.171875 M 772.484375 295.234375 C 771.730469 294.960938 771.566406 294.828125 771.375 294.324219 C 770.832031 292.90625 768.625 292.394531 767.421875 293.410156 C 766.667969 294.046875 765.976562 295.5625 765.902344 296.746094 C 765.859375 297.4375 765.945312 297.648438 766.601562 298.425781 C 767.328125 299.285156 767.386719 299.3125 768.445312 299.339844 C 769.046875 299.355469 769.644531 299.488281 769.769531 299.640625 C 769.898438 299.789062 770.324219 300.019531 770.71875 300.152344 C 771.117188 300.285156 771.425781 300.417969 771.410156 300.449219 C 770.515625 302.324219 770.996094 303.933594 772.640625 304.585938 C 774.417969 305.289062 776.441406 303.707031 776.15625 301.839844 C 776.011719 300.925781 775.132812 299.828125 774.375 299.628906 C 773.859375 299.492188 773.835938 299.464844 773.960938 299.105469 C 774.28125 298.175781 774.339844 297.492188 774.148438 296.882812 C 773.855469 295.957031 773.503906 295.605469 772.484375 295.234375 M 820.414062 354.875 C 820.203125 355.03125 819.023438 355.851562 817.792969 356.691406 C 815.015625 358.589844 811.449219 361.316406 812.820312 360.496094 C 814.207031 359.667969 820.179688 355.355469 820.511719 354.945312 C 820.800781 354.589844 820.800781 354.589844 820.414062 354.875 M 766.578125 300.355469 C 765.675781 299.988281 764.796875 300.152344 763.984375 300.84375 C 763.152344 301.542969 762.855469 302.375 763.085938 303.355469 C 763.402344 304.722656 764.195312 305.351562 765.707031 305.425781 C 766.289062 305.453125 766.554688 305.335938 767.269531 304.734375 C 767.980469 304.132812 768.140625 303.890625 768.210938 303.3125 C 768.390625 301.8125 767.871094 300.875 766.578125 300.355469 M 737.878906 321.617188 C 737.832031 321.65625 737.328125 322.59375 736.757812 323.699219 C 735.84375 325.480469 734.933594 327.910156 735.105469 328.109375 C 735.160156 328.175781 737.914062 321.917969 737.949219 321.652344 C 737.957031 321.59375 737.921875 321.578125 737.878906 321.617188 M 845.71875 481.546875 C 844.941406 481.316406 843.824219 481.523438 843.234375 482.007812 C 842.664062 482.472656 842.207031 483.75 842.335938 484.515625 C 842.390625 484.855469 842.671875 485.414062 842.957031 485.75 C 843.246094 486.089844 843.746094 486.460938 844.070312 486.574219 C 844.78125 486.820312 846.128906 486.597656 846.667969 486.140625 C 847.25 485.652344 847.695312 484.421875 847.566406 483.671875 C 847.410156 482.792969 846.539062 481.789062 845.71875 481.546875 M 841.347656 478.160156 C 840.847656 477.898438 839.484375 477.90625 838.9375 478.175781 C 838.261719 478.503906 837.660156 479.363281 837.515625 480.199219 L 837.382812 480.964844 L 836.746094 480.929688 C 835.800781 480.878906 834.601562 481.757812 834.28125 482.734375 C 833.6875 484.546875 835.242188 486.46875 837.074219 486.183594 C 838.234375 486.003906 839.167969 485.109375 839.332031 484.023438 C 839.410156 483.492188 839.550781 483.179688 839.6875 483.222656 C 840.210938 483.394531 841.640625 482.890625 842.074219 482.382812 C 843.226562 481.042969 842.867188 478.960938 841.347656 478.160156 M 828.265625 480.039062 C 827.550781 479.742188 827.183594 479.726562 826.429688 479.972656 C 825.5 480.273438 825.484375 480.285156 825.046875 481.136719 C 824.433594 482.332031 824.515625 483.148438 825.355469 484.144531 C 825.960938 484.863281 826.121094 484.945312 827.015625 485.023438 C 830.078125 485.28125 831.097656 481.21875 828.265625 480.039062 M 814.136719 479.679688 C 810.261719 478.382812 810.195312 478.371094 807.433594 478.355469 C 804.410156 478.339844 803.71875 478.527344 802.652344 479.660156 C 801.328125 481.070312 801.347656 480.917969 802.339844 482.097656 C 803.636719 483.628906 804.34375 483.878906 807.378906 483.863281 C 808.761719 483.855469 810.199219 483.777344 810.578125 483.691406 C 812.027344 483.355469 817.707031 481.429688 817.875 481.214844 C 817.996094 481.054688 816.902344 480.605469 814.136719 479.679688 M 847.011719 535.535156 C 845.265625 533.902344 842.253906 533.144531 831.046875 531.515625 C 828.1875 531.097656 822.917969 530.285156 819.335938 529.710938 C 813.574219 528.78125 799.261719 526.667969 795.746094 526.226562 C 795.03125 526.136719 792.875 525.859375 790.957031 525.613281 C 786.089844 524.984375 772.21875 523.855469 767.5625 523.710938 C 757.769531 523.40625 745.15625 523.421875 737.871094 523.75 C 736.667969 523.804688 735.617188 523.832031 735.535156 523.816406 C 735.296875 523.769531 725.820312 524.472656 724.277344 524.652344 C 723.519531 524.742188 722.835938 524.804688 722.757812 524.796875 C 722.621094 524.78125 716.894531 525.46875 714.476562 525.792969 C 712.585938 526.046875 703.414062 527.742188 699.855469 528.5 C 698.074219 528.875 695.363281 529.453125 693.839844 529.777344 C 692.3125 530.101562 690.390625 530.511719 689.566406 530.683594 C 676.257812 533.507812 669.054688 535.382812 654.933594 539.703125 C 648.949219 541.53125 648.449219 541.738281 640.503906 545.675781 C 627.691406 552.019531 621.75 555.1875 609.835938 562.015625 C 605.214844 564.667969 600.113281 567.558594 598.503906 568.4375 C 596.894531 569.320312 595.171875 570.304688 594.679688 570.621094 L 593.785156 571.203125 L 594.492188 571.296875 C 594.882812 571.347656 596.589844 571.21875 598.28125 571.011719 C 599.976562 570.804688 601.476562 570.628906 601.613281 570.625 C 601.75 570.621094 602.480469 570.546875 603.238281 570.460938 C 604.351562 570.332031 610.085938 569.886719 611.035156 569.855469 C 611.171875 569.851562 613.363281 569.695312 615.90625 569.511719 C 618.453125 569.324219 620.601562 569.183594 620.679688 569.195312 C 620.761719 569.207031 622.023438 569.160156 623.484375 569.085938 C 631.429688 568.695312 639.453125 569.234375 650.417969 570.890625 C 652.78125 571.25 655.058594 571.59375 655.472656 571.65625 C 658.109375 572.054688 662.421875 572.859375 669.261719 574.230469 C 673.070312 574.996094 682.648438 576.859375 682.832031 576.871094 C 682.90625 576.875 684.386719 577.15625 686.113281 577.492188 C 703.875 580.972656 711.679688 581.921875 721.976562 581.847656 C 722.285156 581.84375 723.371094 581.789062 724.386719 581.71875 C 725.40625 581.652344 726.347656 581.597656 726.484375 581.59375 C 727.984375 581.570312 736.21875 580.6875 738.84375 580.269531 C 739.816406 580.113281 742.144531 579.761719 745.703125 579.234375 C 746.664062 579.09375 748.0625 578.894531 748.8125 578.796875 C 749.5625 578.699219 750.929688 578.507812 751.851562 578.371094 C 752.777344 578.234375 754.148438 578.046875 754.898438 577.953125 C 755.652344 577.859375 757.019531 577.667969 757.941406 577.527344 C 758.863281 577.386719 760.820312 577.089844 762.292969 576.863281 C 770.414062 575.628906 776.65625 574.160156 783.417969 571.898438 C 787.414062 570.5625 790.320312 569.421875 797.714844 566.300781 C 800.878906 564.964844 803.8125 563.738281 804.230469 563.578125 C 804.648438 563.414062 806.117188 562.804688 807.496094 562.222656 C 809.902344 561.199219 815.292969 558.929688 817.625 557.957031 C 818.238281 557.703125 820.121094 556.90625 821.800781 556.191406 C 823.484375 555.476562 825.746094 554.53125 826.824219 554.085938 C 827.902344 553.640625 829.785156 552.84375 831.003906 552.320312 C 832.222656 551.796875 833.851562 551.105469 834.621094 550.789062 C 843.167969 547.257812 845.105469 546.324219 846.714844 544.96875 C 847.867188 543.996094 848.105469 543.699219 848.574219 542.679688 C 849.683594 540.246094 849.078125 537.46875 847.011719 535.535156 " fill-opacity="1" fill-rule="evenodd"/></g></g></g></g><g clip-path="url(#15e06596bf)"><g clip-path="url(#43ebb3a78c)"><g clip-path="url(#4f98e85e87)"><g clip-path="url(#c45d509504)"><path fill="#46413e" d="M 936.535156 182.550781 C 936.433594 182.542969 935.707031 183.082031 934.917969 183.75 L 933.480469 184.960938 L 930.316406 192.285156 C 928.578125 196.3125 927.132812 199.625 927.105469 199.648438 C 927.074219 199.675781 926.042969 201.976562 924.8125 204.761719 C 918.484375 219.074219 915.289062 225.667969 911.363281 232.515625 C 906.355469 241.242188 905.679688 242.320312 898.339844 253.203125 C 892.296875 262.171875 887.46875 269.484375 884.792969 273.714844 C 875.550781 288.351562 872.839844 292.742188 869.035156 299.214844 C 861.289062 312.394531 861.65625 311.851562 844.664062 335.125 L 840.917969 340.253906 L 839.421875 341.296875 C 838.597656 341.871094 836.945312 342.996094 835.75 343.796875 C 833.757812 345.132812 825.300781 351.417969 820.734375 354.953125 C 818.042969 357.039062 812.972656 360.632812 812.222656 360.988281 C 811.878906 361.152344 811.222656 361.601562 810.769531 361.984375 C 810.3125 362.367188 809.304688 363.054688 808.527344 363.507812 C 807.753906 363.964844 805.261719 365.496094 802.988281 366.910156 C 792.8125 373.25 785.738281 377.390625 776.261719 382.546875 C 766.515625 387.847656 757.355469 392.878906 749.0625 397.476562 C 744.769531 399.859375 736.875 404.207031 731.523438 407.140625 C 726.171875 410.070312 719.964844 413.546875 717.730469 414.863281 L 713.671875 417.253906 L 711.988281 417.457031 C 708.832031 417.839844 709.1875 417.664062 705.453125 420.675781 L 702.101562 423.378906 L 702.996094 421.644531 C 704.289062 419.128906 705.9375 415.207031 707.167969 411.707031 C 707.757812 410.027344 708.242188 408.589844 708.246094 408.507812 C 708.246094 408.382812 708.78125 406.777344 709.625 404.378906 C 709.714844 404.125 710.085938 402.996094 710.453125 401.871094 C 710.820312 400.75 711.515625 398.683594 712 397.285156 C 712.480469 395.886719 713.296875 393.496094 713.8125 391.976562 C 714.332031 390.453125 715.351562 387.5 716.085938 385.414062 C 719.226562 376.445312 721.441406 369.863281 721.617188 368.988281 C 721.816406 367.980469 722.578125 366.019531 722.988281 365.445312 C 723.472656 364.769531 724.472656 362.136719 726.402344 356.449219 C 726.917969 354.929688 727.675781 352.722656 728.082031 351.546875 C 728.484375 350.371094 728.972656 348.90625 729.160156 348.292969 C 729.347656 347.675781 729.765625 346.386719 730.082031 345.425781 C 730.402344 344.464844 730.679688 343.546875 730.703125 343.382812 C 730.726562 343.222656 730.859375 342.738281 731.003906 342.308594 C 731.144531 341.882812 731.234375 340.960938 731.199219 340.265625 C 731.152344 339.296875 731.367188 338.242188 732.136719 335.742188 C 732.6875 333.945312 733.441406 331.824219 733.816406 331.027344 C 734.1875 330.226562 734.707031 328.828125 734.964844 327.917969 C 735.589844 325.726562 735.695312 325.492188 737.894531 321.328125 C 738.933594 319.355469 739.925781 317.351562 740.09375 316.871094 C 740.386719 316.039062 741.578125 303.546875 741.386719 303.316406 C 741.234375 303.140625 739.902344 304.058594 738.058594 305.609375 C 736.007812 307.34375 734.671875 308.25 734.625 307.941406 C 734.605469 307.804688 734.40625 307.933594 734.09375 308.289062 C 733.816406 308.601562 732.921875 309.539062 732.097656 310.371094 C 731.277344 311.207031 730.347656 312.320312 730.035156 312.847656 C 729.152344 314.324219 726.476562 319.480469 725.492188 321.605469 C 725.003906 322.652344 724.402344 323.683594 724.152344 323.898438 C 723.375 324.5625 722.515625 326.816406 722.261719 328.851562 C 722.214844 329.257812 722.101562 329.648438 722.015625 329.71875 C 721.929688 329.792969 721.582031 330.808594 721.246094 331.972656 C 720.90625 333.136719 720.402344 334.824219 720.117188 335.722656 C 719.835938 336.621094 719.457031 337.847656 719.269531 338.449219 C 719.085938 339.046875 718.777344 340 718.589844 340.5625 C 717.503906 343.78125 716.320312 347.261719 715.671875 349.132812 C 715.265625 350.308594 714.78125 351.773438 714.589844 352.386719 C 714.402344 353.003906 714.035156 354.167969 713.773438 354.972656 C 713.03125 357.25 712.34375 359.460938 712.296875 359.734375 C 712.273438 359.867188 711.875 361.140625 711.410156 362.5625 C 710.949219 363.984375 710.570312 365.21875 710.574219 365.300781 C 710.574219 365.386719 710.429688 365.886719 710.253906 366.414062 C 710.074219 366.941406 709.664062 368.203125 709.34375 369.21875 C 709.023438 370.234375 708.363281 372.207031 707.878906 373.601562 C 707.394531 374.996094 706.34375 378.011719 705.546875 380.300781 C 702.273438 389.699219 702.011719 390.472656 698.0625 402.261719 C 695.785156 409.066406 695.210938 410.640625 694.039062 413.316406 C 691.574219 418.949219 686.28125 427.777344 680.179688 436.4375 C 677.027344 440.910156 669.945312 450.496094 666.835938 454.503906 C 663.542969 458.742188 661.78125 461.089844 656.347656 468.492188 C 654.898438 470.464844 652.398438 473.824219 650.796875 475.957031 C 649.191406 478.085938 646.589844 481.652344 645.015625 483.882812 C 636.242188 496.300781 630.667969 502.753906 617.378906 515.886719 C 614.433594 518.796875 610.667969 522.597656 609.015625 524.332031 C 604.449219 529.113281 603.558594 530.011719 598.332031 535.105469 C 593.375 539.941406 582.882812 550.660156 579.125 554.730469 C 576.519531 557.558594 570.4375 564.4375 565.214844 570.480469 C 559.097656 577.546875 557.3125 579.5625 553.273438 583.941406 C 551.214844 586.179688 547.25 590.546875 544.460938 593.648438 C 539.476562 599.195312 536.625 602.265625 530.414062 608.785156 C 524.554688 614.933594 519.796875 620.417969 512.09375 629.898438 C 506.582031 636.679688 504.582031 639.09375 500.738281 643.617188 C 486.925781 659.847656 481.257812 666.109375 470.820312 676.667969 C 460.402344 687.203125 460.601562 687.015625 453.25 693.035156 C 446.785156 698.328125 446.511719 698.574219 446.011719 699.476562 C 445.726562 699.992188 445.410156 700.773438 445.3125 701.210938 C 445.109375 702.121094 445.238281 706.347656 445.476562 706.628906 C 445.742188 706.945312 449.605469 707.96875 450.597656 707.988281 C 451.109375 708 452.011719 707.871094 452.601562 707.707031 C 453.617188 707.421875 453.902344 707.226562 458.40625 703.679688 C 466.164062 697.5625 469.457031 694.507812 481.617188 682.144531 C 489.28125 674.351562 494.265625 668.898438 503.296875 658.4375 C 510.800781 649.742188 513.304688 646.746094 524.226562 633.390625 C 530.800781 625.351562 535.195312 620.398438 542.039062 613.308594 C 545.652344 609.566406 551.347656 603.378906 554.917969 599.320312 C 555.871094 598.234375 558.105469 595.773438 559.875 593.855469 C 561.648438 591.933594 564.199219 589.144531 565.539062 587.65625 L 567.980469 584.953125 L 568.726562 584.949219 C 569.949219 584.949219 570.878906 584.492188 576.308594 581.238281 C 579.164062 579.53125 584.148438 576.625 587.394531 574.785156 C 590.636719 572.941406 593.46875 571.285156 593.683594 571.101562 C 593.902344 570.921875 596.410156 569.476562 599.257812 567.898438 C 602.105469 566.316406 606.59375 563.777344 609.230469 562.253906 C 616.816406 557.867188 620.914062 555.585938 625.941406 552.949219 C 633.8125 548.820312 646.339844 542.589844 648.058594 541.941406 C 650.199219 541.136719 664.382812 534.019531 669.46875 531.195312 C 669.703125 531.066406 670.535156 530.640625 671.320312 530.253906 C 672.101562 529.867188 672.96875 529.417969 673.246094 529.253906 C 673.523438 529.089844 674.226562 528.714844 674.808594 528.417969 C 675.96875 527.828125 681.667969 524.757812 682.339844 524.363281 C 682.574219 524.226562 683.183594 523.875 683.699219 523.582031 C 684.214844 523.292969 684.828125 522.941406 685.0625 522.808594 C 685.683594 522.457031 692.726562 518.414062 694.3125 517.503906 C 695.785156 516.65625 704.277344 511.875 704.984375 511.496094 C 705.222656 511.367188 706.230469 510.816406 707.222656 510.265625 C 709.464844 509.03125 715.910156 505.574219 717.351562 504.835938 C 717.941406 504.535156 719.523438 503.710938 720.867188 503.003906 C 722.210938 502.300781 723.980469 501.371094 724.796875 500.945312 C 725.613281 500.515625 726.894531 499.820312 727.648438 499.402344 C 728.402344 498.980469 730.011719 498.132812 731.21875 497.511719 C 732.429688 496.894531 734.84375 495.65625 736.582031 494.765625 C 741.296875 492.347656 748.847656 488.679688 755.160156 485.738281 C 766.632812 480.394531 770.9375 478.230469 777.875 474.335938 L 779.816406 473.246094 L 781.835938 470.375 C 784.902344 466.007812 785.9375 464.472656 786.117188 464.023438 C 786.273438 463.625 786.265625 463.609375 785.753906 463.539062 C 785.179688 463.457031 782.738281 463.484375 780.160156 463.597656 C 779.25 463.640625 777.816406 463.636719 776.972656 463.585938 C 776.109375 463.539062 775.011719 463.644531 774.457031 463.828125 C 773.914062 464.007812 771.957031 464.980469 770.105469 465.984375 C 768.25 466.992188 766.203125 467.988281 765.550781 468.199219 C 764.898438 468.410156 762.3125 469.582031 759.808594 470.796875 C 757.304688 472.015625 753.015625 474.054688 750.28125 475.328125 C 742.3125 479.03125 737.464844 481.40625 728.191406 486.164062 C 709.339844 495.824219 700.355469 500.667969 686.03125 508.886719 C 676.585938 514.300781 673.558594 515.976562 667.480469 519.140625 C 664.980469 520.445312 660.414062 522.824219 657.335938 524.429688 C 654.253906 526.035156 650.167969 528.109375 648.25 529.035156 C 624.453125 540.558594 619.285156 543.261719 601.410156 553.523438 C 596.308594 556.453125 590.070312 559.878906 590.371094 559.585938 C 590.472656 559.484375 593.296875 556.585938 596.648438 553.144531 C 599.996094 549.703125 604.136719 545.527344 605.851562 543.863281 C 610.710938 539.144531 613.726562 536.117188 617.714844 531.953125 C 619.742188 529.839844 623.039062 526.496094 625.042969 524.519531 C 631.914062 517.746094 637.039062 512.480469 639.546875 509.621094 C 645.386719 502.953125 648.304688 499.230469 655.1875 489.652344 C 657.292969 486.726562 659.492188 483.695312 660.078125 482.914062 C 660.667969 482.128906 661.988281 480.375 663.015625 479.007812 C 664.042969 477.640625 664.980469 476.402344 665.097656 476.253906 C 665.214844 476.101562 666.359375 474.535156 667.636719 472.765625 C 668.9375 470.964844 670.449219 469.074219 671.070312 468.476562 C 671.679688 467.882812 672.882812 466.691406 673.742188 465.824219 C 674.605469 464.957031 676.074219 463.542969 677.011719 462.679688 C 685.144531 455.195312 685.417969 454.941406 689.085938 451.46875 C 689.738281 450.847656 690.910156 449.699219 691.6875 448.917969 C 692.632812 447.964844 693.25 447.449219 693.5625 447.363281 C 693.878906 447.273438 695.578125 445.84375 699.023438 442.753906 C 703.609375 438.644531 706.285156 436.460938 710.339844 433.527344 C 711.808594 432.464844 716.28125 429.367188 717.007812 428.910156 C 718.429688 428.019531 720.207031 426.894531 720.71875 426.570312 C 723.386719 424.859375 742.140625 414.429688 755.601562 407.164062 C 756.789062 406.523438 761.03125 404.152344 763.558594 402.714844 C 768.566406 399.871094 776.035156 396.074219 788.679688 389.945312 C 789.464844 389.566406 790.621094 388.984375 791.246094 388.660156 C 791.871094 388.335938 793.667969 387.441406 795.234375 386.671875 C 796.804688 385.90625 798.277344 385.167969 798.507812 385.027344 C 798.738281 384.890625 799.617188 384.386719 800.460938 383.910156 C 802.128906 382.960938 802.097656 382.980469 805.367188 380.769531 C 806.605469 379.9375 808.652344 378.601562 809.917969 377.804688 C 811.1875 377.011719 812.484375 376.195312 812.800781 375.996094 C 814.386719 374.996094 819.785156 370.515625 823.019531 367.511719 C 826.519531 364.269531 826.726562 364.101562 830.167969 361.804688 C 832.117188 360.5 834.539062 358.804688 835.554688 358.035156 C 840.347656 354.394531 846.628906 349.972656 853.648438 345.304688 C 857.476562 342.761719 863.195312 337.988281 867.617188 333.648438 C 869.738281 331.566406 872.914062 328.480469 874.675781 326.789062 C 879.492188 322.160156 879.128906 322.699219 882.203125 315.636719 C 883.921875 311.691406 884.816406 309.410156 884.699219 309.269531 C 884.597656 309.148438 884.449219 309.105469 884.367188 309.171875 C 884.289062 309.242188 883.644531 309.453125 882.941406 309.644531 C 882.234375 309.839844 880.171875 310.582031 878.351562 311.296875 C 871.828125 313.863281 872.132812 313.714844 870.464844 315.121094 C 868.96875 316.386719 860.738281 324.378906 858.644531 326.601562 C 858.058594 327.21875 856.089844 328.984375 854.265625 330.515625 L 850.953125 333.304688 L 857.105469 324.777344 C 865.128906 313.652344 864.855469 314.070312 871.960938 302.085938 C 878.269531 291.453125 886.195312 278.710938 891.953125 269.957031 C 893.105469 268.203125 894.441406 266.164062 894.925781 265.421875 C 895.40625 264.679688 898.617188 259.886719 902.058594 254.773438 C 909.460938 243.761719 913.355469 237.394531 918.195312 228.378906 C 920.550781 223.992188 929.679688 203.972656 935.023438 191.472656 L 937.132812 186.53125 L 936.992188 184.636719 C 936.84375 182.660156 936.828125 182.578125 936.535156 182.550781 " fill-opacity="1" fill-rule="evenodd"/></g></g></g></g></svg>