<svg xmlns="http://www.w3.org/2000/svg" xmlns:xlink="http://www.w3.org/1999/xlink" width="1920" zoomAndPan="magnify" viewBox="0 0 1440 809.999993" height="1080" preserveAspectRatio="xMidYMid meet" version="1.0"><defs><clipPath id="4b4876139f"><path d="M 402 3 L 949 3 L 949 787 L 402 787 Z M 402 3 " clip-rule="nonzero"/></clipPath><clipPath id="8452e286db"><path d="M 310.765625 251.824219 L 811.257812 0.0546875 L 1154.027344 681.445312 L 653.535156 933.214844 Z M 310.765625 251.824219 " clip-rule="nonzero"/></clipPath><clipPath id="b97754556f"><path d="M 310.765625 251.824219 L 811.257812 0.0546875 L 1154.027344 681.445312 L 653.535156 933.214844 Z M 310.765625 251.824219 " clip-rule="nonzero"/></clipPath><clipPath id="d7dd67ee27"><path d="M 478 462 L 479 462 L 479 464 L 478 464 Z M 478 462 " clip-rule="nonzero"/></clipPath><clipPath id="5fb225c043"><path d="M 310.765625 251.824219 L 811.257812 0.0546875 L 1154.027344 681.445312 L 653.535156 933.214844 Z M 310.765625 251.824219 " clip-rule="nonzero"/></clipPath><clipPath id="f679e32d1e"><path d="M 310.765625 251.824219 L 811.257812 0.0546875 L 1154.027344 681.445312 L 653.535156 933.214844 Z M 310.765625 251.824219 " clip-rule="nonzero"/></clipPath><clipPath id="7e463e67da"><path d="M 850 757 L 853 757 L 853 759 L 850 759 Z M 850 757 " clip-rule="nonzero"/></clipPath><clipPath id="823de97e1d"><path d="M 310.765625 251.824219 L 811.257812 0.0546875 L 1154.027344 681.445312 L 653.535156 933.214844 Z M 310.765625 251.824219 " clip-rule="nonzero"/></clipPath><clipPath id="5ed2fecedc"><path d="M 310.765625 251.824219 L 811.257812 0.0546875 L 1154.027344 681.445312 L 653.535156 933.214844 Z M 310.765625 251.824219 " clip-rule="nonzero"/></clipPath><clipPath id="1c57671323"><path d="M 874 752 L 876 752 L 876 754 L 874 754 Z M 874 752 " clip-rule="nonzero"/></clipPath><clipPath id="71d487f879"><path d="M 310.765625 251.824219 L 811.257812 0.0546875 L 1154.027344 681.445312 L 653.535156 933.214844 Z M 310.765625 251.824219 " clip-rule="nonzero"/></clipPath><clipPath id="b97765f72d"><path d="M 310.765625 251.824219 L 811.257812 0.0546875 L 1154.027344 681.445312 L 653.535156 933.214844 Z M 310.765625 251.824219 " clip-rule="nonzero"/></clipPath><clipPath id="39e436a375"><path d="M 926 784 L 928 784 L 928 785 L 926 785 Z M 926 784 " clip-rule="nonzero"/></clipPath><clipPath id="f3bf144715"><path d="M 310.765625 251.824219 L 811.257812 0.0546875 L 1154.027344 681.445312 L 653.535156 933.214844 Z M 310.765625 251.824219 " clip-rule="nonzero"/></clipPath><clipPath id="22354eeb66"><path d="M 310.765625 251.824219 L 811.257812 0.0546875 L 1154.027344 681.445312 L 653.535156 933.214844 Z M 310.765625 251.824219 " clip-rule="nonzero"/></clipPath><clipPath id="bde8f97167"><path d="M 853 742 L 854 742 L 854 743 L 853 743 Z M 853 742 " clip-rule="nonzero"/></clipPath><clipPath id="d89fe01220"><path d="M 310.765625 251.824219 L 811.257812 0.0546875 L 1154.027344 681.445312 L 653.535156 933.214844 Z M 310.765625 251.824219 " clip-rule="nonzero"/></clipPath><clipPath id="15f287d2ab"><path d="M 310.765625 251.824219 L 811.257812 0.0546875 L 1154.027344 681.445312 L 653.535156 933.214844 Z M 310.765625 251.824219 " clip-rule="nonzero"/></clipPath><clipPath id="b5331fc99a"><path d="M 926 783 L 927 783 L 927 785 L 926 785 Z M 926 783 " clip-rule="nonzero"/></clipPath><clipPath id="9512086c66"><path d="M 310.765625 251.824219 L 811.257812 0.0546875 L 1154.027344 681.445312 L 653.535156 933.214844 Z M 310.765625 251.824219 " clip-rule="nonzero"/></clipPath><clipPath id="9166c3860c"><path d="M 310.765625 251.824219 L 811.257812 0.0546875 L 1154.027344 681.445312 L 653.535156 933.214844 Z M 310.765625 251.824219 " clip-rule="nonzero"/></clipPath><clipPath id="ab0b99fc02"><path d="M 732 603 L 733 603 L 733 604 L 732 604 Z M 732 603 " clip-rule="nonzero"/></clipPath><clipPath id="88ccd27692"><path d="M 310.765625 251.824219 L 811.257812 0.0546875 L 1154.027344 681.445312 L 653.535156 933.214844 Z M 310.765625 251.824219 " clip-rule="nonzero"/></clipPath><clipPath id="5dd71102de"><path d="M 310.765625 251.824219 L 811.257812 0.0546875 L 1154.027344 681.445312 L 653.535156 933.214844 Z M 310.765625 251.824219 " clip-rule="nonzero"/></clipPath><clipPath id="043f585045"><path d="M 877 343 L 878 343 L 878 345 L 877 345 Z M 877 343 " clip-rule="nonzero"/></clipPath><clipPath id="7271e0c99a"><path d="M 310.765625 251.824219 L 811.257812 0.0546875 L 1154.027344 681.445312 L 653.535156 933.214844 Z M 310.765625 251.824219 " clip-rule="nonzero"/></clipPath><clipPath id="2e2ae4c2b9"><path d="M 310.765625 251.824219 L 811.257812 0.0546875 L 1154.027344 681.445312 L 653.535156 933.214844 Z M 310.765625 251.824219 " clip-rule="nonzero"/></clipPath><clipPath id="2b5af89a18"><path d="M 868 341 L 869 341 L 869 343 L 868 343 Z M 868 341 " clip-rule="nonzero"/></clipPath><clipPath id="c141eaa34b"><path d="M 310.765625 251.824219 L 811.257812 0.0546875 L 1154.027344 681.445312 L 653.535156 933.214844 Z M 310.765625 251.824219 " clip-rule="nonzero"/></clipPath><clipPath id="8125fe639c"><path d="M 310.765625 251.824219 L 811.257812 0.0546875 L 1154.027344 681.445312 L 653.535156 933.214844 Z M 310.765625 251.824219 " clip-rule="nonzero"/></clipPath><clipPath id="913c03f1be"><path d="M 630 343 L 631 343 L 631 345 L 630 345 Z M 630 343 " clip-rule="nonzero"/></clipPath><clipPath id="6e745cc219"><path d="M 310.765625 251.824219 L 811.257812 0.0546875 L 1154.027344 681.445312 L 653.535156 933.214844 Z M 310.765625 251.824219 " clip-rule="nonzero"/></clipPath><clipPath id="44e75900dc"><path d="M 310.765625 251.824219 L 811.257812 0.0546875 L 1154.027344 681.445312 L 653.535156 933.214844 Z M 310.765625 251.824219 " clip-rule="nonzero"/></clipPath><clipPath id="ebc1626d51"><path d="M 480 582 L 482 582 L 482 584 L 480 584 Z M 480 582 " clip-rule="nonzero"/></clipPath><clipPath id="3aae030b4c"><path d="M 310.765625 251.824219 L 811.257812 0.0546875 L 1154.027344 681.445312 L 653.535156 933.214844 Z M 310.765625 251.824219 " clip-rule="nonzero"/></clipPath><clipPath id="633c2e3ee2"><path d="M 310.765625 251.824219 L 811.257812 0.0546875 L 1154.027344 681.445312 L 653.535156 933.214844 Z M 310.765625 251.824219 " clip-rule="nonzero"/></clipPath><clipPath id="818723c69e"><path d="M 526 654 L 527 654 L 527 655 L 526 655 Z M 526 654 " clip-rule="nonzero"/></clipPath><clipPath id="70ff6db2ec"><path d="M 310.765625 251.824219 L 811.257812 0.0546875 L 1154.027344 681.445312 L 653.535156 933.214844 Z M 310.765625 251.824219 " clip-rule="nonzero"/></clipPath><clipPath id="8cd60611e4"><path d="M 310.765625 251.824219 L 811.257812 0.0546875 L 1154.027344 681.445312 L 653.535156 933.214844 Z M 310.765625 251.824219 " clip-rule="nonzero"/></clipPath><clipPath id="855f2ffec9"><path d="M 522 574 L 523 574 L 523 575 L 522 575 Z M 522 574 " clip-rule="nonzero"/></clipPath><clipPath id="92ce9e5185"><path d="M 310.765625 251.824219 L 811.257812 0.0546875 L 1154.027344 681.445312 L 653.535156 933.214844 Z M 310.765625 251.824219 " clip-rule="nonzero"/></clipPath><clipPath id="24e2c89e54"><path d="M 310.765625 251.824219 L 811.257812 0.0546875 L 1154.027344 681.445312 L 653.535156 933.214844 Z M 310.765625 251.824219 " clip-rule="nonzero"/></clipPath><clipPath id="d065b7b606"><path d="M 585 640 L 586 640 L 586 641 L 585 641 Z M 585 640 " clip-rule="nonzero"/></clipPath><clipPath id="57c64e9696"><path d="M 310.765625 251.824219 L 811.257812 0.0546875 L 1154.027344 681.445312 L 653.535156 933.214844 Z M 310.765625 251.824219 " clip-rule="nonzero"/></clipPath><clipPath id="813e4ae1ea"><path d="M 310.765625 251.824219 L 811.257812 0.0546875 L 1154.027344 681.445312 L 653.535156 933.214844 Z M 310.765625 251.824219 " clip-rule="nonzero"/></clipPath></defs><rect x="-144" width="1728" fill="#ffffff" y="-80.999999" height="971.999992" fill-opacity="1"/><rect x="-144" width="1728" fill="#ffffff" y="-80.999999" height="971.999992" fill-opacity="1"/><g clip-path="url(#4b4876139f)"><g clip-path="url(#8452e286db)"><g clip-path="url(#b97754556f)"><path fill="#525252" d="M 810.492188 4.015625 C 808.746094 2.90625 806.839844 3.070312 805.253906 3.867188 C 802.875 4.667969 800.65625 5.785156 798.433594 6.902344 C 795.898438 8.179688 793.359375 9.453125 790.824219 10.730469 C 784.164062 14.082031 777.660156 16.953125 771.003906 20.304688 C 766.5625 22.539062 762.441406 24.613281 758.320312 27.480469 C 752.929688 30.984375 747.382812 34.171875 741.992188 37.679688 C 736.601562 41.183594 731.371094 45.007812 726.300781 49.148438 C 721.550781 53.128906 716.796875 57.109375 712.519531 61.246094 C 707.769531 66.023438 703.8125 71.585938 699.699219 76.835938 C 696.21875 81.765625 692.421875 86.855469 689.097656 92.101562 C 685.777344 97.351562 682.933594 102.753906 680.40625 108 C 677.5625 113.40625 674.71875 118.808594 671.871094 124.214844 C 669.027344 129.617188 665.867188 135.183594 663.023438 140.589844 C 660.652344 145.355469 657.644531 149.648438 654.800781 154.261719 C 652.429688 158.234375 649.738281 161.578125 646.730469 165.078125 C 642.929688 169.371094 639.445312 173.507812 635.648438 177.804688 C 633.90625 179.871094 632.324219 182.257812 630.265625 184.484375 C 628.207031 186.710938 626.625 189.097656 624.566406 191.324219 C 622.667969 193.871094 620.609375 196.097656 618.710938 198.640625 C 616.652344 200.871094 614.910156 202.9375 613.011719 205.484375 C 609.214844 210.574219 606.53125 216.292969 604.636719 222.015625 C 602.746094 227.734375 600.855469 233.453125 599.441406 239.332031 C 597.710938 245.367188 596.453125 251.5625 595.199219 257.757812 C 593.945312 263.953125 593.484375 270.144531 593.183594 276.65625 C 592.722656 282.847656 593.054688 289.039062 593.703125 295.070312 C 594.351562 301.101562 595.320312 306.972656 596.285156 312.84375 C 597.253906 318.714844 598.539062 324.429688 600.296875 330.296875 C 602.058594 336.167969 604.136719 341.878906 606.53125 347.429688 C 607.492188 350.125 608.765625 352.660156 610.203125 355.515625 C 611.636719 358.371094 612.597656 361.066406 614.03125 363.921875 C 615.152344 366.933594 616.585938 369.789062 618.023438 372.644531 C 619.777344 376.132812 621.53125 379.621094 623.605469 382.949219 C 624.402344 384.535156 626.308594 385.164062 627.894531 384.367188 C 628.695312 387.539062 629.496094 390.714844 629.824219 393.730469 C 630.464844 397.378906 631.109375 401.027344 631.4375 404.839844 C 631.765625 409.441406 632.09375 414.042969 632.742188 418.488281 C 633.070312 423.089844 633.398438 427.695312 633.886719 432.613281 C 634.050781 435.3125 634.214844 438.011719 634.382812 440.710938 C 634.546875 443.410156 634.554688 445.789062 634.71875 448.488281 C 634.890625 454.363281 635.542969 460.394531 636.191406 466.425781 C 636.523438 471.820312 637.167969 477.058594 637.816406 482.296875 C 638.464844 486.738281 639.425781 491.023438 640.707031 495.148438 C 638.957031 494.042969 637.207031 492.933594 635.457031 491.828125 C 634.503906 491.511719 633.710938 490.71875 632.757812 490.40625 C 632.4375 489.769531 632.117188 489.136719 631.957031 488.820312 C 631.003906 487.710938 629.890625 487.078125 628.617188 486.128906 C 627.980469 485.652344 627.027344 485.339844 626.394531 484.863281 C 624.804688 484.074219 623.375 483.601562 622.101562 482.652344 C 620.828125 481.703125 619.554688 480.753906 617.808594 479.644531 C 615.898438 478.222656 614.148438 477.113281 612.558594 475.53125 C 610.488281 473.789062 608.421875 472.046875 606.511719 469.832031 C 604.601562 467.613281 602.53125 465.871094 600.621094 463.652344 C 598.710938 461.433594 596.640625 458.902344 594.730469 456.683594 C 592.660156 454.148438 590.589844 451.613281 588.839844 448.917969 C 586.925781 445.90625 585.171875 443.210938 583.261719 440.199219 C 581.347656 437.1875 579.277344 433.859375 577.363281 430.847656 C 575.453125 427.835938 574.015625 424.1875 572.417969 421.015625 C 570.824219 417.84375 569.546875 414.515625 568.425781 411.5 C 567.46875 408.804688 566.347656 405.789062 565.390625 403.09375 C 563.949219 398.652344 562.828125 394.050781 561.703125 389.449219 C 560.421875 384.53125 559.933594 379.609375 558.335938 374.851562 C 556.894531 369.617188 554.660156 364.382812 552.265625 359.625 C 549.871094 354.867188 547.480469 350.113281 544.929688 345.832031 C 542.21875 341.234375 538.714844 336.640625 535.054688 332.519531 C 531.390625 328.402344 527.257812 324.917969 523.121094 321.4375 C 521.050781 319.695312 519.144531 318.269531 517.074219 316.53125 C 515.007812 314.789062 512.78125 313.523438 510.714844 311.78125 C 506.738281 308.617188 502.441406 305.609375 498.464844 302.445312 C 494.488281 299.28125 490.671875 296.429688 487.011719 293.105469 C 483.035156 289.941406 479.058594 286.777344 475.082031 283.609375 C 475.082031 283.609375 474.921875 283.292969 474.605469 283.453125 C 471.742188 280.917969 469.039062 278.703125 466.492188 276.011719 C 464.105469 273.636719 461.558594 270.941406 459.011719 268.25 C 456.625 265.875 454.554688 263.339844 452.007812 260.644531 C 449.777344 257.792969 447.546875 254.941406 445.636719 251.929688 C 444.519531 250.503906 443.5625 248.601562 442.449219 247.175781 C 441.332031 244.957031 440.375 243.050781 439.257812 240.832031 C 437.183594 236.710938 435.109375 232.585938 433.035156 228.464844 C 432.078125 226.5625 430.964844 224.34375 430.324219 222.28125 C 429.367188 220.375 428.726562 218.3125 427.453125 216.570312 C 426.8125 215.300781 426.175781 214.035156 425.0625 213.402344 C 424.265625 212.609375 422.996094 212.453125 422.042969 212.933594 C 421.726562 213.09375 421.410156 213.253906 421.09375 213.410156 C 420.140625 213.890625 419.667969 214.527344 419.035156 215.640625 C 418.71875 216.59375 418.085938 217.707031 417.773438 218.660156 C 416.980469 220.25 416.507812 221.679688 416.035156 223.109375 C 415.722656 224.855469 415.09375 226.761719 414.621094 228.191406 C 413.515625 231.527344 412.890625 235.023438 411.945312 238.675781 C 410.84375 242.011719 410.21875 245.507812 409.589844 249 C 408.648438 252.65625 408.019531 256.148438 407.554688 259.960938 C 406.453125 264.882812 405.671875 269.648438 404.574219 274.574219 C 403.945312 277.273438 403.632812 279.816406 403.160156 282.039062 C 402.851562 284.578125 402.378906 286.804688 402.386719 289.183594 C 401.933594 299.347656 403.546875 309.660156 405.476562 319.816406 C 406.28125 324.578125 407.5625 329.496094 408.847656 334.414062 C 410.128906 339.332031 411.410156 344.25 413.167969 349.328125 C 414.128906 352.023438 415.085938 354.71875 416.363281 357.257812 C 417.640625 359.792969 418.914062 362.332031 420.191406 364.867188 C 421.308594 367.089844 422.425781 369.308594 423.542969 371.527344 C 424.660156 373.75 425.773438 375.96875 426.890625 378.1875 C 429.125 382.628906 431.519531 387.386719 434.070312 391.664062 C 436.777344 396.261719 439.328125 400.542969 441.722656 405.300781 C 444.117188 410.054688 446.347656 414.496094 448.425781 419.414062 C 449.382812 421.316406 450.179688 423.695312 451.136719 425.597656 C 452.253906 427.816406 453.371094 430.039062 454.488281 432.257812 C 455.765625 434.792969 457.519531 437.488281 459.109375 439.867188 C 460.863281 442.5625 463.09375 445.414062 464.847656 448.109375 C 466.917969 450.644531 468.511719 453.019531 470.738281 455.078125 C 473.285156 457.773438 476.148438 460.304688 478.851562 462.519531 C 478.851562 462.519531 478.851562 462.519531 479.011719 462.839844 C 479.171875 463.15625 479.648438 463.3125 479.648438 463.3125 C 479.488281 462.996094 479.488281 462.996094 479.011719 462.839844 C 483.148438 466.320312 487.441406 469.328125 491.574219 472.015625 C 496.347656 475.179688 501.273438 477.867188 506.359375 480.078125 C 508.902344 481.179688 511.128906 482.445312 513.511719 483.234375 C 515.894531 484.023438 518.4375 485.128906 520.820312 485.914062 C 525.746094 487.808594 531.148438 489.066406 536.390625 490.003906 C 538.929688 490.316406 541.152344 490.785156 543.695312 491.097656 C 546.234375 491.410156 548.777344 491.722656 551.316406 492.03125 C 556.238281 492.339844 561.164062 492.644531 566.402344 492.789062 C 571.640625 492.933594 576.722656 492.765625 581.484375 492.753906 C 586.5625 492.582031 591.644531 493.203125 596.726562 493.828125 C 599.585938 493.980469 602.441406 494.128906 605.300781 494.28125 C 607.683594 494.277344 610.539062 494.429688 613.082031 494.738281 C 615.621094 495.050781 618.164062 495.363281 620.703125 495.671875 C 622.769531 495.828125 624.992188 496.296875 627.054688 496.453125 C 628.007812 496.765625 628.960938 497.082031 629.914062 497.398438 C 633.09375 498.976562 636.433594 500.875 639.296875 503.40625 C 640.09375 504.199219 640.890625 504.992188 642 505.625 C 642.636719 506.097656 643.273438 506.574219 644.066406 506.570312 C 645.027344 509.269531 645.984375 511.964844 646.945312 514.660156 C 647.902344 517.355469 648.863281 520.054688 649.824219 522.75 C 650.621094 525.128906 651.898438 527.667969 652.699219 530.046875 C 654.933594 535.28125 656.851562 540.671875 659.246094 545.429688 C 660.359375 547.648438 661.636719 550.1875 663.070312 552.246094 C 664.347656 554.785156 665.941406 557.160156 667.535156 559.539062 C 670.878906 564.609375 674.066406 569.367188 677.570312 573.960938 C 680.914062 578.238281 684.578125 582.359375 688.238281 586.476562 C 691.898438 590.597656 695.5625 594.714844 699.066406 599.3125 C 702.570312 603.90625 706.390625 608.34375 709.894531 612.9375 C 711.007812 614.363281 712.121094 615.789062 713.238281 617.214844 C 716.425781 621.972656 719.453125 626.410156 722.320312 631.324219 C 723.914062 633.699219 725.191406 636.238281 726.785156 638.613281 C 728.378906 640.992188 729.496094 643.210938 730.769531 645.75 C 732.046875 648.285156 733.480469 650.347656 734.757812 652.882812 C 736.351562 655.261719 737.46875 657.480469 738.742188 660.019531 C 741.613281 664.933594 745.117188 669.527344 748.621094 674.125 C 750.214844 676.5 751.964844 678.402344 753.875 680.621094 C 755.625 682.519531 757.378906 684.421875 759.128906 686.324219 C 762.789062 690.441406 766.769531 694.402344 770.746094 698.359375 C 774.40625 701.683594 778.226562 705.328125 781.566406 708.8125 C 778.707031 707.867188 775.691406 707.398438 772.832031 706.453125 C 769.652344 705.664062 766.320312 705.355469 763.300781 704.886719 C 762.824219 704.730469 762.507812 704.890625 762.03125 704.730469 C 761.394531 704.257812 760.441406 703.941406 759.648438 703.945312 C 758.535156 704.105469 757.425781 704.265625 756.316406 704.429688 C 755.839844 704.269531 755.839844 704.269531 755.363281 704.113281 C 753.613281 703.800781 751.710938 703.964844 749.960938 703.648438 C 748.691406 703.492188 747.105469 703.496094 745.675781 703.023438 C 743.132812 702.714844 740.59375 702.402344 738.210938 701.613281 C 732.488281 699.722656 726.925781 697.355469 721.363281 694.988281 C 718.34375 693.726562 715.484375 692.777344 712.941406 691.675781 C 709.921875 690.410156 707.222656 688.988281 704.359375 687.25 C 701.496094 685.511719 698.636719 683.769531 695.929688 681.554688 C 693.386719 679.65625 691.160156 677.597656 688.773438 675.222656 C 684.632812 670.945312 681.128906 666.351562 677.464844 661.4375 C 673.804688 656.523438 670.617188 651.769531 667.269531 646.699219 C 664.398438 641.785156 661.847656 636.710938 658.660156 631.953125 C 657.066406 629.578125 655.316406 627.675781 653.40625 625.457031 C 651.496094 623.238281 649.585938 621.023438 647.515625 619.28125 C 645.128906 616.90625 642.902344 614.847656 640.515625 612.472656 C 638.445312 610.730469 636.21875 608.671875 633.835938 607.089844 C 628.902344 603.609375 623.5 600.765625 618.410156 597.761719 C 615.710938 596.339844 613.007812 594.917969 610.304688 593.492188 C 607.761719 592.390625 605.21875 591.285156 602.359375 590.339844 C 596.957031 588.289062 591.714844 586.554688 585.992188 584.664062 C 583.132812 583.71875 580.117188 583.246094 577.414062 582.621094 C 574.714844 581.992188 571.699219 581.523438 569.15625 581.210938 C 563.597656 580.429688 557.722656 579.808594 552.164062 579.03125 C 550.101562 578.875 547.875 578.40625 545.496094 578.410156 C 543.429688 578.257812 541.207031 577.785156 539.144531 577.632812 C 534.855469 577.007812 530.246094 575.75 526.117188 574.648438 C 525.164062 574.332031 524.371094 574.335938 523.417969 574.019531 C 523.894531 574.175781 523.894531 574.175781 524.371094 574.335938 C 523.894531 574.175781 523.417969 574.019531 522.941406 573.863281 C 522.941406 573.863281 522.941406 573.863281 522.464844 573.703125 C 522.464844 573.703125 522.464844 573.703125 522.148438 573.863281 C 522.148438 573.863281 522.148438 573.863281 522.464844 573.703125 C 517.855469 572.445312 513.089844 570.871094 508.324219 569.292969 C 505.941406 568.503906 503.714844 567.242188 501.332031 566.453125 C 499.265625 565.503906 497.039062 564.242188 494.8125 562.976562 C 492.746094 562.027344 490.839844 560.605469 488.773438 559.65625 C 486.546875 558.390625 484.480469 556.652344 481.9375 555.546875 C 480.824219 554.914062 479.394531 554.441406 477.808594 555.238281 C 477.492188 555.398438 477.492188 555.398438 477.492188 555.398438 C 475.90625 556.195312 475.433594 558.417969 475.753906 559.847656 C 476.078125 562.070312 476.878906 564.449219 477.199219 566.671875 C 477.683594 569.210938 478.164062 571.75 478.648438 574.285156 C 479.289062 577.144531 479.933594 580 480.734375 583.171875 C 481.214844 585.710938 482.175781 588.40625 483.132812 591.105469 C 484.253906 594.117188 485.527344 596.65625 486.648438 599.667969 C 487.765625 602.683594 489.203125 605.535156 490.796875 608.707031 C 492.390625 611.878906 493.988281 615.050781 495.742188 617.746094 C 497.8125 621.074219 500.042969 624.71875 502.117188 628.050781 C 504.1875 631.378906 506.894531 634.386719 509.441406 637.082031 C 511.988281 639.773438 515.011719 642.625 517.558594 645.316406 C 520.582031 648.167969 523.289062 651.175781 526.152344 653.710938 L 526.308594 654.027344 C 526.308594 654.027344 526.152344 653.710938 526.152344 653.710938 C 528.378906 655.769531 530.605469 657.824219 532.992188 660.203125 C 535.0625 661.941406 537.128906 663.683594 539.039062 665.109375 C 543.492188 668.429688 547.628906 671.914062 552.082031 675.238281 C 556.535156 678.558594 560.671875 682.042969 565.125 685.367188 C 569.417969 688.371094 573.554688 691.855469 577.371094 695.496094 C 577.847656 695.652344 578.167969 696.289062 578.644531 696.445312 C 580.394531 698.347656 582.148438 700.246094 583.898438 702.148438 C 585.808594 704.367188 588.035156 706.425781 590.105469 708.167969 C 594.398438 711.964844 599.011719 714.8125 603.9375 717.5 C 608.867188 720.1875 614.429688 722.554688 619.355469 724.445312 C 624.757812 726.496094 630.796875 728.230469 636.195312 729.488281 C 641.597656 730.742188 647.472656 731.363281 653.03125 732.144531 C 655.570312 732.457031 658.429688 732.609375 660.8125 732.601562 C 663.984375 732.59375 667.160156 732.585938 670.335938 732.578125 C 675.894531 732.566406 681.605469 732.074219 686.84375 730.632812 C 689.382812 730.152344 691.761719 729.351562 694.617188 728.710938 C 697.15625 728.226562 700.011719 727.585938 702.550781 727.101562 C 709.214844 725.339844 715.71875 723.261719 722.0625 720.863281 C 727.140625 719.105469 731.894531 716.710938 737.132812 715.269531 C 738.558594 714.949219 739.988281 714.628906 741.414062 714.308594 C 741.414062 714.308594 741.097656 714.464844 741.097656 714.464844 C 744.273438 713.664062 747.128906 713.023438 750.460938 712.539062 C 751.253906 712.535156 751.886719 712.21875 752.683594 712.214844 C 753 712.054688 753.476562 712.214844 753.792969 712.054688 C 753.792969 712.054688 754.269531 712.210938 754.269531 712.210938 C 755.539062 712.367188 756.492188 711.890625 757.441406 711.410156 C 757.441406 711.410156 757.761719 711.25 757.761719 711.25 C 758.238281 711.410156 758.238281 711.410156 758.554688 711.25 C 758.871094 711.089844 759.03125 711.40625 759.347656 711.246094 C 762.523438 711.238281 765.539062 711.707031 768.558594 712.175781 C 771.574219 712.644531 774.753906 713.433594 777.929688 714.21875 C 778.40625 714.375 778.882812 714.535156 779.359375 714.691406 C 782.21875 715.636719 785.078125 716.582031 787.9375 717.527344 C 790.324219 718.316406 792.867188 719.421875 795.089844 720.6875 C 799.226562 724.167969 803.203125 727.332031 807.65625 730.65625 C 812.109375 733.980469 816.5625 737.304688 820.859375 740.308594 C 825.3125 743.632812 829.921875 746.480469 834.851562 749.164062 C 839.9375 752.167969 845.660156 754.855469 851.222656 757.222656 C 851.222656 757.222656 851.0625 756.90625 850.746094 757.066406 C 850.269531 756.90625 849.792969 756.75 849.632812 756.433594 C 850.269531 756.90625 850.746094 757.066406 851.699219 757.378906 C 856.945312 759.90625 862.1875 761.640625 867.433594 764.167969 C 872.515625 766.378906 877.761719 768.90625 882.847656 771.117188 C 888.25 773.167969 893.972656 775.058594 899.691406 776.949219 C 905.25 778.523438 910.8125 780.097656 916.371094 781.671875 C 917.800781 782.144531 919.550781 782.457031 920.980469 782.929688 C 922.886719 783.558594 924.949219 783.714844 926.695312 784.027344 C 926.695312 784.027344 927.015625 783.867188 927.171875 784.183594 C 932.414062 785.125 937.496094 785.746094 942.738281 786.6875 C 944.007812 786.84375 946.070312 786.203125 946.863281 785.40625 C 947.972656 784.453125 948.761719 782.863281 948.917969 781.59375 C 948.914062 780.003906 948.59375 778.578125 947.636719 777.46875 C 947.160156 777.308594 946.839844 776.675781 946.363281 776.519531 C 945.726562 776.042969 944.773438 775.726562 943.503906 775.574219 C 938.105469 774.316406 932.703125 773.058594 927.300781 771.800781 C 924.601562 771.171875 921.742188 770.226562 918.882812 769.28125 C 916.179688 768.652344 913.320312 767.707031 910.777344 766.601562 C 905.535156 764.871094 899.976562 763.296875 894.574219 761.246094 C 889.167969 759.195312 884.085938 756.984375 879 754.773438 C 878.523438 754.617188 878.046875 754.457031 877.410156 753.984375 C 877.410156 753.984375 877.886719 754.140625 877.886719 754.140625 C 877.886719 754.140625 877.410156 753.984375 877.25 753.667969 C 876.773438 753.507812 876.613281 753.191406 876.136719 753.035156 C 876.296875 753.351562 876.613281 753.191406 876.773438 753.507812 C 876.296875 753.351562 876.136719 753.035156 875.660156 752.875 C 875.660156 752.875 876.136719 753.035156 876.136719 753.035156 C 875.660156 752.875 875.183594 752.71875 874.546875 752.242188 C 871.84375 750.820312 868.824219 749.558594 866.121094 748.136719 C 863.101562 746.875 860.082031 745.613281 857.0625 744.347656 C 855.953125 743.714844 854.839844 743.085938 853.410156 742.613281 C 853.410156 742.613281 853.886719 742.769531 853.886719 742.769531 C 853.726562 742.453125 853.410156 742.613281 853.25 742.292969 C 853.25 742.292969 853.089844 741.976562 852.773438 742.136719 C 852.613281 741.820312 852.296875 741.980469 852.136719 741.660156 C 852.136719 741.660156 852.613281 741.820312 852.613281 741.820312 C 852.136719 741.660156 851.660156 741.503906 851.023438 741.03125 C 850.070312 740.714844 849.433594 740.238281 848.480469 739.925781 L 850.070312 740.714844 C 845.300781 738.34375 840.375 735.65625 835.445312 732.972656 C 830.519531 730.285156 826.222656 727.277344 821.769531 723.953125 C 817.476562 720.949219 812.867188 718.101562 808.570312 715.097656 C 803.800781 711.933594 799.1875 708.292969 795.050781 704.808594 C 791.710938 702.121094 788.210938 699.113281 784.871094 696.421875 C 782.007812 693.886719 778.828125 691.515625 775.964844 688.980469 C 770.871094 684.390625 765.9375 679.320312 761.164062 674.570312 C 756.550781 670.136719 752.726562 664.90625 749.21875 659.515625 C 747.148438 656.1875 745.078125 652.859375 743.003906 649.53125 C 740.773438 645.882812 738.699219 642.554688 736.785156 638.75 C 736.308594 637.796875 735.988281 637.164062 735.191406 636.371094 C 734.714844 635.421875 734.394531 633.992188 733.914062 633.042969 C 733.753906 632.722656 733.4375 632.089844 733.59375 631.613281 C 733.113281 629.867188 732.632812 628.125 731.992188 626.0625 C 731.511719 624.316406 731.347656 622.410156 731.027344 620.1875 C 731.019531 617.808594 731.015625 615.425781 731.324219 612.886719 C 731.476562 610.027344 732.105469 607.328125 732.574219 604.308594 C 732.734375 603.832031 732.890625 603.355469 732.730469 603.039062 C 732.730469 603.039062 732.730469 603.039062 732.570312 602.722656 C 732.730469 602.246094 732.570312 601.929688 732.886719 601.769531 C 733.359375 601.132812 733.519531 600.65625 733.515625 599.863281 C 733.515625 599.863281 733.355469 599.546875 733.675781 599.386719 C 733.992188 599.226562 734.148438 598.75 734.464844 598.589844 C 735.097656 597.476562 735.570312 596.046875 736.042969 594.617188 C 736.675781 593.503906 736.832031 592.234375 737.464844 591.121094 C 738.410156 589.054688 739.199219 586.671875 740.148438 584.605469 C 739.988281 585.082031 739.671875 585.242188 739.832031 585.558594 C 741.253906 582.855469 742.199219 579.996094 743.144531 577.136719 C 744.410156 574.117188 745.195312 570.941406 746.617188 568.238281 C 746.460938 568.714844 746.140625 568.875 746.300781 569.191406 C 746.460938 568.714844 746.617188 568.238281 746.773438 567.761719 C 747.5625 566.171875 748.511719 564.105469 749.300781 562.515625 C 750.882812 559.335938 752.777344 555.996094 754.359375 552.820312 C 756.253906 549.480469 758.152344 546.140625 760.683594 543.277344 C 762.425781 541.210938 764.011719 539.617188 765.75 537.550781 C 767.652344 535.800781 769.554688 534.046875 771.613281 532.613281 C 773.675781 531.179688 776.210938 529.90625 778.269531 528.472656 C 780.648438 526.878906 783.34375 525.917969 786.359375 524.800781 C 788.738281 524 790.800781 523.359375 793.179688 522.558594 C 795.875 521.601562 798.574219 520.640625 801.429688 520 C 806.664062 518.558594 812.058594 517.433594 817.136719 515.675781 C 823.640625 513.597656 829.664062 510.566406 834.734375 506.425781 C 836.953125 504.515625 838.855469 502.761719 840.597656 500.695312 C 842.652344 498.46875 844.394531 496.398438 846.453125 494.171875 C 848.828125 491.785156 850.726562 489.238281 852.628906 486.695312 C 854.367188 484.628906 855.949219 482.242188 857.214844 480.015625 C 860.535156 474.769531 863.539062 469.679688 865.90625 464.121094 C 868.117188 459.035156 870.328125 453.949219 871.902344 448.386719 C 872.847656 445.527344 873.476562 442.828125 874.105469 440.125 C 874.734375 437.425781 875.519531 434.25 875.988281 431.230469 C 876.925781 425.195312 876.59375 419.007812 876.261719 412.816406 C 875.769531 407.101562 875.28125 401.386719 874.789062 395.671875 C 874.464844 391.863281 874.453125 387.894531 874.128906 384.085938 C 874.117188 380.117188 873.632812 375.988281 873.9375 371.863281 C 873.929688 367.890625 874.394531 364.082031 874.703125 359.953125 C 875.171875 356.140625 875.636719 352.328125 876.105469 348.519531 C 876.574219 346.296875 876.890625 344.546875 877.359375 342.324219 C 877.515625 341.054688 877.832031 340.101562 877.988281 338.828125 C 879.085938 333.90625 880.34375 329.296875 881.445312 324.375 C 882.230469 321.992188 883.019531 319.609375 883.808594 317.226562 C 884.28125 316.589844 884.597656 315.636719 884.597656 314.839844 C 884.910156 313.886719 885.070312 313.410156 884.90625 312.300781 C 884.746094 311.191406 884.269531 311.03125 883.789062 310.082031 C 883.472656 309.445312 882.359375 308.8125 881.566406 308.816406 C 880.613281 308.5 879.816406 308.503906 879.183594 308.820312 C 878.867188 308.980469 878.074219 308.984375 877.753906 309.144531 C 877.121094 309.460938 876.804688 309.621094 876.167969 309.941406 C 875.851562 310.101562 875.535156 310.257812 875.535156 310.257812 C 874.265625 310.898438 873 311.535156 872.046875 312.015625 C 869.511719 313.289062 866.972656 314.566406 864.753906 315.683594 C 862.214844 316.960938 859.679688 318.234375 857.140625 319.511719 C 854.921875 320.628906 853.019531 321.585938 850.800781 322.703125 C 845.726562 325.253906 840.8125 328.125 836.214844 330.835938 C 833.835938 332.429688 831.617188 333.546875 829.238281 335.136719 C 826.859375 336.730469 824.484375 338.324219 822.105469 339.917969 C 817.828125 343.261719 813.550781 346.605469 809.429688 350.269531 C 807.53125 352.019531 805.472656 354.246094 803.570312 355.996094 C 801.667969 357.75 799.613281 359.976562 797.871094 362.042969 C 789.953125 370.796875 782.671875 380.019531 776.027344 389.722656 C 774.445312 392.105469 772.867188 394.492188 771.125 396.558594 C 769.382812 398.628906 767.800781 401.011719 766.375 402.921875 C 764.796875 405.308594 763.214844 407.691406 761.632812 410.078125 C 760.050781 412.464844 758.785156 414.6875 757.679688 417.230469 C 756.101562 420.410156 754.359375 423.273438 753.097656 426.292969 C 751.675781 428.996094 749.9375 431.855469 748.039062 434.402344 C 746.769531 435.832031 745.1875 437.425781 743.921875 438.855469 C 742.019531 440.605469 740.117188 442.359375 738.378906 444.425781 C 736.476562 446.175781 734.734375 448.246094 732.992188 450.3125 C 731.253906 452.382812 729.195312 454.609375 727.453125 456.675781 C 723.8125 461.289062 720.96875 466.695312 718.757812 471.78125 C 716.707031 477.183594 714.972656 482.425781 714.035156 488.460938 C 713.253906 494.019531 712.792969 499.417969 712.804688 504.976562 C 712.8125 508.148438 712.660156 511.007812 712.988281 514.023438 C 712.996094 517.199219 713.160156 519.898438 713.167969 523.074219 C 713.65625 528.785156 714.304688 534.023438 715.589844 539.734375 C 716.714844 545.132812 717.839844 550.527344 718.644531 556.082031 C 719.128906 559.414062 719.773438 562.269531 720.257812 565.601562 C 720.898438 568.457031 721.382812 571.792969 722.023438 574.648438 C 722.828125 577.820312 723.628906 580.992188 724.429688 584.167969 C 725.070312 587.023438 726.191406 590.035156 726.515625 593.050781 C 726.515625 593.050781 726.515625 593.050781 726.675781 593.371094 C 726.675781 593.371094 726.355469 593.527344 726.515625 593.847656 C 726.203125 594.800781 726.363281 595.910156 726.523438 597.019531 C 726.367188 597.496094 726.6875 598.132812 726.527344 598.609375 C 726.371094 599.085938 726.691406 599.71875 727.007812 600.355469 C 727.007812 600.355469 726.851562 600.832031 726.851562 600.832031 C 725.753906 606.546875 724.972656 612.105469 724.988281 617.664062 C 724.828125 618.140625 724.988281 618.457031 725.148438 618.773438 C 724.511719 617.507812 723.714844 616.714844 723.078125 615.445312 C 722.917969 615.128906 722.917969 615.128906 722.917969 615.128906 C 722.757812 614.8125 722.757812 614.8125 722.597656 614.496094 C 719.25 609.421875 715.429688 604.984375 711.765625 600.074219 C 708.421875 595.796875 705.078125 591.515625 701.257812 587.082031 C 697.597656 582.960938 693.777344 578.527344 690.113281 574.40625 C 686.453125 570.289062 683.109375 566.011719 679.765625 561.730469 C 679.605469 561.414062 679.445312 561.097656 679.285156 560.78125 C 676.578125 556.976562 674.027344 552.695312 671.476562 548.417969 C 670.359375 546.195312 668.925781 544.136719 667.648438 541.597656 C 666.53125 539.378906 665.414062 537.160156 664.617188 534.78125 C 662.699219 530.179688 660.941406 525.105469 659.023438 520.503906 C 657.109375 515.90625 655.507812 511.148438 653.910156 506.386719 C 652.3125 501.628906 650.710938 496.871094 649.429688 491.953125 C 648.148438 487.035156 646.867188 482.117188 646.378906 477.195312 C 645.890625 472.273438 645.242188 467.039062 644.753906 462.117188 C 644.265625 457.195312 643.933594 451.800781 643.445312 446.878906 C 643.441406 444.5 643.433594 442.117188 643.113281 439.894531 C 643.105469 436.71875 642.777344 433.703125 642.453125 430.6875 C 642.121094 424.496094 641.472656 418.464844 640.824219 412.433594 C 640.175781 407.199219 639.683594 401.484375 638.558594 396.089844 C 637.597656 391.804688 636.953125 387.359375 635.988281 383.078125 C 636.460938 381.648438 636.457031 380.058594 636.613281 378.789062 C 637.398438 374.816406 638.816406 371.320312 640.554688 367.667969 C 642.449219 363.535156 644.027344 359.5625 645.605469 355.589844 C 647.660156 351.773438 649.714844 347.957031 652.085938 343.984375 C 654.773438 339.847656 657.941406 335.871094 660.628906 331.738281 C 662.84375 328.238281 665.058594 324.742188 667.589844 321.085938 C 670.121094 317.425781 672.652344 313.769531 675.34375 310.429688 C 677.71875 308.042969 679.617188 305.496094 681.992188 303.109375 C 683.257812 301.679688 684.683594 300.5625 686.269531 298.972656 C 687.695312 297.855469 689.121094 296.742188 690.546875 295.628906 C 691.65625 294.671875 692.925781 294.035156 694.035156 293.078125 C 694.351562 292.917969 694.351562 292.917969 694.667969 292.761719 C 694.667969 292.761719 694.351562 292.917969 694.351562 292.917969 C 694.667969 292.761719 694.984375 292.601562 695.300781 292.441406 C 695.617188 292.28125 695.9375 292.121094 696.253906 291.960938 C 695.9375 292.121094 695.9375 292.121094 695.617188 292.28125 C 700.691406 288.933594 705.445312 284.953125 710.355469 281.289062 C 714.953125 277.789062 719.707031 273.804688 723.980469 269.667969 C 728.574219 265.371094 732.691406 260.121094 736.648438 255.347656 C 740.605469 250.578125 744.5625 245.804688 748.359375 240.714844 C 752.792969 235.308594 756.90625 229.265625 761.019531 223.222656 C 763.074219 220.199219 764.972656 216.859375 766.707031 213.207031 C 768.445312 209.550781 770.5 205.734375 772.238281 202.078125 C 772.082031 202.554688 771.605469 203.191406 771.449219 203.667969 C 771.605469 203.191406 772.082031 202.554688 772.238281 202.078125 C 772.394531 201.601562 772.394531 201.601562 772.554688 201.125 C 774.449219 196.992188 776.503906 193.179688 778.398438 189.046875 C 780.292969 184.914062 781.871094 180.941406 783.289062 176.652344 C 784.867188 172.679688 785.492188 168.390625 786.753906 164.578125 C 787.855469 160.445312 788.796875 156 789.578125 152.027344 C 789.421875 152.503906 789.265625 152.980469 789.265625 153.773438 C 789.582031 152.820312 789.578125 152.027344 789.894531 151.074219 C 791.148438 144.878906 792.246094 139.164062 793.503906 132.96875 C 794.601562 127.25 795.699219 121.53125 796.476562 115.972656 C 796.636719 115.496094 796.476562 115.179688 796.792969 115.019531 C 796.949219 114.542969 797.109375 114.066406 797.105469 113.273438 C 797.882812 106.921875 798.34375 100.726562 798.648438 94.21875 C 798.792969 88.183594 798.300781 82.472656 798.445312 76.4375 C 798.429688 70.085938 798.414062 63.738281 798.398438 57.386719 C 798.542969 51.355469 799.003906 45.160156 799.941406 39.125 C 800.726562 35.15625 801.828125 31.023438 803.089844 27.210938 C 804.667969 23.238281 805.925781 19.425781 807.503906 15.453125 C 808.769531 13.226562 809.71875 11.160156 811.296875 8.777344 C 812.25 7.503906 813.199219 6.230469 813.195312 4.644531 C 812.722656 6.867188 811.765625 4.964844 810.492188 4.015625 Z M 592.261719 485.742188 C 587.65625 485.277344 583.210938 485.128906 578.609375 485.457031 C 573.84375 485.46875 569.558594 485.636719 564.636719 485.332031 C 560.191406 485.183594 555.746094 485.035156 551.617188 484.730469 C 547.328125 484.105469 542.722656 483.640625 538.4375 483.015625 C 530.019531 481.289062 521.4375 478.453125 513.648438 474.820312 C 509.359375 472.605469 504.589844 470.238281 500.457031 467.546875 C 496.160156 464.542969 491.867188 461.535156 487.890625 458.371094 C 484.867188 455.519531 481.527344 452.832031 478.820312 449.820312 C 475.957031 446.492188 473.40625 443.007812 470.859375 439.519531 C 471.019531 439.835938 471.335938 440.472656 471.8125 440.628906 C 470.859375 439.519531 470.0625 437.933594 469.105469 436.824219 C 466.398438 433.023438 464.164062 428.582031 461.929688 424.144531 C 460.8125 421.921875 459.695312 419.703125 458.738281 417.800781 C 457.625 415.582031 456.824219 413.199219 455.546875 410.664062 C 454.429688 408.445312 453.3125 406.222656 452.199219 404.003906 C 451.082031 401.785156 449.804688 399.246094 448.6875 397.027344 C 447.570312 394.808594 445.976562 392.429688 444.859375 390.210938 C 443.425781 388.148438 442.308594 385.929688 440.875 383.871094 C 438.804688 380.539062 437.050781 377.050781 435.136719 373.246094 C 434.179688 371.34375 433.378906 369.757812 432.105469 368.015625 C 431.308594 366.429688 430.035156 364.6875 429.238281 363.101562 C 427.003906 359.453125 425.25 355.964844 423.019531 352.320312 C 422.0625 350.417969 421.265625 348.832031 420.308594 346.929688 C 419.507812 345.34375 419.027344 343.597656 418.546875 341.851562 C 417.585938 338.363281 416.148438 334.714844 415.1875 331.222656 C 414.226562 327.734375 413.105469 323.925781 412.144531 320.4375 C 410.539062 313.296875 409.414062 306.3125 408.917969 299.011719 C 408.75 295.519531 408.585938 292.027344 408.894531 288.691406 C 409.203125 285.359375 409.828125 281.863281 410.296875 278.847656 C 411.082031 274.875 412.027344 271.222656 412.808594 267.25 C 413.28125 265.027344 413.75 262.804688 414.222656 260.578125 C 414.535156 258.832031 415.007812 256.609375 415.320312 254.863281 C 416.578125 249.460938 417.835938 244.058594 419.089844 238.660156 C 419.71875 235.957031 420.347656 233.257812 421.453125 230.714844 C 421.609375 230.238281 421.609375 230.238281 421.769531 229.761719 C 421.925781 230.078125 421.609375 230.238281 421.769531 230.554688 C 421.617188 233.414062 421.464844 236.273438 421.472656 239.445312 C 421.332031 245.480469 421.1875 251.511719 421.359375 257.386719 C 421.523438 260.085938 421.371094 262.945312 421.539062 265.640625 C 421.703125 268.339844 422.1875 270.878906 422.351562 273.578125 C 422.832031 276.117188 423 278.816406 423.480469 281.355469 C 423.964844 283.894531 424.605469 286.75 425.089844 289.289062 C 426.371094 294.207031 427.492188 298.808594 428.773438 303.726562 C 430.058594 309.4375 431.976562 314.832031 434.210938 320.066406 C 435.328125 322.285156 436.605469 324.820312 437.722656 327.042969 C 439 329.578125 440.273438 332.117188 442.027344 334.808594 C 442.347656 335.445312 442.503906 335.761719 442.824219 336.394531 C 442.824219 336.394531 442.984375 336.714844 442.984375 336.714844 C 442.824219 336.394531 442.664062 336.078125 442.503906 335.761719 C 443.941406 338.617188 445.535156 340.992188 447.289062 343.6875 C 448.722656 345.75 450.15625 347.808594 451.589844 349.871094 C 454.617188 354.308594 458.117188 358.109375 461.460938 362.386719 C 462.898438 364.449219 464.648438 366.347656 466.082031 368.410156 C 467.515625 370.46875 469.265625 372.371094 470.859375 374.746094 C 473.726562 378.867188 476.753906 383.304688 479.621094 387.425781 C 481.054688 389.488281 482.171875 391.707031 483.605469 393.765625 C 485.039062 395.828125 486.472656 397.886719 487.90625 399.949219 C 490.457031 403.433594 492.6875 407.082031 495.238281 410.566406 C 497.785156 414.054688 500.015625 417.699219 502.882812 421.027344 C 506.066406 424.988281 509.410156 428.472656 512.910156 432.273438 C 514.664062 434.175781 516.570312 435.597656 518.320312 437.5 C 519.914062 439.082031 521.34375 440.351562 522.9375 441.933594 C 526.597656 445.257812 530.414062 448.105469 534.230469 450.957031 C 536.296875 452.695312 538.207031 454.121094 540.433594 455.386719 C 542.339844 456.808594 544.089844 457.917969 546 459.339844 C 549.816406 462.191406 553.632812 465.039062 557.609375 467.410156 C 558.722656 468.042969 559.832031 468.675781 560.945312 469.304688 C 564.445312 471.519531 568.101562 473.257812 571.757812 474.996094 C 573.820312 475.941406 575.886719 476.890625 578.113281 478.15625 C 580.179688 479.101562 581.929688 480.210938 583.835938 480.839844 C 587.808594 482.417969 591.941406 484.3125 595.914062 485.890625 C 596.390625 486.046875 597.34375 486.363281 597.820312 486.519531 C 595.121094 485.894531 593.53125 485.898438 592.261719 485.742188 Z M 604.472656 479.996094 C 602.089844 479.207031 599.707031 478.421875 597.164062 477.316406 C 595.097656 476.367188 593.191406 475.738281 591.125 474.789062 C 589.058594 473.84375 586.675781 473.054688 584.609375 472.105469 C 582.542969 471.160156 580.476562 470.210938 578.410156 469.265625 C 576.183594 468 573.800781 467.210938 571.574219 465.945312 C 569.507812 465 567.761719 463.890625 565.695312 462.945312 C 564.105469 462.15625 562.355469 461.046875 560.765625 460.257812 C 556.949219 458.203125 553.292969 455.671875 549.953125 452.980469 C 548.203125 451.875 546.453125 450.765625 544.546875 449.34375 C 542.636719 447.917969 540.730469 446.496094 538.820312 445.070312 C 535.003906 442.222656 531.1875 439.375 527.6875 436.367188 C 526.253906 435.097656 524.664062 433.515625 523.230469 432.25 C 521.800781 430.980469 520.207031 429.398438 518.777344 428.132812 C 517.820312 427.023438 516.546875 426.074219 515.753906 425.28125 C 510.976562 420.53125 507.3125 414.824219 503.648438 409.117188 C 501.574219 405.789062 499.660156 401.984375 498.222656 398.335938 C 497.265625 396.433594 496.625 394.371094 495.667969 392.46875 C 494.550781 390.246094 493.4375 388.027344 492.160156 385.492188 C 489.289062 380.578125 486.421875 375.660156 483.234375 370.90625 C 480.367188 366.785156 477.339844 362.347656 474.152344 358.386719 C 470.332031 353.15625 466.351562 348.40625 462.527344 343.175781 C 460.617188 340.957031 458.863281 338.261719 457.269531 335.882812 C 455.675781 333.507812 453.925781 330.8125 452.648438 328.277344 C 450.578125 324.945312 448.820312 321.457031 447.066406 317.96875 C 445.152344 314.164062 443.078125 310.042969 441.796875 305.917969 C 440.359375 302.269531 439.398438 297.984375 437.960938 294.335938 C 436.839844 290.53125 435.242188 286.566406 434.4375 282.597656 C 432.515625 275.617188 430.910156 268.476562 430.101562 261.335938 C 429.445312 253.714844 428.953125 246.414062 429.09375 238.792969 C 428.933594 238.476562 429.25 238.316406 429.089844 238 C 430.527344 240.855469 431.804688 243.390625 433.238281 246.246094 C 434.355469 248.464844 435.3125 250.367188 436.429688 252.585938 C 437.546875 254.808594 438.980469 256.867188 440.253906 258.609375 C 441.847656 260.988281 443.601562 263.683594 445.511719 265.902344 C 446.945312 267.960938 448.535156 269.546875 450.289062 271.445312 C 452.039062 273.347656 453.3125 275.089844 455.0625 276.992188 C 456.8125 278.890625 458.25 280.953125 459.839844 282.535156 C 461.589844 284.4375 463.339844 286.335938 465.09375 288.238281 C 466.84375 290.140625 468.910156 291.878906 470.664062 293.78125 C 478.140625 300.75 485.621094 307.714844 492.9375 314.367188 C 498.667969 319.433594 504.710938 324.339844 510.757812 329.246094 C 514.257812 332.253906 517.757812 335.261719 520.9375 338.429688 C 524.28125 341.914062 527.304688 345.558594 530.492188 349.519531 C 533.679688 354.273438 536.230469 359.347656 539.101562 364.261719 C 540.375 366.800781 542.128906 369.492188 543.40625 372.03125 C 544.523438 374.25 545.480469 376.945312 546.28125 379.328125 C 547.71875 383.769531 548.84375 388.371094 550.28125 392.8125 C 552.042969 397.886719 553.800781 402.964844 555.875 407.878906 C 556.992188 410.097656 558.109375 412.320312 558.75 414.382812 C 559.707031 416.285156 560.507812 418.664062 561.464844 420.566406 C 563.695312 425.007812 565.929688 429.445312 568.480469 433.726562 C 571.03125 438.007812 573.898438 442.128906 576.765625 446.25 C 578.199219 448.308594 579.632812 450.367188 580.75 452.589844 C 582.34375 454.964844 583.777344 457.027344 585.6875 459.246094 C 588.714844 462.890625 591.261719 466.375 594.605469 469.859375 C 597.3125 472.871094 600.335938 475.71875 603.199219 478.253906 C 603.992188 479.042969 604.628906 479.519531 605.425781 480.3125 C 605.425781 480.3125 604.949219 480.152344 604.472656 479.996094 Z M 614.492188 487.273438 Z M 483.21875 560.464844 C 483.21875 560.464844 483.058594 560.148438 483.21875 560.464844 Z M 708.402344 718.199219 C 706.65625 718.679688 704.914062 719.160156 703.167969 719.640625 C 700.628906 720.121094 698.089844 720.605469 695.234375 721.246094 C 692.378906 721.886719 689.203125 722.691406 686.347656 723.332031 C 680.160156 724.457031 674.128906 725.109375 668.09375 724.964844 C 662.539062 724.976562 656.824219 724.671875 651.265625 723.894531 C 645.707031 723.113281 640.464844 722.171875 635.0625 720.917969 C 630.457031 719.65625 626.007812 717.921875 621.558594 716.1875 C 617.109375 714.449219 612.816406 712.238281 608.523438 710.027344 C 604.390625 707.335938 600.257812 704.648438 596.914062 701.164062 C 595.164062 699.261719 593.410156 697.363281 591.660156 695.460938 C 589.75 693.242188 588.316406 691.183594 586.566406 689.28125 C 582.585938 685.324219 578.449219 681.046875 573.996094 677.722656 C 569.859375 674.242188 565.40625 670.917969 560.953125 667.59375 C 556.5 664.273438 552.046875 660.949219 547.59375 657.625 C 545.046875 655.726562 542.34375 653.511719 539.800781 651.613281 C 537.09375 649.394531 534.230469 646.863281 531.683594 644.171875 C 528.980469 641.953125 526.433594 639.261719 524.046875 636.886719 C 521.660156 634.511719 518.953125 632.292969 516.566406 629.917969 L 517.203125 630.394531 C 517.042969 630.078125 517.042969 630.078125 516.566406 629.917969 C 513.226562 626.433594 510.199219 622.789062 507.332031 618.667969 C 504.785156 615.183594 502.394531 611.21875 500.160156 607.574219 C 497.132812 602.34375 494.738281 596.792969 492.34375 591.242188 C 491.226562 589.019531 490.265625 586.324219 489.46875 583.945312 C 488.667969 581.566406 488.027344 578.710938 487.226562 576.332031 C 486.90625 575.695312 486.90625 574.902344 486.902344 574.109375 C 488.019531 576.328125 489.292969 578.070312 490.726562 580.132812 C 493.4375 583.933594 496.144531 587.738281 499.167969 591.382812 C 500.601562 593.445312 502.195312 595.027344 503.945312 596.929688 C 505.695312 598.828125 507.765625 600.570312 510.148438 602.152344 C 512.058594 603.574219 514.125 605.316406 516.035156 606.742188 C 517.945312 608.164062 519.851562 609.589844 521.921875 611.332031 C 523.828125 612.753906 525.738281 614.179688 527.328125 615.761719 C 529.238281 617.1875 531.304688 618.929688 533.53125 620.195312 C 537.664062 622.882812 541.640625 626.046875 545.777344 628.738281 C 554.363281 633.953125 563.421875 637.742188 572.164062 642.484375 C 574.230469 643.433594 576.457031 644.695312 578.203125 645.804688 C 586.152344 650.546875 593.789062 656.242188 601.421875 661.941406 C 605.238281 664.789062 609.058594 667.636719 612.558594 670.644531 C 616.058594 673.652344 619.714844 676.976562 623.214844 679.984375 C 624.808594 681.570312 626.714844 682.992188 628.308594 684.578125 C 630.375 686.320312 632.445312 688.058594 634.351562 689.484375 C 638.167969 692.332031 641.667969 695.339844 645.488281 698.1875 C 649.144531 700.71875 652.800781 703.25 656.617188 706.097656 C 659.003906 707.679688 661.707031 709.101562 664.410156 710.527344 C 666.476562 711.472656 668.542969 712.421875 670.925781 713.207031 C 673.945312 714.472656 677.121094 715.257812 680.296875 716.042969 C 681.570312 716.199219 682.839844 716.355469 684.269531 716.828125 C 685.539062 716.984375 686.96875 717.457031 688.238281 717.613281 C 693.796875 718.390625 699.355469 718.378906 704.910156 718.363281 C 705.703125 718.363281 706.5 718.359375 707.292969 718.359375 C 707.292969 718.359375 707.292969 718.359375 706.976562 718.519531 C 708.5625 718.515625 710.46875 718.351562 712.054688 718.347656 C 710.464844 717.558594 709.515625 718.035156 708.402344 718.199219 Z M 725.363281 706.882812 C 723.457031 707.046875 721.394531 707.6875 719.492188 707.851562 C 717.585938 708.015625 715.683594 708.179688 713.777344 708.339844 C 711.871094 708.503906 710.285156 708.507812 708.378906 708.671875 C 705.523438 708.519531 702.664062 708.367188 699.804688 708.21875 C 696.472656 707.90625 693.136719 707.597656 689.800781 706.496094 C 682.808594 704.449219 676.292969 701.765625 669.777344 698.289062 C 661.828125 693.542969 654.667969 688.003906 647.355469 682.941406 C 645.445312 681.519531 643.539062 680.09375 641.789062 678.988281 C 639.71875 677.246094 637.496094 675.980469 635.425781 674.242188 C 631.609375 671.390625 627.792969 668.542969 624.132812 666.011719 C 621.113281 663.957031 618.09375 661.898438 614.753906 660.003906 C 611.730469 657.945312 608.234375 655.730469 605.054688 653.359375 C 598.375 648.769531 592.011719 644.023438 585.019531 640.390625 C 582.15625 638.648438 579.136719 637.386719 576.273438 635.648438 C 573.253906 634.386719 570.394531 632.644531 567.375 631.382812 C 564.355469 630.121094 561.335938 628.855469 558.472656 627.117188 C 555.769531 625.695312 552.75 624.433594 549.890625 622.695312 C 546.390625 620.480469 542.734375 617.949219 539.234375 615.734375 C 537.328125 614.308594 535.578125 613.203125 533.351562 611.9375 C 531.445312 610.515625 529.695312 609.40625 528.101562 607.824219 C 524.761719 605.132812 521.105469 602.601562 517.765625 599.910156 C 515.855469 598.488281 514.265625 596.902344 512.355469 595.480469 C 510.925781 594.210938 509.175781 593.105469 507.582031 591.519531 C 504.402344 588.355469 501.691406 584.550781 499.144531 581.0625 C 496.59375 577.578125 493.886719 573.773438 491.65625 570.128906 C 491.496094 569.808594 491.496094 569.808594 491.335938 569.492188 C 492.289062 569.808594 493.085938 570.601562 494.039062 570.914062 C 498.96875 573.601562 504.210938 576.128906 509.933594 578.019531 C 515.335938 580.070312 520.734375 581.328125 526.296875 582.902344 C 531.855469 584.476562 537.417969 586.050781 542.976562 586.832031 C 548.058594 587.453125 553.296875 588.394531 558.539062 589.332031 C 564.097656 590.113281 569.5 591.371094 574.898438 592.628906 C 577.601562 593.257812 579.984375 594.042969 582.527344 595.148438 C 585.386719 596.09375 588.089844 597.515625 590.949219 598.460938 C 593.96875 599.726562 596.671875 601.148438 599.691406 602.410156 C 602.390625 603.832031 604.933594 604.9375 607.636719 606.359375 C 612.25 609.207031 616.859375 612.050781 621.3125 615.375 C 623.378906 617.117188 625.605469 618.382812 627.675781 620.121094 C 629.265625 621.707031 631.175781 623.132812 632.765625 624.714844 C 636.746094 628.675781 639.929688 632.636719 643.273438 636.914062 C 645.183594 639.132812 646.617188 641.191406 648.210938 643.570312 C 649.644531 645.628906 651.238281 648.007812 652.355469 650.226562 C 655.542969 654.980469 658.253906 659.578125 661.914062 663.699219 C 665.097656 667.660156 669.078125 671.617188 672.578125 675.421875 C 674.964844 677.796875 676.875 680.015625 679.421875 681.914062 C 681.011719 683.496094 682.921875 684.921875 684.828125 686.34375 C 686.738281 687.769531 688.648438 689.191406 690.871094 690.457031 C 693.257812 692.039062 695.484375 693.304688 697.710938 694.570312 C 702.476562 696.9375 707.085938 698.992188 712.011719 700.882812 C 714.394531 701.671875 716.9375 702.777344 719.320312 703.566406 C 721.230469 704.988281 723.296875 705.9375 725.363281 706.882812 Z M 753 712.851562 C 753 712.851562 753.320312 712.691406 753.476562 713.007812 C 753.476562 713.007812 753.476562 713.007812 753 712.851562 Z M 777.929688 715.011719 C 778.089844 715.328125 778.410156 715.167969 777.929688 715.011719 C 777.929688 715.011719 778.410156 715.167969 778.886719 715.328125 C 778.410156 715.167969 778.410156 715.167969 777.929688 715.011719 Z M 943.027344 775.414062 C 942.867188 775.097656 943.027344 775.414062 943.027344 775.414062 Z M 864.328125 336.164062 C 866.226562 334.414062 868.128906 332.664062 870.027344 330.910156 C 870.347656 330.75 870.664062 330.59375 870.664062 330.59375 C 870.191406 332.023438 870.035156 333.292969 869.5625 334.722656 C 868.933594 337.421875 868.304688 340.125 867.835938 343.140625 C 867.839844 343.933594 867.523438 344.886719 867.523438 345.683594 C 867.683594 345.207031 867.523438 344.886719 867.679688 344.410156 C 866.894531 347.589844 866.425781 350.605469 865.957031 353.625 C 865.644531 356.164062 865.492188 359.023438 865.183594 361.5625 C 865.03125 364.421875 864.71875 366.960938 864.566406 369.820312 C 864.414062 372.679688 864.582031 375.375 864.429688 378.234375 C 864.457031 389.347656 864.960938 400.617188 865.304688 411.570312 C 865.476562 417.445312 865.332031 423.480469 864.394531 429.515625 C 863.925781 431.738281 863.292969 433.644531 862.664062 435.550781 C 861.875 437.933594 861.40625 440.15625 860.617188 442.542969 C 859.199219 446.832031 857.304688 450.964844 855.25 454.777344 C 852.402344 460.183594 849.558594 465.585938 846.078125 470.519531 C 844.496094 472.902344 842.757812 475.765625 840.859375 478.308594 C 839.117188 480.378906 837.535156 482.761719 835.792969 484.832031 C 833.261719 487.695312 831.046875 490.398438 828.511719 493.261719 C 827.246094 494.695312 825.980469 496.125 824.394531 497.71875 C 823.285156 498.671875 822.175781 499.628906 820.75 500.742188 C 819.007812 502.019531 817.105469 502.976562 814.886719 504.089844 C 812.664062 505.207031 810.601562 505.847656 808.382812 506.964844 C 804.417969 508.5625 800.292969 509.84375 796.011719 511.597656 C 791.570312 513.039062 787.445312 515.113281 783.480469 516.710938 C 781.578125 517.667969 779.515625 518.308594 777.613281 519.265625 C 775.394531 520.382812 773.332031 521.816406 771.273438 523.25 C 771.589844 523.089844 771.90625 522.929688 772.226562 522.769531 C 768.738281 525.320312 765.09375 527.550781 761.765625 530.414062 C 760.183594 532.007812 758.597656 533.597656 757.332031 535.03125 C 755.746094 536.621094 754.324219 538.53125 752.738281 540.121094 C 749.730469 543.621094 747.835938 547.753906 745.78125 551.570312 C 743.886719 555.703125 741.515625 559.675781 739.621094 563.808594 C 739.144531 564.445312 738.832031 565.398438 738.355469 566.035156 C 738.511719 564.765625 738.828125 563.8125 738.984375 562.539062 C 740.078125 556.027344 741.492188 549.359375 742.902344 542.6875 C 744.007812 539.351562 745.109375 536.011719 746.6875 532.835938 C 748.269531 529.65625 749.6875 526.160156 751.269531 522.980469 C 754.269531 516.304688 757.109375 509.3125 760.585938 502.796875 C 762.328125 499.933594 763.90625 497.546875 766.285156 495.160156 C 767.550781 493.730469 768.976562 492.613281 770.558594 491.023438 C 772.617188 488.796875 774.992188 486.40625 777.050781 484.179688 C 780.851562 479.882812 784.175781 475.429688 787.816406 470.820312 C 789.558594 468.75 791.296875 466.683594 793.039062 464.613281 C 793.671875 463.5 794.78125 462.546875 795.414062 461.433594 C 796.679688 460 797.46875 458.410156 798.257812 456.824219 C 800.789062 452.371094 803 447.285156 804.890625 442.359375 C 805.996094 439.816406 807.261719 437.589844 808.367188 435.046875 C 809.472656 432.503906 810.578125 429.960938 811.523438 427.101562 C 812.628906 424.558594 813.734375 422.015625 814.679688 419.15625 C 815.785156 416.613281 816.570312 414.230469 817.199219 411.53125 C 818.933594 406.285156 821.144531 401.203125 823.355469 396.117188 C 824.777344 393.414062 825.882812 390.871094 827.304688 388.167969 C 828.726562 385.464844 829.992188 383.238281 831.414062 380.539062 C 832.675781 378.3125 834.101562 375.609375 835.363281 373.382812 C 837.578125 369.886719 839.476562 366.546875 841.847656 363.367188 C 844.222656 360.1875 847.074219 357.164062 849.445312 353.980469 C 854.671875 347.777344 859.101562 341.574219 864.328125 336.164062 Z M 728.042969 569.234375 C 727.5625 566.695312 727.078125 564.15625 726.4375 561.300781 C 725.957031 558.761719 725.789062 556.0625 725.148438 553.207031 C 724.339844 547.652344 723.214844 542.257812 722.089844 536.863281 C 721.289062 532.894531 720.800781 528.769531 720.792969 524.800781 C 720.460938 518.609375 720.445312 512.257812 720.90625 506.066406 C 721.210938 500.351562 721.828125 494.476562 722.925781 488.757812 C 723.238281 486.214844 724.027344 483.832031 724.8125 481.449219 C 725.601562 479.066406 726.550781 477 727.816406 474.773438 C 729.710938 470.640625 732.242188 466.984375 734.929688 463.644531 C 736.515625 462.054688 738.097656 460.460938 739.683594 458.871094 C 741.582031 457.117188 743.484375 455.367188 745.386719 453.617188 C 747.285156 451.867188 749.347656 450.433594 751.246094 448.679688 C 752.832031 447.089844 754.730469 445.339844 756.316406 443.746094 C 758.214844 441.996094 759.796875 439.609375 761.539062 437.542969 C 762.964844 435.632812 764.070312 433.09375 765.332031 430.867188 C 766.597656 428.640625 767.546875 426.574219 768.808594 424.347656 C 770.230469 421.644531 771.496094 419.421875 773.078125 417.035156 C 775.769531 412.902344 778.617188 409.085938 781.464844 405.265625 C 784.3125 401.449219 787 397.316406 789.851562 393.5 C 795.230469 386.023438 800.925781 378.390625 806.78125 371.074219 C 808.839844 368.84375 810.582031 366.777344 812.640625 364.550781 C 813.75 363.59375 814.382812 362.480469 815.492188 361.527344 C 816.441406 360.253906 817.550781 359.296875 818.976562 358.183594 C 822.933594 354.203125 827.371094 350.382812 831.964844 346.878906 C 831.964844 346.878906 831.648438 347.039062 831.648438 347.039062 C 832.285156 346.71875 832.757812 346.085938 833.390625 345.765625 C 833.390625 345.765625 833.710938 345.605469 833.710938 345.605469 C 835.453125 344.332031 837.355469 343.375 839.097656 342.101562 C 841.160156 340.664062 843.378906 339.550781 845.4375 338.117188 C 849.71875 335.566406 854.160156 333.332031 858.597656 331.097656 C 858.917969 330.9375 859.234375 330.777344 859.550781 330.621094 C 856.066406 333.960938 853.21875 337.777344 850.050781 341.753906 C 848.3125 343.824219 846.570312 345.890625 844.988281 348.277344 C 843.246094 350.34375 841.503906 352.414062 839.765625 354.480469 C 835.964844 358.777344 832.960938 363.863281 830.113281 368.476562 C 827.265625 373.085938 824.898438 377.855469 822.050781 382.464844 C 819.679688 386.441406 817.46875 390.730469 815.09375 394.707031 C 814.148438 396.773438 813.199219 398.839844 812.253906 400.90625 C 811.304688 402.972656 810.359375 405.039062 809.570312 407.421875 C 807.992188 411.394531 806.097656 415.527344 804.519531 419.5 C 802.308594 423.789062 800.410156 427.921875 798.039062 431.898438 C 798.199219 431.421875 798.515625 431.261719 798.671875 430.785156 C 797.566406 432.535156 796.773438 434.125 795.667969 435.871094 C 795.667969 435.871094 795.667969 435.871094 795.984375 435.714844 C 795.351562 436.824219 794.402344 438.097656 793.929688 439.527344 C 791.402344 443.980469 788.710938 448.113281 785.386719 451.773438 C 783.644531 453.839844 781.429688 455.753906 779.6875 457.820312 C 777.945312 459.886719 776.046875 461.640625 774.304688 463.707031 C 770.503906 468.003906 767.179688 472.457031 763.382812 476.753906 C 761.640625 478.820312 760.054688 480.410156 758.316406 482.480469 C 756.730469 484.070312 755.148438 485.664062 754.039062 487.410156 C 748.027344 496 745.515625 506.800781 742.046875 516.492188 C 740.46875 521.261719 738.417969 525.867188 736.523438 530.796875 C 734.949219 535.5625 733.847656 540.484375 733.226562 545.566406 C 732.289062 551.601562 731.191406 558.113281 730.253906 564.148438 C 729.785156 567.167969 729.316406 570.183594 729.007812 573.519531 C 729.007812 573.519531 729.167969 573.835938 728.851562 573.996094 C 728.371094 572.25 728.046875 570.824219 728.042969 569.234375 Z M 624.507812 361.832031 C 624.828125 364.054688 624.835938 366.433594 625.15625 368.65625 C 625.320312 369.765625 625.480469 370.878906 625.640625 371.988281 C 624.84375 370.402344 624.046875 368.816406 623.25 367.230469 C 621.496094 363.742188 620.054688 360.097656 618.460938 356.132812 C 616.542969 352.324219 614.789062 348.835938 613.351562 345.1875 C 611.914062 341.542969 610.636719 338.210938 609.199219 334.5625 C 607.921875 331.230469 606.960938 327.742188 606.316406 324.089844 C 605.195312 320.285156 604.707031 316.15625 603.90625 312.191406 C 602.457031 304.574219 601.488281 297.113281 600.832031 289.496094 C 600.328125 278.226562 601.574219 267.269531 603.292969 256.46875 C 604.546875 250.273438 605.964844 244.394531 607.855469 238.675781 C 609.902344 232.480469 611.792969 225.964844 614.316406 219.925781 C 615.265625 217.859375 616.371094 216.113281 617.480469 214.363281 C 618.742188 212.136719 620.167969 210.226562 621.910156 208.160156 C 624.757812 205.136719 627.449219 201.796875 630.300781 198.773438 C 633.308594 195.273438 636.160156 192.25 639.167969 188.75 C 639.167969 188.75 638.851562 188.910156 638.851562 188.910156 C 638.851562 188.910156 639.167969 188.75 639.007812 188.433594 C 639.324219 188.273438 639.164062 187.957031 639.480469 187.796875 C 639.480469 187.796875 639.164062 187.957031 639.324219 188.273438 C 640.273438 187 641.066406 186.203125 642.015625 184.933594 C 649.457031 176.816406 657.535156 169.179688 663.863281 160.429688 C 667.1875 155.976562 670.667969 151.046875 673.671875 145.960938 C 676.992188 140.710938 679.996094 135.625 683.160156 130.0625 C 686.164062 124.972656 688.847656 120.046875 691.855469 114.957031 C 694.539062 110.03125 697.386719 105.417969 700.234375 100.808594 C 703.078125 96.195312 706.71875 91.585938 709.566406 86.972656 C 712.574219 82.679688 715.578125 78.386719 719.0625 74.25 C 721.121094 72.023438 723.179688 69.792969 725.554688 67.40625 C 728.246094 64.859375 730.9375 62.3125 733.789062 60.085938 C 739.019531 55.46875 744.40625 51.167969 749.953125 47.1875 C 754.707031 44 759.460938 40.8125 764.21875 37.625 C 771.667969 32.6875 779.59375 27.902344 787.363281 23.597656 C 788.3125 23.121094 788.949219 22.800781 789.898438 22.320312 C 786.890625 25.820312 784.199219 29.164062 781.511719 32.503906 C 777.710938 37.59375 773.757812 43.160156 770.59375 48.722656 C 769.332031 50.949219 768.222656 52.699219 767.117188 55.242188 C 766.171875 57.304688 765.382812 58.894531 764.433594 60.960938 C 763.484375 63.027344 762.539062 65.09375 761.589844 67.160156 C 760.644531 69.226562 759.855469 71.609375 758.90625 73.675781 C 757.960938 75.742188 757.488281 77.964844 756.542969 80.03125 C 755.753906 82.414062 754.964844 84.800781 754.179688 87.183594 C 752.441406 91.632812 751.183594 96.238281 749.765625 100.527344 C 748.503906 104.34375 747.242188 108.15625 745.984375 111.96875 C 745.351562 113.875 744.722656 115.78125 744.089844 117.6875 C 743.460938 119.59375 742.515625 121.660156 741.566406 123.726562 C 739.988281 127.699219 738.25 131.355469 736.671875 135.328125 C 734.9375 138.984375 733.199219 142.640625 730.984375 146.136719 C 728.769531 149.636719 726.875 152.972656 724.5 156.15625 C 721.96875 159.8125 719.4375 163.46875 716.90625 167.128906 C 714.53125 170.308594 712 173.964844 709.46875 176.832031 C 707.09375 180.011719 704.242188 183.035156 701.710938 185.898438 C 698.542969 189.082031 695.214844 191.945312 691.570312 194.972656 C 687.929688 197.996094 684.285156 201.023438 680.800781 204.367188 C 678.898438 206.117188 677.316406 207.707031 675.414062 209.457031 C 673.511719 211.210938 671.453125 213.4375 669.714844 215.503906 C 666.386719 219.164062 663.0625 222.824219 660.214844 226.640625 C 653.882812 234.59375 648.1875 243.023438 643.609375 252.082031 C 642.34375 254.308594 641.394531 256.375 640.605469 258.757812 C 639.660156 260.824219 638.871094 263.207031 637.925781 265.273438 C 636.1875 269.722656 634.136719 274.332031 632.878906 278.941406 C 631.300781 283.707031 629.886719 288.789062 629.101562 293.554688 C 628.160156 298 627.535156 302.289062 627.070312 306.894531 C 626.605469 311.5 625.980469 315.789062 625.515625 320.394531 C 625.050781 325 625.0625 329.761719 624.757812 334.683594 C 624.605469 337.542969 624.453125 340.398438 624.621094 343.097656 C 624.78125 344.207031 624.464844 345.160156 624.625 346.273438 C 624.625 346.273438 624.625 346.273438 624.46875 345.957031 C 624.625 346.273438 624.308594 346.433594 624.46875 346.75 L 624.628906 347.066406 C 623.847656 351.832031 624.019531 356.910156 624.507812 361.832031 Z M 785.527344 117.109375 C 785.367188 117.589844 785.527344 117.90625 785.371094 118.382812 C 785.527344 117.90625 785.367188 117.589844 785.527344 117.109375 Z M 791.207031 37.558594 C 789.953125 43.753906 789.011719 49.789062 788.550781 55.980469 C 788.25 61.699219 788.261719 67.253906 788.117188 73.289062 C 787.992188 87.257812 788.34375 101.386719 785.679688 115.046875 C 785.523438 115.523438 785.523438 115.523438 785.363281 116 C 785.363281 116 785.207031 116.476562 785.207031 116.476562 C 785.367188 116.792969 785.050781 116.953125 785.207031 117.269531 C 783.953125 123.464844 782.539062 129.34375 780.808594 135.378906 C 779.074219 141.417969 777.503906 147.769531 775.773438 153.808594 C 774.359375 159.6875 772.464844 165.40625 770.734375 171.441406 C 768.84375 177.164062 766.632812 182.246094 764.105469 187.492188 C 761.417969 192.421875 759.050781 197.191406 756.363281 202.117188 C 753.675781 207.046875 750.988281 211.972656 747.984375 216.269531 C 744.976562 220.5625 741.8125 225.332031 738.332031 229.46875 C 734.691406 234.082031 730.890625 238.375 727.25 242.988281 C 726.457031 243.785156 725.667969 244.582031 725.351562 245.535156 C 721.550781 249.828125 717.910156 254.441406 713.636719 258.582031 C 709.359375 262.71875 705.238281 266.378906 700.804688 270.203125 C 698.585938 272.113281 696.050781 274.183594 693.832031 276.09375 C 691.617188 278.003906 689.398438 279.914062 687.179688 281.824219 C 684.960938 283.734375 682.425781 285.804688 680.207031 287.714844 C 677.671875 289.785156 675.457031 292.488281 673.242188 295.195312 C 669.601562 299.804688 666.277344 304.257812 663.273438 309.347656 C 661.851562 312.050781 660.269531 314.433594 658.847656 317.136719 C 657.582031 319.363281 656.476562 321.90625 655.214844 324.132812 C 653.789062 326.832031 652.367188 329.535156 650.785156 331.921875 C 649.046875 334.78125 647.464844 337.167969 645.726562 340.03125 C 642.566406 345.59375 639.878906 351.316406 637.671875 357.195312 C 636.722656 359.261719 635.9375 361.644531 634.988281 363.710938 C 634.039062 365.777344 633.570312 368 632.621094 370.066406 C 632.621094 370.066406 632.464844 370.542969 632.464844 370.542969 C 632.464844 369.75 632.144531 369.117188 632.300781 368.640625 C 631.980469 366.417969 631.972656 364.035156 631.492188 361.496094 C 631.003906 356.578125 630.832031 351.496094 630.660156 346.417969 C 630.816406 345.941406 630.816406 345.148438 630.65625 344.828125 C 630.496094 344.511719 630.8125 344.351562 630.652344 344.035156 C 630.652344 344.035156 630.652344 344.035156 630.8125 344.351562 C 630.972656 343.875 630.8125 343.558594 630.96875 343.082031 C 631.117188 338.636719 631.109375 334.667969 631.253906 330.222656 C 631.402344 325.777344 631.867188 321.171875 632.332031 316.566406 C 633.582031 307.992188 634.039062 299.417969 636.242188 291.15625 C 637.027344 287.980469 638.128906 284.640625 639.234375 281.304688 C 640.335938 277.96875 641.597656 274.949219 642.863281 271.929688 C 644.125 268.910156 645.226562 265.574219 646.808594 262.394531 C 648.070312 259.375 649.808594 256.511719 651.550781 253.652344 C 654.554688 248.5625 657.714844 243.792969 661.355469 239.179688 C 663.253906 236.636719 664.996094 234.566406 667.054688 232.339844 C 668.796875 230.273438 670.699219 228.519531 672.757812 226.292969 C 676.242188 222.953125 679.40625 219.769531 683.050781 216.742188 C 686.695312 213.71875 690.816406 210.851562 694.621094 208.140625 C 696.679688 206.707031 698.425781 205.433594 700.484375 204 C 702.542969 202.566406 704.445312 200.816406 706.1875 199.542969 C 710.148438 196.355469 713.476562 192.695312 716.800781 189.039062 C 718.382812 187.445312 720.125 185.378906 721.550781 183.46875 C 722.972656 181.5625 724.398438 179.652344 725.820312 177.742188 C 728.671875 173.925781 731.675781 169.632812 734.363281 165.5 C 737.371094 161.203125 740.21875 156.59375 742.585938 151.824219 C 743.851562 149.597656 744.957031 147.054688 745.90625 144.992188 C 746.851562 142.925781 747.640625 140.539062 748.585938 138.476562 C 749.851562 135.457031 750.957031 132.914062 751.902344 130.050781 C 752.847656 127.191406 753.953125 124.648438 754.898438 121.789062 C 755.84375 118.929688 756.789062 116.070312 757.734375 113.210938 C 758.363281 110.507812 759.308594 107.648438 759.9375 104.949219 C 760.40625 102.726562 761.039062 100.820312 761.507812 98.59375 C 761.351562 99.070312 761.191406 99.546875 761.035156 100.023438 C 762.292969 95.417969 763.554688 90.8125 765.289062 86.363281 C 765.757812 84.136719 766.546875 81.753906 767.496094 79.6875 C 768.285156 77.304688 769.230469 75.238281 770.019531 72.855469 C 770.648438 70.949219 771.597656 68.882812 772.386719 67.292969 C 773.335938 65.226562 773.964844 63.320312 774.753906 60.9375 C 776.171875 57.441406 777.910156 53.785156 779.808594 50.445312 C 783.761719 44.085938 788.03125 37.566406 792.621094 31.683594 C 793.097656 31.046875 793.570312 30.410156 793.886719 30.25 C 792.9375 31.523438 791.835938 34.859375 791.207031 37.558594 Z M 791.207031 37.558594 " fill-opacity="1" fill-rule="nonzero"/></g></g></g><g clip-path="url(#d7dd67ee27)"><g clip-path="url(#5fb225c043)"><g clip-path="url(#f679e32d1e)"><path fill="#525252" d="M 478.855469 463.316406 C 478.378906 463.15625 478.21875 462.839844 478.058594 462.523438 C 478.21875 462.839844 478.695312 462.996094 478.855469 463.316406 Z M 478.855469 463.316406 " fill-opacity="1" fill-rule="nonzero"/></g></g></g><g clip-path="url(#7e463e67da)"><g clip-path="url(#823de97e1d)"><g clip-path="url(#5ed2fecedc)"><path fill="#525252" d="M 850.746094 757.859375 C 851.222656 758.015625 851.859375 758.492188 852.335938 758.648438 C 851.859375 758.492188 851.699219 758.171875 851.222656 758.015625 C 851.222656 758.015625 851.0625 757.699219 850.746094 757.859375 Z M 850.746094 757.859375 " fill-opacity="1" fill-rule="nonzero"/></g></g></g><g clip-path="url(#1c57671323)"><g clip-path="url(#71d487f879)"><g clip-path="url(#b97765f72d)"><path fill="#525252" d="M 875.820312 753.195312 C 875.34375 753.035156 875.183594 752.71875 874.707031 752.5625 C 875.183594 752.71875 875.660156 752.875 875.820312 753.195312 Z M 875.820312 753.195312 " fill-opacity="1" fill-rule="nonzero"/></g></g></g><g clip-path="url(#39e436a375)"><g clip-path="url(#f3bf144715)"><g clip-path="url(#22354eeb66)"><path fill="#525252" d="M 927.648438 784.34375 C 927.171875 784.183594 927.171875 784.183594 926.695312 784.027344 C 927.171875 784.183594 927.332031 784.503906 927.648438 784.34375 Z M 927.648438 784.34375 " fill-opacity="1" fill-rule="nonzero"/></g></g></g><g clip-path="url(#bde8f97167)"><g clip-path="url(#d89fe01220)"><g clip-path="url(#15f287d2ab)"><path fill="#525252" d="M 853.566406 742.929688 C 853.566406 742.929688 853.089844 742.769531 853.089844 742.769531 C 853.089844 742.769531 853.089844 742.769531 853.566406 742.929688 C 853.089844 742.769531 853.25 743.085938 853.566406 742.929688 Z M 853.566406 742.929688 " fill-opacity="1" fill-rule="nonzero"/></g></g></g><g clip-path="url(#b5331fc99a)"><g clip-path="url(#9512086c66)"><g clip-path="url(#9166c3860c)"><path fill="#525252" d="M 926.695312 784.027344 C 926.378906 784.1875 926.378906 784.1875 926.695312 784.027344 L 926.21875 783.871094 C 926.378906 784.1875 926.378906 784.1875 926.695312 784.027344 Z M 926.695312 784.027344 " fill-opacity="1" fill-rule="nonzero"/></g></g></g><g clip-path="url(#ab0b99fc02)"><g clip-path="url(#88ccd27692)"><g clip-path="url(#5dd71102de)"><path fill="#525252" d="M 732.574219 603.515625 C 732.734375 603.832031 732.734375 603.832031 732.574219 603.515625 C 732.414062 603.992188 732.414062 603.992188 732.574219 603.515625 C 732.414062 603.992188 732.734375 603.832031 732.574219 603.515625 Z M 732.574219 603.515625 " fill-opacity="1" fill-rule="nonzero"/></g></g></g><g clip-path="url(#043f585045)"><g clip-path="url(#7271e0c99a)"><g clip-path="url(#2e2ae4c2b9)"><path fill="#525252" d="M 877.363281 343.910156 C 877.363281 343.910156 877.207031 344.386719 877.207031 344.386719 C 877.207031 344.386719 877.363281 343.910156 877.363281 343.910156 Z M 877.363281 343.910156 " fill-opacity="1" fill-rule="nonzero"/></g></g></g><g clip-path="url(#2b5af89a18)"><g clip-path="url(#c141eaa34b)"><g clip-path="url(#8125fe639c)"><path fill="#525252" d="M 868.152344 342.980469 C 868.3125 342.503906 868.152344 342.1875 868.308594 341.710938 C 868.152344 342.1875 867.992188 342.664062 868.152344 342.980469 Z M 868.152344 342.980469 " fill-opacity="1" fill-rule="nonzero"/></g></g></g><g clip-path="url(#913c03f1be)"><g clip-path="url(#6e745cc219)"><g clip-path="url(#44e75900dc)"><path fill="#525252" d="M 630.652344 344.035156 C 630.652344 344.035156 630.496094 343.71875 630.8125 343.558594 C 630.496094 343.71875 630.652344 344.035156 630.652344 344.035156 Z M 630.652344 344.035156 " fill-opacity="1" fill-rule="nonzero"/></g></g></g><g clip-path="url(#ebc1626d51)"><g clip-path="url(#3aae030b4c)"><g clip-path="url(#633c2e3ee2)"><path fill="#525252" d="M 481.050781 583.808594 C 480.894531 583.488281 480.894531 583.488281 481.050781 583.808594 C 480.894531 583.488281 480.734375 583.171875 480.890625 582.695312 C 480.734375 583.171875 480.894531 583.488281 481.050781 583.808594 Z M 481.050781 583.808594 " fill-opacity="1" fill-rule="nonzero"/></g></g></g><g clip-path="url(#818723c69e)"><g clip-path="url(#70ff6db2ec)"><g clip-path="url(#8cd60611e4)"><path fill="#525252" d="M 526.945312 654.5 C 526.945312 654.5 526.789062 654.183594 526.789062 654.183594 C 526.3125 654.027344 526.789062 654.183594 526.945312 654.5 Z M 526.945312 654.5 " fill-opacity="1" fill-rule="nonzero"/></g></g></g><g clip-path="url(#855f2ffec9)"><g clip-path="url(#92ce9e5185)"><g clip-path="url(#24e2c89e54)"><path fill="#525252" d="M 522.464844 574.496094 C 522.941406 574.65625 522.941406 574.65625 522.464844 574.496094 C 522.941406 574.65625 522.78125 574.339844 522.464844 574.496094 Z M 522.464844 574.496094 " fill-opacity="1" fill-rule="nonzero"/></g></g></g><g clip-path="url(#d065b7b606)"><g clip-path="url(#57c64e9696)"><g clip-path="url(#813e4ae1ea)"><path fill="#525252" d="M 585.019531 640.390625 C 585.496094 640.546875 585.652344 640.863281 585.972656 640.703125 C 585.652344 640.863281 585.496094 640.546875 585.019531 640.390625 Z M 585.019531 640.390625 " fill-opacity="1" fill-rule="nonzero"/></g></g></g></svg>