<svg xmlns="http://www.w3.org/2000/svg" xmlns:xlink="http://www.w3.org/1999/xlink" width="500" zoomAndPan="magnify" viewBox="0 0 375 374.999991" height="500" preserveAspectRatio="xMidYMid meet" version="1.0"><defs><clipPath id="f4d6c90890"><path d="M 5.429688 97 L 370.679688 97 L 370.679688 370.382812 L 5.429688 370.382812 Z M 5.429688 97 " clip-rule="nonzero"/></clipPath></defs><path fill="#4b5147" d="M 61.644531 103.324219 C 61.738281 108.820312 62.910156 123.503906 72.164062 132.75 C 72.863281 133.445312 73.703125 133.792969 74.6875 133.792969 C 74.898438 133.792969 75.105469 133.773438 75.3125 133.738281 C 120.164062 125.761719 144.160156 107.5625 151.957031 100.625 C 153.269531 101.855469 154.761719 102.796875 156.433594 103.457031 C 158.109375 104.121094 159.84375 104.449219 161.640625 104.453125 L 214.664062 104.453125 C 216.460938 104.453125 218.199219 104.121094 219.871094 103.460938 C 221.542969 102.800781 223.039062 101.859375 224.351562 100.632812 C 232.132812 107.5625 256.140625 125.769531 301 133.75 C 301.207031 133.789062 301.414062 133.808594 301.625 133.804688 C 302.609375 133.808594 303.453125 133.460938 304.148438 132.761719 C 313.402344 123.519531 314.570312 108.832031 314.671875 103.339844 C 318.90625 100.320312 328.015625 91.34375 327.867188 69.992188 C 328.015625 48.609375 318.90625 39.621094 314.671875 36.601562 C 314.574219 31.105469 313.402344 16.417969 304.148438 7.175781 C 303.734375 6.765625 303.25 6.472656 302.695312 6.296875 C 302.136719 6.121094 301.574219 6.085938 301 6.191406 C 256.160156 14.167969 232.15625 32.359375 224.363281 39.300781 C 223.046875 38.066406 221.550781 37.121094 219.878906 36.457031 C 218.203125 35.792969 216.464844 35.460938 214.664062 35.460938 L 161.640625 35.460938 C 159.84375 35.460938 158.105469 35.792969 156.433594 36.453125 C 154.757812 37.113281 153.265625 38.054688 151.949219 39.285156 C 144.160156 32.347656 120.164062 14.148438 75.316406 6.167969 C 74.742188 6.0625 74.175781 6.097656 73.617188 6.273438 C 73.0625 6.449219 72.578125 6.742188 72.164062 7.15625 C 62.910156 16.402344 61.742188 31.089844 61.644531 36.582031 C 57.40625 39.597656 48.296875 48.578125 48.449219 69.925781 C 48.296875 91.316406 57.40625 100.304688 61.644531 103.324219 Z M 307.453125 35.152344 C 299.355469 35.585938 279.261719 37.929688 261.324219 50.335938 C 260.9375 50.605469 260.613281 50.941406 260.355469 51.339844 C 260.097656 51.734375 259.925781 52.167969 259.839844 52.632812 C 259.757812 53.097656 259.765625 53.5625 259.863281 54.027344 C 259.964844 54.488281 260.148438 54.917969 260.417969 55.304688 C 260.6875 55.695312 261.019531 56.019531 261.417969 56.273438 C 261.816406 56.53125 262.25 56.703125 262.714844 56.789062 C 263.179688 56.871094 263.644531 56.863281 264.109375 56.761719 C 264.570312 56.664062 264.996094 56.476562 265.386719 56.207031 C 284.066406 43.289062 306.019531 42.292969 310.234375 42.207031 C 312.691406 43.804688 320.851562 50.574219 320.722656 69.992188 C 320.863281 89.632812 312.476562 96.316406 310.171875 97.785156 C 305.800781 97.691406 283.984375 96.636719 265.394531 83.78125 C 265.003906 83.511719 264.578125 83.328125 264.113281 83.226562 C 263.652344 83.125 263.1875 83.117188 262.722656 83.203125 C 262.253906 83.289062 261.824219 83.457031 261.425781 83.714844 C 261.027344 83.972656 260.691406 84.292969 260.421875 84.683594 C 260.152344 85.074219 259.96875 85.5 259.871094 85.964844 C 259.769531 86.425781 259.761719 86.890625 259.847656 87.355469 C 259.933594 87.824219 260.105469 88.253906 260.359375 88.652344 C 260.617188 89.050781 260.941406 89.382812 261.332031 89.652344 C 279.257812 102.050781 299.351562 104.410156 307.453125 104.84375 C 307.179688 109.910156 305.910156 119.699219 300.324219 126.375 C 256.761719 118.21875 234.042969 99.800781 228.261719 94.519531 C 228.714844 93.109375 228.941406 91.660156 228.941406 90.175781 L 228.941406 49.742188 C 228.941406 48.257812 228.714844 46.8125 228.261719 45.402344 C 234.027344 40.109375 256.609375 21.746094 300.324219 13.558594 C 305.925781 20.253906 307.1875 30.097656 307.453125 35.144531 Z M 161.640625 42.601562 L 214.664062 42.601562 C 215.132812 42.601562 215.597656 42.648438 216.054688 42.738281 C 216.515625 42.832031 216.960938 42.964844 217.394531 43.144531 C 217.828125 43.324219 218.238281 43.546875 218.628906 43.804688 C 219.019531 44.066406 219.378906 44.363281 219.710938 44.695312 C 220.042969 45.027344 220.335938 45.386719 220.597656 45.777344 C 220.859375 46.164062 221.078125 46.578125 221.257812 47.007812 C 221.4375 47.441406 221.574219 47.886719 221.664062 48.347656 C 221.757812 48.808594 221.804688 49.273438 221.804688 49.742188 L 221.804688 90.171875 C 221.800781 90.640625 221.753906 91.101562 221.664062 91.5625 C 221.570312 92.019531 221.433594 92.464844 221.253906 92.898438 C 221.074219 93.328125 220.855469 93.742188 220.59375 94.128906 C 220.332031 94.519531 220.035156 94.878906 219.707031 95.207031 C 219.375 95.539062 219.011719 95.835938 218.625 96.09375 C 218.234375 96.355469 217.824219 96.574219 217.390625 96.753906 C 216.960938 96.933594 216.511719 97.066406 216.054688 97.160156 C 215.59375 97.25 215.132812 97.296875 214.664062 97.296875 L 161.640625 97.296875 C 161.171875 97.296875 160.710938 97.25 160.25 97.160156 C 159.789062 97.066406 159.34375 96.929688 158.910156 96.75 C 158.476562 96.570312 158.066406 96.351562 157.675781 96.089844 C 157.289062 95.832031 156.925781 95.535156 156.59375 95.203125 C 156.265625 94.871094 155.96875 94.511719 155.707031 94.121094 C 155.445312 93.730469 155.226562 93.320312 155.046875 92.886719 C 154.867188 92.453125 154.730469 92.007812 154.640625 91.550781 C 154.546875 91.089844 154.5 90.625 154.5 90.15625 L 154.5 49.742188 C 154.5 49.273438 154.546875 48.808594 154.640625 48.347656 C 154.730469 47.886719 154.867188 47.441406 155.046875 47.007812 C 155.226562 46.578125 155.445312 46.164062 155.707031 45.777344 C 155.96875 45.386719 156.265625 45.027344 156.59375 44.695312 C 156.925781 44.363281 157.289062 44.066406 157.675781 43.804688 C 158.066406 43.546875 158.476562 43.324219 158.910156 43.144531 C 159.34375 42.964844 159.789062 42.832031 160.25 42.738281 C 160.710938 42.648438 161.171875 42.601562 161.640625 42.601562 Z M 66.160156 42.125 C 70.566406 42.175781 92.289062 43.261719 110.910156 56.140625 C 111.300781 56.410156 111.726562 56.59375 112.1875 56.695312 C 112.648438 56.792969 113.113281 56.800781 113.578125 56.71875 C 114.046875 56.632812 114.476562 56.460938 114.875 56.203125 C 115.273438 55.949219 115.605469 55.625 115.875 55.238281 C 116.144531 54.847656 116.328125 54.421875 116.429688 53.957031 C 116.527344 53.496094 116.535156 53.03125 116.453125 52.566406 C 116.367188 52.101562 116.195312 51.667969 115.941406 51.269531 C 115.683594 50.875 115.359375 50.539062 114.972656 50.269531 C 97.042969 37.867188 76.941406 35.535156 68.847656 35.09375 C 69.109375 30.039062 70.367188 20.238281 75.984375 13.535156 C 119.542969 21.695312 142.257812 40.101562 148.046875 45.386719 C 147.589844 46.804688 147.367188 48.253906 147.367188 49.742188 L 147.367188 90.171875 C 147.367188 91.65625 147.59375 93.101562 148.046875 94.515625 C 142.289062 99.804688 119.707031 118.171875 75.992188 126.355469 C 70.386719 119.65625 69.125 109.824219 68.855469 104.777344 C 76.960938 104.339844 97.054688 101.988281 114.984375 89.585938 C 115.371094 89.316406 115.695312 88.984375 115.953125 88.585938 C 116.207031 88.1875 116.378906 87.753906 116.464844 87.289062 C 116.546875 86.824219 116.539062 86.359375 116.441406 85.898438 C 116.339844 85.433594 116.15625 85.007812 115.886719 84.621094 C 115.617188 84.230469 115.285156 83.90625 114.886719 83.652344 C 114.488281 83.394531 114.058594 83.222656 113.589844 83.140625 C 113.125 83.054688 112.660156 83.0625 112.199219 83.160156 C 111.738281 83.261719 111.3125 83.445312 110.921875 83.714844 C 92.246094 96.632812 70.296875 97.640625 66.074219 97.71875 C 63.617188 96.121094 55.457031 89.351562 55.585938 69.929688 C 55.449219 50.199219 63.902344 43.550781 66.164062 42.125 Z M 66.160156 42.125 " fill-opacity="1" fill-rule="nonzero"/><g clip-path="url(#f4d6c90890)"><path fill="#4b5147" d="M 370.640625 205.261719 C 370.527344 204.652344 370.273438 204.109375 369.878906 203.632812 C 369.480469 203.152344 368.996094 202.804688 368.414062 202.582031 L 297.292969 175.179688 L 357.308594 152.957031 C 357.742188 152.796875 358.128906 152.5625 358.46875 152.25 C 358.8125 151.9375 359.082031 151.574219 359.28125 151.160156 C 359.484375 150.742188 359.597656 150.304688 359.628906 149.84375 C 359.660156 149.382812 359.601562 148.929688 359.457031 148.492188 L 343.40625 99.765625 C 343.257812 99.316406 343.027344 98.910156 342.71875 98.550781 C 342.410156 98.195312 342.042969 97.910156 341.621094 97.695312 C 341.199219 97.480469 340.75 97.359375 340.28125 97.324219 C 339.808594 97.289062 339.347656 97.34375 338.898438 97.492188 C 338.449219 97.640625 338.042969 97.867188 337.683594 98.179688 C 337.324219 98.488281 337.039062 98.851562 336.828125 99.273438 C 336.613281 99.699219 336.488281 100.144531 336.453125 100.617188 C 336.417969 101.089844 336.476562 101.550781 336.621094 102 L 351.597656 147.445312 L 285.953125 171.761719 C 285.613281 171.890625 285.296875 172.0625 285.011719 172.285156 C 284.726562 172.507812 284.476562 172.765625 284.269531 173.0625 C 284.0625 173.359375 283.902344 173.679688 283.792969 174.027344 C 283.683594 174.371094 283.625 174.726562 283.625 175.089844 C 283.621094 175.453125 283.671875 175.804688 283.777344 176.152344 C 283.882812 176.5 284.039062 176.824219 284.242188 177.121094 C 284.445312 177.421875 284.691406 177.683594 284.976562 177.910156 C 285.257812 178.136719 285.570312 178.3125 285.910156 178.445312 L 360.414062 207.148438 L 196.035156 354.832031 L 265.605469 153.488281 C 265.761719 153.039062 265.824219 152.582031 265.796875 152.109375 C 265.769531 151.632812 265.652344 151.183594 265.445312 150.757812 C 265.238281 150.332031 264.957031 149.960938 264.601562 149.648438 C 264.25 149.332031 263.847656 149.097656 263.398438 148.945312 C 262.953125 148.789062 262.492188 148.726562 262.019531 148.753906 C 261.546875 148.78125 261.09375 148.902344 260.667969 149.109375 C 260.242188 149.316406 259.875 149.597656 259.558594 149.953125 C 259.246094 150.308594 259.011719 150.710938 258.859375 151.15625 L 188.152344 355.769531 L 117.449219 151.144531 C 117.296875 150.699219 117.0625 150.296875 116.746094 149.945312 C 116.433594 149.589844 116.0625 149.308594 115.636719 149.101562 C 115.210938 148.894531 114.761719 148.777344 114.289062 148.75 C 113.820312 148.71875 113.359375 148.785156 112.910156 148.9375 C 112.464844 149.09375 112.0625 149.328125 111.707031 149.640625 C 111.355469 149.953125 111.074219 150.324219 110.867188 150.75 C 110.660156 151.175781 110.542969 151.625 110.515625 152.097656 C 110.484375 152.570312 110.546875 153.03125 110.703125 153.476562 L 180.269531 354.832031 L 15.894531 207.148438 L 90.398438 178.445312 C 90.734375 178.3125 91.046875 178.136719 91.332031 177.910156 C 91.613281 177.683594 91.859375 177.421875 92.0625 177.121094 C 92.265625 176.824219 92.421875 176.5 92.527344 176.152344 C 92.632812 175.804688 92.683594 175.449219 92.683594 175.089844 C 92.679688 174.726562 92.625 174.371094 92.511719 174.027344 C 92.402344 173.679688 92.242188 173.359375 92.035156 173.0625 C 91.828125 172.765625 91.582031 172.507812 91.292969 172.285156 C 91.007812 172.0625 90.695312 171.890625 90.355469 171.761719 L 24.71875 147.457031 L 39.6875 102.007812 C 39.835938 101.558594 39.894531 101.097656 39.859375 100.625 C 39.824219 100.152344 39.699219 99.707031 39.484375 99.28125 C 39.273438 98.859375 38.984375 98.496094 38.628906 98.183594 C 38.269531 97.875 37.863281 97.648438 37.414062 97.5 C 36.964844 97.351562 36.503906 97.292969 36.03125 97.332031 C 35.558594 97.367188 35.113281 97.488281 34.691406 97.703125 C 34.265625 97.914062 33.902344 98.203125 33.59375 98.5625 C 33.28125 98.917969 33.054688 99.324219 32.90625 99.773438 L 16.851562 148.488281 C 16.707031 148.929688 16.648438 149.378906 16.679688 149.839844 C 16.710938 150.300781 16.824219 150.738281 17.027344 151.15625 C 17.226562 151.574219 17.496094 151.9375 17.839844 152.246094 C 18.179688 152.558594 18.566406 152.792969 19 152.957031 L 79.015625 175.179688 L 7.894531 202.578125 C 7.609375 202.6875 7.339844 202.832031 7.09375 203.007812 C 6.84375 203.1875 6.625 203.394531 6.429688 203.628906 C 6.234375 203.863281 6.070312 204.121094 5.941406 204.398438 C 5.8125 204.671875 5.71875 204.960938 5.664062 205.261719 C 5.609375 205.5625 5.59375 205.867188 5.617188 206.167969 C 5.636719 206.472656 5.699219 206.769531 5.796875 207.058594 C 5.894531 207.347656 6.03125 207.621094 6.199219 207.875 C 6.367188 208.132812 6.5625 208.359375 6.792969 208.5625 L 185.710938 369.300781 C 186.410156 369.917969 187.222656 370.242188 188.152344 370.273438 C 189.101562 370.296875 189.914062 369.976562 190.589844 369.308594 L 369.511719 208.570312 C 369.976562 208.15625 370.308594 207.652344 370.507812 207.066406 C 370.710938 206.476562 370.753906 205.875 370.640625 205.261719 Z M 370.640625 205.261719 " fill-opacity="1" fill-rule="nonzero"/></g><path fill="#4b5147" d="M 188.152344 157.976562 C 187.683594 157.976562 187.21875 158.019531 186.757812 158.113281 C 186.300781 158.203125 185.851562 158.339844 185.421875 158.519531 C 184.988281 158.699219 184.574219 158.917969 184.1875 159.179688 C 183.796875 159.4375 183.433594 159.734375 183.105469 160.066406 C 182.773438 160.398438 182.476562 160.757812 182.214844 161.148438 C 181.957031 161.539062 181.734375 161.949219 181.554688 162.382812 C 181.375 162.816406 181.242188 163.261719 181.148438 163.722656 C 181.058594 164.183594 181.011719 164.648438 181.011719 165.117188 C 181.011719 165.585938 181.058594 166.046875 181.148438 166.507812 C 181.242188 166.96875 181.375 167.414062 181.554688 167.847656 C 181.734375 168.28125 181.957031 168.691406 182.214844 169.082031 C 182.476562 169.472656 182.773438 169.832031 183.105469 170.164062 C 183.433594 170.496094 183.796875 170.792969 184.1875 171.050781 C 184.574219 171.3125 184.988281 171.53125 185.421875 171.710938 C 185.851562 171.890625 186.300781 172.027344 186.757812 172.117188 C 187.21875 172.210938 187.683594 172.257812 188.152344 172.257812 C 188.621094 172.257812 189.085938 172.210938 189.546875 172.117188 C 190.003906 172.027344 190.453125 171.890625 190.886719 171.710938 C 191.320312 171.53125 191.730469 171.3125 192.121094 171.050781 C 192.507812 170.792969 192.871094 170.496094 193.203125 170.164062 C 193.535156 169.832031 193.828125 169.472656 194.089844 169.082031 C 194.351562 168.691406 194.570312 168.28125 194.75 167.847656 C 194.929688 167.414062 195.066406 166.96875 195.15625 166.507812 C 195.246094 166.046875 195.292969 165.585938 195.292969 165.117188 C 195.292969 164.648438 195.246094 164.183594 195.15625 163.722656 C 195.0625 163.261719 194.925781 162.816406 194.746094 162.382812 C 194.566406 161.953125 194.347656 161.539062 194.085938 161.152344 C 193.828125 160.761719 193.53125 160.402344 193.199219 160.070312 C 192.867188 159.738281 192.507812 159.441406 192.117188 159.179688 C 191.726562 158.921875 191.316406 158.699219 190.882812 158.519531 C 190.449219 158.339844 190.003906 158.207031 189.546875 158.113281 C 189.085938 158.023438 188.621094 157.976562 188.152344 157.976562 Z M 188.152344 157.976562 " fill-opacity="1" fill-rule="nonzero"/><path fill="#4b5147" d="M 188.152344 223.347656 C 187.683594 223.347656 187.21875 223.390625 186.757812 223.484375 C 186.300781 223.574219 185.851562 223.710938 185.421875 223.890625 C 184.988281 224.070312 184.574219 224.289062 184.1875 224.550781 C 183.796875 224.808594 183.433594 225.105469 183.105469 225.4375 C 182.773438 225.769531 182.476562 226.128906 182.214844 226.519531 C 181.957031 226.910156 181.734375 227.320312 181.554688 227.753906 C 181.375 228.1875 181.242188 228.632812 181.148438 229.09375 C 181.058594 229.554688 181.011719 230.019531 181.011719 230.488281 C 181.011719 230.957031 181.058594 231.421875 181.148438 231.878906 C 181.242188 232.339844 181.375 232.785156 181.554688 233.21875 C 181.734375 233.652344 181.957031 234.0625 182.214844 234.453125 C 182.476562 234.84375 182.773438 235.203125 183.105469 235.535156 C 183.433594 235.867188 183.796875 236.164062 184.1875 236.425781 C 184.574219 236.683594 184.988281 236.90625 185.421875 237.082031 C 185.851562 237.261719 186.300781 237.398438 186.757812 237.488281 C 187.21875 237.582031 187.683594 237.628906 188.152344 237.628906 C 188.621094 237.628906 189.085938 237.582031 189.546875 237.488281 C 190.003906 237.398438 190.453125 237.261719 190.886719 237.082031 C 191.320312 236.90625 191.730469 236.683594 192.121094 236.425781 C 192.507812 236.164062 192.871094 235.867188 193.203125 235.535156 C 193.535156 235.203125 193.828125 234.84375 194.089844 234.453125 C 194.351562 234.0625 194.570312 233.652344 194.75 233.21875 C 194.929688 232.785156 195.066406 232.339844 195.15625 231.878906 C 195.246094 231.421875 195.292969 230.957031 195.292969 230.488281 C 195.292969 230.019531 195.246094 229.554688 195.15625 229.09375 C 195.0625 228.636719 194.925781 228.1875 194.746094 227.753906 C 194.566406 227.324219 194.347656 226.910156 194.085938 226.523438 C 193.828125 226.132812 193.53125 225.773438 193.199219 225.441406 C 192.867188 225.109375 192.507812 224.8125 192.117188 224.550781 C 191.726562 224.292969 191.316406 224.070312 190.882812 223.890625 C 190.449219 223.710938 190.003906 223.578125 189.546875 223.484375 C 189.085938 223.394531 188.621094 223.347656 188.152344 223.347656 Z M 188.152344 223.347656 " fill-opacity="1" fill-rule="nonzero"/></svg>