<svg xmlns="http://www.w3.org/2000/svg" xmlns:xlink="http://www.w3.org/1999/xlink" width="500" zoomAndPan="magnify" viewBox="0 0 375 374.999991" height="500" preserveAspectRatio="xMidYMid meet" version="1.0"><defs><clipPath id="7c407c85af"><path d="M 39 0 L 337.773438 0 L 337.773438 375 L 39 375 Z M 39 0 " clip-rule="nonzero"/></clipPath></defs><g clip-path="url(#7c407c85af)"><path fill="#000000" d="M 261.765625 145.679688 C 261.535156 144.019531 260.21875 142.722656 258.550781 142.519531 C 216.910156 137.441406 203.273438 100.378906 187.226562 44.417969 C 186.761719 42.800781 185.257812 41.722656 183.585938 41.746094 C 181.902344 41.785156 180.460938 42.957031 180.082031 44.59375 C 176.945312 58 175.25 69.996094 173.753906 80.585938 C 168.839844 115.421875 166.132812 134.613281 121.972656 147.445312 C 120.550781 147.859375 119.515625 149.082031 119.335938 150.550781 C 119.160156 152.019531 119.878906 153.449219 121.160156 154.1875 C 181.902344 189.175781 183.984375 199.523438 189.542969 227.167969 C 190.738281 233.101562 192.09375 239.828125 194.199219 247.691406 C 194.632812 249.3125 196.101562 250.425781 197.761719 250.425781 C 197.84375 250.425781 197.925781 250.425781 198.007812 250.417969 C 199.765625 250.304688 201.195312 248.964844 201.425781 247.21875 C 208.664062 192.230469 211.65625 169.472656 259.523438 149.589844 C 261.070312 148.949219 261.992188 147.339844 261.765625 145.679688 Z M 196.867188 226.113281 C 196.839844 225.976562 196.8125 225.84375 196.785156 225.710938 C 191.308594 198.488281 188.691406 185.480469 132.039062 151.988281 C 173.164062 137.628906 176.363281 114.949219 181.070312 81.617188 C 181.980469 75.164062 182.964844 68.179688 184.308594 60.691406 C 197.839844 105.390625 212.414062 137.902344 246.167969 147.550781 C 210.269531 165.449219 202.546875 188.054688 196.867188 226.113281 Z M 337.261719 300.792969 C 337.042969 299.136719 335.738281 297.835938 334.085938 297.617188 C 298.414062 292.886719 292.074219 270.460938 283.304688 239.417969 C 282.769531 237.53125 282.234375 235.621094 281.679688 233.691406 C 281.214844 232.074219 279.730469 230.988281 278.039062 231.019531 C 276.359375 231.058594 274.917969 232.230469 274.535156 233.867188 C 272.867188 240.992188 272.3125 247.410156 271.777344 253.617188 C 271.097656 261.546875 270.453125 269.039062 267.542969 277.421875 C 262.324219 292.464844 247.535156 296.765625 231.878906 301.3125 C 230.460938 301.726562 229.421875 302.949219 229.246094 304.417969 C 229.070312 305.886719 229.785156 307.320312 231.066406 308.058594 C 234.816406 310.214844 238.496094 312.167969 242.058594 314.058594 C 252.492188 319.597656 262.351562 324.828125 270.882812 333.769531 C 278.828125 342.101562 282.128906 355.253906 285.042969 366.855469 C 285.582031 368.996094 286.109375 371.09375 286.652344 373.121094 C 287.085938 374.742188 288.554688 375.855469 290.214844 375.855469 C 290.296875 375.855469 290.378906 375.855469 290.460938 375.847656 C 292.21875 375.734375 293.648438 374.390625 293.878906 372.648438 C 294.597656 367.183594 294.691406 361.953125 294.777344 356.894531 C 294.953125 347.125 295.117188 337.898438 299.933594 328.984375 C 306.722656 316.433594 323.074219 309.644531 335.015625 304.683594 C 336.558594 304.042969 337.476562 302.449219 337.261719 300.792969 Z M 293.441406 325.476562 C 289.214844 333.285156 288.03125 341.136719 287.628906 348.859375 C 285.0625 341.4375 281.605469 334.316406 276.226562 328.675781 C 266.867188 318.867188 256.5 313.363281 245.519531 307.539062 C 244.480469 306.988281 243.433594 306.429688 242.375 305.863281 C 255.863281 301.527344 269.171875 295.257812 274.519531 279.839844 C 277.730469 270.589844 278.445312 262.28125 279.136719 254.25 L 279.3125 252.222656 C 286.3125 275.511719 295.003906 294.996094 321.398438 302.546875 C 310.675781 307.570312 299.390625 314.46875 293.441406 325.476562 Z M 244.679688 42.832031 C 268.195312 54.441406 268.960938 57.707031 271.011719 66.4375 C 271.503906 68.53125 272.058594 70.90625 272.9375 73.710938 C 273.421875 75.261719 274.855469 76.300781 276.460938 76.300781 C 276.550781 76.300781 276.644531 76.296875 276.738281 76.289062 C 278.453125 76.160156 279.851562 74.867188 280.109375 73.167969 C 282.953125 54.671875 284.015625 47.753906 302.03125 41.339844 C 303.65625 40.761719 304.664062 39.136719 304.460938 37.425781 C 304.253906 35.710938 302.890625 34.371094 301.175781 34.191406 C 285.632812 32.566406 280.648438 20.898438 274.28125 1.875 C 273.765625 0.335938 272.277344 -0.683594 270.675781 -0.640625 C 269.050781 -0.597656 267.648438 0.507812 267.21875 2.074219 C 265.917969 6.835938 265.222656 11.050781 264.613281 14.773438 C 262.679688 26.507812 261.796875 31.863281 245.421875 35.941406 C 243.917969 36.316406 242.808594 37.589844 242.644531 39.128906 C 242.480469 40.667969 243.292969 42.148438 244.679688 42.832031 Z M 271.777344 16.695312 C 275.589844 25.90625 280.777344 34.339844 289.90625 38.679688 C 281.574219 43.414062 277.914062 49.175781 275.730469 56.832031 C 273.195312 51.355469 268.445312 47.003906 255.875 40.269531 C 268.507812 34.847656 270.132812 26.648438 271.777344 16.695312 Z M 124.304688 253.429688 C 88.125 237.820312 86.710938 232.90625 82.933594 219.765625 C 82.074219 216.777344 81.101562 213.390625 79.636719 209.417969 C 79.046875 207.808594 77.417969 206.824219 75.71875 207.03125 C 74.015625 207.242188 72.683594 208.597656 72.5 210.300781 C 69.507812 238.183594 68.390625 248.613281 41.335938 259.601562 C 39.734375 260.25 38.800781 261.921875 39.085938 263.625 C 39.367188 265.328125 40.792969 266.609375 42.519531 266.707031 C 66.515625 268.050781 75.265625 285.914062 85.878906 313.015625 C 86.4375 314.441406 87.808594 315.363281 89.316406 315.363281 C 89.410156 315.363281 89.503906 315.359375 89.597656 315.351562 C 91.214844 315.230469 92.5625 314.066406 92.921875 312.484375 C 94.488281 305.542969 95.214844 299.394531 95.859375 293.96875 C 97.921875 276.523438 98.960938 267.761719 123.894531 260.355469 C 125.382812 259.914062 126.4375 258.585938 126.527344 257.039062 C 126.621094 255.488281 125.730469 254.042969 124.304688 253.429688 Z M 88.523438 293.101562 C 88.324219 294.792969 88.117188 296.550781 87.875 298.382812 C 79.890625 279.972656 71.082031 266.410156 54.800781 261.378906 C 70.34375 252.660156 75.199219 242.355469 77.722656 227.785156 C 81.574219 238.484375 87.667969 244.921875 112.816406 256.414062 C 91.84375 265.066406 90.414062 277.117188 88.523438 293.101562 Z M 88.523438 293.101562 " fill-opacity="1" fill-rule="nonzero"/></g></svg>