<svg xmlns="http://www.w3.org/2000/svg" xmlns:xlink="http://www.w3.org/1999/xlink" width="500" zoomAndPan="magnify" viewBox="0 0 375 374.999991" height="500" preserveAspectRatio="xMidYMid meet" version="1.0"><defs><clipPath id="e18aa26b0e"><path d="M 68.671875 0 L 306.421875 0 L 306.421875 375 L 68.671875 375 Z M 68.671875 0 " clip-rule="nonzero"/></clipPath></defs><g clip-path="url(#e18aa26b0e)"><path fill="#ffcad4" d="M 164.957031 116.058594 C 228.886719 100.972656 226.007812 43.167969 227.507812 0.078125 C 229.960938 41.980469 238.675781 112.203125 306.433594 123.652344 C 227.804688 133.414062 235.210938 189.597656 226.644531 262.871094 C 225.511719 190.574219 219.074219 135.277344 164.957031 116.058594 Z M 106.082031 256.082031 C 110.617188 203.78125 107.757812 185.003906 156.324219 178.847656 C 114.265625 169.953125 112.117188 129.097656 110.160156 99.113281 C 109.679688 129.910156 108.085938 161.824219 68.671875 171.941406 C 102.371094 186.246094 104.625 204.378906 106.082031 256.082031 Z M 167.648438 374.949219 C 171.160156 334.464844 168.945312 319.929688 206.542969 315.164062 C 173.984375 308.277344 172.320312 276.652344 170.804688 253.441406 C 170.433594 277.28125 169.203125 301.984375 138.691406 309.816406 C 164.777344 320.890625 166.519531 334.925781 167.648438 374.949219 Z M 167.648438 374.949219 " fill-opacity="1" fill-rule="nonzero"/></g></svg>