<svg xmlns="http://www.w3.org/2000/svg" xmlns:xlink="http://www.w3.org/1999/xlink" width="1920" zoomAndPan="magnify" viewBox="0 0 1440 809.999993" height="1080" preserveAspectRatio="xMidYMid meet" version="1.0"><path fill="#ffffff" d="M 935.828125 719.882812 C 935 713.25 934.171875 707.449219 933.617188 701.601562 C 930.117188 663.839844 925.789062 626.21875 918.054688 589.011719 C 907.554688 538.359375 890.46875 490.097656 866.296875 444.371094 C 864.960938 441.886719 864.128906 439.03125 860.492188 436.40625 C 859.757812 444.554688 859.019531 451.96875 858.421875 459.382812 C 854.597656 506.308594 856.117188 553.140625 861.367188 599.925781 C 864.453125 627.371094 866.25 655 867.492188 682.582031 C 868.089844 696.398438 866.570312 710.164062 865.789062 723.84375 C 862.105469 724.257812 862.65625 721.816406 862.703125 720.113281 C 862.980469 713.066406 863.671875 706.023438 863.855469 698.929688 C 864.589844 670.933594 862.105469 643.027344 859.296875 615.214844 C 854.277344 565.894531 850.363281 516.621094 854.414062 467.027344 C 855.289062 456.484375 855.796875 445.84375 856.71875 435.300781 C 857.132812 430.28125 856.210938 425.90625 853.539062 421.578125 C 821.027344 368.714844 786.859375 316.953125 748.085938 268.417969 C 734.824219 251.839844 719.765625 236.828125 704.984375 221.585938 C 697.019531 213.34375 688.59375 212.238281 679.015625 218.457031 C 658.570312 231.71875 637.433594 231.996094 615.605469 222.644531 C 605.519531 218.316406 595.941406 213.113281 587.101562 206.574219 C 570.800781 194.554688 554.40625 182.722656 537.089844 172.175781 C 530.738281 168.308594 525.074219 163.519531 520.789062 157.347656 C 517.105469 152.054688 515.449219 146.527344 518.121094 140.125 C 520.972656 133.171875 520.699219 125.621094 521.804688 118.34375 C 522.308594 115.074219 520.652344 112.820312 519.5 110.242188 C 516.691406 103.976562 516.414062 97.761719 520.699219 92.003906 C 523.738281 87.90625 524.382812 83.394531 524.519531 78.421875 C 524.84375 60.832031 534.191406 52.035156 551.917969 52.632812 C 555.558594 52.773438 556.984375 52.171875 557.582031 48.351562 C 558.503906 42.320312 560.621094 36.515625 563.570312 31.128906 C 571.03125 17.359375 582.3125 13.398438 596.816406 19.386719 C 600.410156 20.859375 603.632812 22.933594 606.949219 26.015625 C 611.183594 18.605469 616.847656 13.816406 625.460938 14.042969 C 628.636719 14.136719 629.878906 11.835938 631.308594 9.761719 C 636.648438 2.164062 643.601562 0 652.351562 3.222656 C 656.589844 4.789062 661.054688 5.433594 665.613281 5.296875 C 666.582031 5.296875 667.59375 5.203125 668.515625 5.433594 C 677.910156 8.011719 687.027344 11.558594 697.113281 11.464844 C 701.53125 11.464844 704.984375 15.425781 707.980469 18.925781 C 711.707031 23.347656 715.347656 27.722656 720.6875 30.53125 C 725.707031 33.15625 726.949219 38.449219 728.148438 43.46875 C 731.925781 59.449219 734.179688 75.660156 736.621094 91.867188 C 738.1875 102.320312 739.890625 112.726562 740.027344 124.792969 C 752.644531 114.246094 759.921875 125.574219 769.039062 130.824219 C 769.636719 125.898438 769.824219 122.074219 770.605469 118.390625 C 773.230469 105.957031 781.152344 98.867188 793.675781 99.605469 C 803.347656 100.15625 812.003906 98.5 820.660156 94.398438 C 826.507812 91.636719 832.957031 90.300781 839.355469 92.878906 C 842.347656 94.078125 844.789062 93.570312 847.554688 92.097656 C 859.710938 85.511719 873.109375 83.714844 886.601562 82.75 C 896.132812 82.058594 903.777344 85.558594 907.832031 94.539062 C 909.71875 98.730469 912.207031 99.605469 916.582031 100.0625 C 930.074219 101.539062 940.386719 107.753906 943.566406 122.074219 C 944.441406 126.035156 946.191406 127.648438 950.195312 126.449219 C 958.023438 124.148438 965.117188 124.976562 972.023438 130.042969 C 974.878906 132.160156 979.4375 131.835938 983.074219 133.128906 C 992.148438 136.351562 993.34375 140.035156 988.046875 148.046875 C 971.285156 173.234375 957.976562 200.40625 943.566406 226.929688 C 938.5 236.277344 933.386719 245.53125 927.21875 254.191406 C 915.707031 270.214844 900.648438 279.839844 880.339844 280.621094 C 869.5625 281.035156 861.230469 289.464844 859.984375 300.007812 C 856.347656 331.089844 856.578125 362.21875 859.066406 393.394531 C 859.339844 396.941406 860.261719 400.488281 859.894531 403.941406 C 858.28125 420.058594 864.40625 433.640625 871.773438 447.550781 C 900.738281 502.300781 918.191406 560.875 927.679688 621.980469 C 932.328125 651.867188 935.183594 681.890625 938.175781 711.960938 C 938.40625 714.265625 939.695312 716.933594 935.828125 719.699219 Z M 817.621094 242.539062 L 817.804688 242.355469 C 821.902344 245.117188 823.882812 251.703125 831.941406 249.402344 C 821.582031 235.308594 816.652344 218.917969 808.089844 204.273438 C 799.617188 189.8125 792.386719 174.617188 789.347656 157.855469 C 795.976562 171.210938 800.675781 185.4375 809.101562 199.207031 C 811.175781 185.761719 806.15625 175.078125 801.367188 163.566406 C 806.570312 165.132812 805.371094 170.519531 809.65625 171.808594 C 810.207031 167.664062 812.785156 164.164062 812.050781 159.789062 C 809.195312 143.027344 796.070312 133.21875 779.03125 134.785156 C 774.242188 135.246094 773.96875 137.132812 775.164062 141 C 775.902344 143.351562 778.066406 145.699219 776.40625 148.785156 C 772.722656 145.375 773.367188 140.035156 769.363281 136.304688 C 771.574219 149.75 778.386719 160.941406 781.242188 173.925781 C 778.203125 172.5 777.835938 170.242188 777.007812 168.308594 C 772.769531 158.59375 769.179688 148.644531 766.277344 138.46875 C 764.296875 131.421875 764.25 131.421875 756.375 128.015625 C 754.949219 131.976562 759.277344 135.660156 757.019531 139.941406 C 754.210938 135.84375 754.074219 131.191406 752.644531 127.003906 C 751.21875 122.765625 748.640625 123.179688 746.105469 125.34375 C 740.859375 129.859375 739.109375 135.980469 739.476562 142.707031 C 739.9375 152.054688 741.546875 161.21875 745.601562 169.78125 C 752.644531 184.5625 760.890625 198.699219 769.179688 212.839844 C 771.527344 216.796875 774.566406 218.085938 779.953125 218.410156 C 770.28125 201.464844 761.304688 185.621094 756.007812 166.007812 C 759.691406 169.964844 760.703125 173.050781 761.855469 176 C 768.210938 192.207031 776.730469 207.265625 785.296875 222.324219 C 788.289062 227.574219 792.0625 231.949219 799.570312 235.632812 C 792.894531 222.371094 784.835938 212.007812 780.828125 198.792969 C 784.003906 200.3125 784.464844 202.523438 785.386719 204.410156 C 791.144531 216.292969 798.328125 227.296875 805.417969 238.347656 C 807.90625 242.21875 811.082031 244.335938 815.132812 245.488281 C 817.804688 246.222656 816.976562 243.691406 817.621094 242.492188 Z M 534.238281 109.320312 C 531.566406 108.90625 528.574219 107.433594 527.375 111.621094 C 526.777344 113.785156 525.808594 115.859375 525.394531 118.023438 C 523.554688 127.507812 524.058594 135.566406 533.316406 142.292969 C 547.039062 152.285156 559.65625 163.796875 572.734375 174.753906 C 574.160156 175.953125 576.140625 176.964844 576.695312 180.605469 C 557.492188 166.511719 540.175781 152.421875 523.785156 136.949219 C 518.488281 145.375 520.421875 151.914062 525.855469 158.085938 C 529.492188 162.230469 533.546875 165.867188 538.242188 168.722656 C 556.664062 179.914062 573.976562 192.667969 591.429688 205.285156 C 601.097656 212.285156 611.691406 217.628906 622.925781 221.769531 C 633.519531 225.6875 644.386719 226.5625 655.667969 223.660156 C 615.097656 221.679688 585.488281 198.515625 556.753906 173.742188 C 562.785156 176 567.761719 180.003906 572.824219 183.78125 C 582.816406 191.332031 592.855469 198.886719 603.953125 204.734375 C 620.902344 213.714844 638.628906 220.113281 658.199219 218.871094 C 664.460938 218.503906 670.816406 218.085938 676.296875 214.265625 C 674.824219 211.132812 672.246094 212.007812 670.21875 211.777344 C 655.113281 209.796875 640.703125 205.425781 627.347656 198.054688 C 605.058594 185.761719 584.152344 171.441406 565.136719 154.449219 C 562.003906 151.683594 559.242188 148.554688 556.292969 145.5625 C 559.886719 146.480469 562.328125 148.460938 564.675781 150.535156 C 583.371094 166.882812 603.679688 180.878906 625.183594 193.265625 C 639.871094 201.695312 655.714844 206.621094 672.429688 208.785156 C 675.332031 209.152344 679.429688 211.042969 680.71875 206.714844 C 682.054688 202.246094 677.355469 201.832031 674.824219 200.496094 C 641.4375 183.136719 612.75 159.511719 585.210938 134.277344 C 584.429688 133.542969 583.046875 132.988281 584.015625 130.363281 C 591.335938 136.488281 598.472656 142.246094 605.335938 148.277344 C 626.65625 166.972656 649.636719 183.320312 674.730469 196.628906 C 676.757812 197.6875 678.554688 199.898438 682.515625 198.609375 C 670.402344 192.160156 662.574219 182.355469 654.425781 172.820312 C 648.070312 165.363281 640.5625 159.375 631.214844 156.199219 C 620.300781 152.46875 611.230469 146.066406 603.308594 137.824219 C 595.941406 130.179688 588.113281 123.042969 580.101562 116.089844 C 572.734375 109.6875 564.398438 104.945312 554.914062 102.457031 C 548.925781 100.894531 542.847656 100.707031 536.816406 102.183594 C 532.578125 103.195312 532.300781 105.914062 534.28125 109.320312 Z M 578.859375 28.042969 L 578.304688 28.597656 C 571.996094 24.496094 571.765625 24.453125 568.128906 30.117188 C 554.773438 50.839844 559.65625 75.566406 573.609375 86.386719 C 574.621094 87.171875 576.601562 87.816406 575.542969 90.164062 C 570.0625 89.289062 567.851562 83.808594 563.523438 81.230469 C 560.714844 84.085938 561.359375 87.214844 562.1875 90.347656 C 563.9375 96.75 567.207031 102.273438 572.640625 106.097656 C 584.796875 114.660156 595.574219 124.746094 605.75 135.476562 C 616.203125 146.527344 629.328125 152.558594 645.535156 157.902344 C 629.878906 139.898438 612.152344 126.910156 597.921875 110.472656 C 615.882812 124.425781 632.550781 139.757812 649.542969 154.816406 C 646.550781 149.703125 642.636719 145.515625 639.183594 141 C 635.773438 136.488281 630.753906 132.988281 630.25 126.402344 L 648.34375 146.804688 C 628.453125 110.242188 599.808594 80.539062 573.746094 48.71875 C 575.175781 47.890625 575.957031 48.351562 576.601562 49.089844 C 610.078125 84.636719 641.160156 122.03125 666.167969 164.300781 C 661.285156 147.726562 651.9375 133.128906 647.285156 116.550781 C 657.738281 132.941406 664.371094 151.363281 674.085938 168.125 C 674.914062 164.488281 672.890625 161.863281 671.554688 159.054688 C 662.851562 140.679688 656.496094 121.523438 652.765625 101.539062 C 649.265625 82.886719 644.847656 64.515625 637.0625 47.109375 C 636.511719 45.910156 635.453125 44.34375 637.292969 42.964844 C 642.175781 49.089844 643.417969 56.917969 647.332031 63.871094 C 647.976562 62.671875 648.714844 61.890625 648.761719 61.0625 C 649.449219 47.199219 646.550781 34.304688 638.03125 23.117188 C 635.589844 19.894531 632 18.375 628.128906 17.589844 C 622.234375 16.394531 617.308594 18.328125 613.441406 22.792969 C 609.433594 27.398438 611.875 31.453125 614.5 35.871094 C 622.28125 49.179688 629.832031 62.625 635.269531 77.132812 C 636.371094 80.078125 638.492188 82.886719 637.570312 87.308594 C 632.828125 80.355469 630.480469 73.308594 627.394531 66.632812 C 621.683594 54.382812 615.558594 42.363281 607.132812 31.726562 C 601.375 24.40625 594.144531 20.125 584.523438 20.90625 C 584.015625 24.128906 588.160156 24.914062 587.054688 27.953125 C 583.921875 26.753906 582.449219 24.082031 580.101562 22.378906 C 579.273438 21.78125 578.304688 21.550781 577.476562 22.195312 C 576.140625 23.300781 576.921875 24.359375 577.707031 25.464844 C 578.214844 26.246094 578.488281 27.167969 578.902344 28.042969 Z M 898.207031 246.039062 C 902.167969 241.480469 904.378906 236.140625 906.171875 230.75 C 912.988281 210.628906 921.324219 191.195312 930.625 172.128906 C 933.019531 167.25 934.953125 162.09375 936.613281 156.886719 C 939.652344 147.355469 941.816406 137.640625 941.03125 127.507812 C 939.972656 114.523438 930.347656 104.808594 917.5 103.519531 C 912.851562 103.058594 909.765625 103.933594 908.0625 109.183594 C 905.710938 116.503906 902.535156 123.59375 899.128906 130.457031 C 887.890625 153.113281 883.058594 177.105469 883.378906 202.246094 C 883.515625 211.871094 883.378906 221.542969 883.242188 231.164062 C 883.148438 237.011719 882.367188 242.722656 880.015625 249.492188 C 878.957031 247.328125 878.40625 246.730469 878.453125 246.222656 C 880.523438 229.601562 879.878906 212.839844 880.015625 196.167969 C 880.203125 172.960938 885.453125 151.039062 895.398438 130.089844 C 898.851562 122.859375 901.660156 115.304688 904.929688 107.984375 C 907.878906 101.398438 905.757812 96.058594 901.246094 91.316406 C 894.382812 83.992188 888.675781 85.097656 885.589844 94.585938 C 883.285156 101.582031 881.398438 108.722656 879.371094 115.8125 C 877.851562 121.15625 876.425781 126.542969 874.769531 132.757812 C 873.339844 129.535156 874.167969 127.324219 874.582031 125.160156 C 876.703125 113.464844 879.511719 101.90625 884.300781 90.992188 C 884.945312 89.519531 885.636719 87.722656 883.609375 87.03125 C 881.8125 86.433594 880.570312 87.816406 880.015625 89.382812 C 878.914062 92.328125 878.542969 95.597656 876.425781 98.175781 C 873.894531 94.816406 878.773438 91.636719 876.609375 88.277344 C 871.40625 86.941406 867.90625 88.460938 866.109375 93.664062 C 864.316406 98.820312 862.011719 103.792969 860.308594 108.953125 C 854.136719 127.695312 851.789062 147.125 850.546875 166.742188 C 849.855469 177.566406 849.210938 188.386719 848.519531 199.253906 L 846.632812 199.023438 C 846.402344 162.09375 848.613281 125.484375 864.222656 90.808594 C 860.308594 89.933594 858.144531 91.589844 855.703125 92.28125 C 847.738281 94.492188 843.453125 99.417969 843.085938 108.078125 C 842.578125 119.3125 841.105469 130.457031 840.371094 141.691406 C 838.207031 174.894531 839.679688 207.863281 847.09375 240.421875 C 847.785156 243.460938 849.441406 246.453125 847.324219 251.65625 C 833.046875 201.695312 835.582031 152.605469 839.726562 103.332031 C 824.4375 126.496094 824.113281 151.453125 830.605469 177.425781 C 824.941406 170.75 825.585938 162.324219 822.777344 155.09375 C 821.121094 155.09375 820.339844 156.105469 819.648438 157.164062 C 813.613281 166.050781 811.726562 176 812.417969 186.542969 C 814.074219 211.089844 823.746094 232.453125 838.390625 251.839844 C 839.726562 253.636719 841.199219 255.480469 843.039062 256.675781 C 849.117188 260.636719 853.722656 265.472656 856.761719 272.332031 C 859.480469 278.503906 865.464844 278.136719 869.148438 272.195312 C 870.347656 270.308594 871.359375 268.28125 872.605469 266.394531 C 873.019531 265.75 873.707031 265.886719 874.167969 266.394531 C 874.859375 269.019531 871.359375 271.136719 872.832031 274.3125 C 880.800781 266.667969 883.011719 256.398438 887.890625 247.421875 C 890.378906 250.414062 886.050781 253.316406 888.351562 256.355469 C 897.195312 241.433594 903.640625 220.4375 906.542969 199.390625 C 908.890625 182.539062 910.824219 165.59375 915.890625 149.246094 C 916.535156 147.125 916.394531 144.457031 920.355469 143.582031 C 909.949219 177.378906 911.835938 213.253906 898.207031 245.992188 Z M 856.441406 416.972656 C 856.578125 414.394531 856.808594 413.105469 856.714844 411.859375 C 855.933594 398.691406 854.921875 385.566406 854.367188 372.398438 C 853.308594 349.28125 853.863281 326.164062 856.117188 303.09375 C 857.269531 291.167969 853.722656 287.945312 841.84375 289.003906 C 830.238281 290.0625 818.679688 289.878906 807.398438 286.65625 C 781.425781 279.242188 761.996094 264.273438 753.199219 237.886719 C 748.5 223.75 750.757812 219.882812 764.664062 215.234375 C 764.941406 215.140625 765.171875 214.863281 765.910156 214.3125 C 755.640625 195.523438 743.4375 177.609375 736.527344 154.679688 C 733.351562 164.300781 730.082031 171.210938 725.570312 177.472656 C 721.976562 182.492188 717.28125 186.40625 713.042969 190.78125 C 704.664062 199.34375 703.835938 205.285156 709.3125 215.878906 C 710.328125 217.855469 711.480469 219.882812 712.859375 221.585938 C 719.675781 230.105469 725.9375 239.039062 733.628906 246.867188 C 742.421875 255.800781 750.34375 265.519531 758.078125 275.371094 C 791.375 317.96875 820.9375 363.09375 849.902344 408.683594 C 851.558594 411.261719 852.527344 414.441406 856.441406 416.972656 Z M 703.878906 183.917969 C 704.339844 183.964844 704.800781 184.058594 705.261719 184.101562 C 706.136719 180.144531 707.195312 176.183594 707.839844 172.175781 C 712.539062 142.199219 709.5 112.636719 703.097656 83.257812 C 701.164062 74.414062 698.125 65.804688 697.941406 56.6875 C 712.167969 99.375 718.015625 142.796875 707.195312 189.261719 C 719.765625 180.695312 727.457031 171.257812 731.1875 158.824219 C 735.46875 144.546875 737.589844 129.71875 736.113281 115.03125 C 733.765625 91.40625 730.035156 67.921875 724.832031 44.714844 C 724.050781 41.304688 723.679688 37.117188 720.597656 35.226562 C 713.273438 30.808594 708.300781 24.039062 702.316406 18.375 C 696.464844 12.847656 689.511719 12.480469 683.894531 16.578125 C 676.894531 21.734375 673.671875 30.390625 676.390625 37.117188 C 682.328125 51.667969 687.53125 66.539062 691.449219 81.78125 C 695.5 97.484375 696.972656 113.464844 697.296875 129.628906 C 695.867188 125.023438 694.808594 120.371094 694.347656 115.628906 C 691.675781 88.550781 683.433594 62.949219 673.625 37.761719 C 672.796875 35.6875 672.429688 33.15625 669.207031 34.167969 C 666.027344 35.136719 665.980469 37.023438 666.625 40.109375 C 667.6875 45.3125 670.265625 50.421875 668.699219 56.59375 C 665.292969 50.746094 667.085938 43.609375 661.792969 37.945312 C 657.507812 49.6875 657.464844 60.554688 663.726562 70.179688 C 672.890625 84.316406 674.363281 99.464844 672.335938 115.492188 C 671.09375 125.4375 671.140625 135.335938 672.796875 145.238281 C 675.285156 160.203125 681.640625 173.511719 689.699219 188.386719 C 692 171.671875 686.105469 158.039062 684.492188 143.304688 C 687.71875 145.285156 687.902344 147.910156 688.546875 150.304688 C 691.769531 162.460938 694.164062 174.710938 693.242188 187.371094 C 693.058594 189.675781 692.691406 192.070312 696.007812 192.347656 C 698.859375 192.578125 699.964844 190.964844 700.105469 188.292969 C 700.335938 184.425781 700.609375 180.605469 700.933594 176.78125 C 701.253906 173.097656 701.117188 169.277344 703.925781 165.914062 L 703.925781 183.917969 Z M 932.652344 226.285156 C 924.59375 246.777344 911.882812 263.355469 890.46875 274.589844 C 899.773438 273.578125 903.132812 272.148438 909.71875 267.359375 C 919.296875 260.359375 925.929688 250.921875 931.730469 240.882812 C 950.242188 208.96875 965.621094 175.261719 986.160156 144.5 C 988.601562 140.816406 987.449219 138.792969 982.566406 136.765625 C 977.457031 134.648438 975.753906 135.152344 974.417969 139.390625 C 973.957031 140.910156 973.957031 142.613281 973.359375 144.085938 C 972.761719 145.515625 972.714844 147.539062 970.179688 148.414062 C 970.457031 141.738281 976.765625 133.449219 964.472656 131.007812 C 960.1875 154.679688 955.8125 178.394531 943.886719 199.804688 C 951.117188 176.734375 958.714844 153.804688 961.476562 129.582031 C 951.484375 129.074219 951.300781 129.074219 950.933594 137.59375 C 950.519531 146.941406 949.089844 156.152344 946.742188 165.175781 C 943.609375 177.195312 940.570312 189.261719 933.941406 201.878906 C 933.34375 196.121094 935.320312 192.667969 936.472656 189.167969 C 941.816406 172.960938 946.234375 156.613281 948.167969 139.621094 C 948.492188 136.671875 949.460938 133.726562 947.523438 131.007812 C 944.394531 132.160156 944.714844 134.371094 944.53125 136.121094 C 942.78125 152.328125 937.070312 167.203125 929.933594 181.707031 C 922.980469 195.847656 916.8125 210.257812 911.882812 225.226562 C 907.832031 237.429688 902.671875 249.171875 894.753906 259.53125 C 894.0625 260.453125 893.003906 261.511719 894.476562 262.894531 C 906.816406 253.914062 912.621094 239.914062 921.230469 228.035156 C 916.625 242.769531 908.0625 254.972656 897.378906 265.933594 C 913.816406 256.722656 922.566406 241.019531 932.558594 226.332031 Z M 833.875 285.964844 C 838.207031 286.839844 841.933594 285.410156 845.617188 284.628906 C 848.933594 283.890625 853.355469 283.476562 854.183594 279.515625 C 855.058594 275.234375 852.34375 271.78125 849.671875 268.371094 C 845.34375 262.800781 841.660156 267.683594 837.191406 269.339844 C 838.757812 266.300781 841.289062 263.582031 836.132812 263.539062 C 830.054688 263.445312 823.929688 263.582031 817.851562 263.582031 C 801.410156 263.582031 788.65625 257.230469 780.921875 242.125 C 779.308594 239.039062 777.558594 233.515625 775.117188 233.835938 C 768.488281 234.710938 773.046875 227.433594 768.992188 226.929688 C 767.382812 226.746094 766.136719 224.394531 763.882812 226.144531 C 762.914062 232.5 767.429688 238.164062 766.96875 245.027344 C 764.988281 242.492188 764.203125 240.144531 763.652344 237.613281 C 762.730469 233.558594 761.671875 229.554688 760.613281 225.5 C 760.289062 224.210938 759.597656 223.152344 758.035156 223.199219 C 756.144531 223.199219 755.085938 224.304688 754.855469 226.101562 C 754.71875 227.34375 754.671875 228.679688 754.855469 229.921875 C 758.308594 248.527344 768.855469 262.109375 783.40625 272.242188 C 786.769531 270.722656 784.695312 265.792969 786.03125 267.175781 C 789.898438 271.273438 788.425781 264.6875 790.5 265.976562 C 790.683594 266.761719 790.914062 267.957031 791.28125 269.109375 C 794.550781 279.746094 798.648438 281.679688 809.054688 277.351562 C 812.648438 275.832031 816.101562 273.992188 820.566406 271.78125 C 817.4375 278.042969 810.804688 277.90625 807.535156 282.324219 C 819.785156 287.34375 830.699219 282.1875 841.933594 279.5625 C 840.691406 283.753906 835.855469 282.1875 833.96875 286.054688 Z M 822.777344 146.988281 C 824.253906 128.015625 827.382812 111.347656 838.894531 97.023438 C 831.207031 93.710938 825.035156 96.378906 818.910156 98.960938 C 813.292969 101.308594 807.859375 103.933594 801.457031 103.609375 C 791.972656 103.148438 791.972656 103.378906 792.386719 113.050781 C 792.386719 113.464844 791.925781 113.925781 791.417969 114.890625 C 790.683594 112.3125 790.085938 110.195312 789.484375 108.078125 C 788.980469 106.371094 789.117188 103.609375 786.308594 104.484375 C 784.003906 105.175781 784.972656 107.617188 784.972656 109.503906 C 784.972656 112.035156 786.953125 114.292969 786.125 116.964844 C 782.808594 114.890625 784.191406 110.378906 781.011719 107.476562 C 776.132812 110.886719 774.058594 115.8125 773.597656 121.199219 C 772.539062 133.542969 773.96875 132.667969 783.316406 131.46875 C 794.320312 130.042969 802.746094 134.1875 808.367188 143.8125 C 809.332031 145.46875 810.300781 147.125 811.359375 148.738281 C 811.820312 149.476562 812.464844 150.074219 813.429688 151.222656 C 813.800781 148.507812 814.074219 146.390625 814.351562 144.039062 C 817.070312 145.789062 814.949219 150.304688 819.046875 150.808594 C 818.449219 141.691406 815.824219 132.757812 816.378906 122.90625 C 820.9375 130.132812 818.542969 138.515625 822.777344 146.941406 Z M 557.078125 87.171875 C 558.6875 85.050781 557.8125 83.070312 556.890625 80.953125 C 555.464844 77.59375 560.992188 78.742188 560.4375 75.796875 C 560.207031 74.554688 560.023438 73.308594 559.746094 72.113281 C 558.964844 68.660156 557.675781 65.25 557.539062 61.796875 C 557.351562 56.960938 554.496094 56.042969 550.628906 55.71875 C 538.195312 54.660156 528.847656 62.902344 528.066406 76.488281 C 527.652344 83.394531 526.730469 89.65625 522.585938 95.460938 C 519.410156 99.972656 519.640625 105.039062 523.644531 110.792969 C 531.886719 92.742188 547.085938 97.855469 561.453125 99.789062 C 560.253906 91.777344 552.65625 90.484375 549.984375 85.007812 C 553.207031 83.855469 554.359375 87.816406 557.078125 87.171875 Z M 652.167969 46.324219 C 655.621094 41.121094 657.507812 35.824219 662.296875 33.847656 C 669.710938 30.808594 673.441406 24.683594 677.265625 18.375 C 680.210938 13.492188 680.164062 12.984375 675.332031 10.777344 C 670.816406 8.65625 665.980469 8.886719 661.191406 8.839844 C 659.949219 8.839844 658.890625 8.980469 657.832031 10.039062 C 655.945312 11.925781 655.621094 11.742188 653.6875 9.253906 C 651.9375 11.925781 655.667969 15.289062 652.675781 17.636719 C 649.449219 13.953125 652.859375 6.261719 645.628906 5.480469 C 639.089844 4.789062 635.542969 9.164062 632.414062 14.550781 C 644.9375 21.414062 647.886719 33.523438 652.167969 46.277344 Z M 667.273438 138.375 C 667.085938 125.527344 669.667969 112.820312 669.4375 99.972656 C 669.296875 93.433594 668.605469 87.171875 665.566406 81.277344 C 663.21875 76.71875 660.640625 72.25 658.476562 67.601562 C 656.449219 63.269531 655.714844 58.527344 654.332031 53.921875 C 649.175781 83.488281 658.015625 110.886719 667.273438 138.375 Z M 764.894531 220.667969 C 775.53125 225.085938 780.503906 234.066406 785.617188 243 C 790.3125 251.152344 797.082031 256.722656 806.476562 258.703125 C 816.46875 260.820312 826.417969 259.945312 837.238281 259.625 C 834.519531 255.617188 831.25 254.925781 828.351562 254.097656 C 810.667969 249.125 795.332031 240.328125 782.671875 226.882812 C 779.816406 223.84375 776.175781 221.679688 772.21875 220.207031 C 770.191406 219.46875 768.074219 218.503906 764.894531 220.621094 Z M 764.894531 220.667969 " fill-opacity="1" fill-rule="nonzero"/><path fill="#ffffff" d="M 859.664062 810.046875 C 856.394531 808.113281 856.902344 804.933594 856.625 802.21875 C 851.835938 756.398438 836.683594 714.035156 813.753906 674.433594 C 789.023438 631.746094 757.757812 594.539062 718.476562 564.328125 C 710.050781 557.835938 701.484375 551.664062 692.136719 546.554688 C 678.691406 539.234375 665.335938 538.585938 652.074219 547.246094 C 634.484375 558.710938 614.914062 558.34375 595.207031 555.902344 C 578.628906 553.875 562.097656 551.433594 545.378906 554.796875 C 537.136719 556.453125 529.355469 559.492188 521.433594 562.027344 C 511.625 565.203125 501.679688 568.011719 491.179688 566.585938 C 484.6875 565.710938 478.515625 564.007812 475.246094 557.375 C 471.332031 549.457031 473.175781 541.027344 480.589844 534.949219 C 483.722656 532.371094 487.359375 530.34375 492.054688 527.214844 C 482.339844 524.359375 474.234375 520.949219 466.867188 516.023438 C 462.261719 512.9375 458.210938 509.394531 455.125 504.789062 C 447.113281 492.769531 446.742188 482.683594 455.078125 470.894531 C 461.710938 461.457031 468.984375 452.523438 474.140625 442.023438 C 477.089844 435.992188 482.800781 433.367188 489.339844 433.550781 C 494.175781 433.6875 496.015625 431.433594 497.441406 427.378906 C 500.527344 418.769531 505.132812 411.03125 512.914062 405.828125 C 516.140625 403.664062 515.953125 401.59375 514.941406 398.554688 C 513.746094 394.914062 513.007812 391.09375 513.007812 387.179688 C 513.007812 376.035156 519.410156 367.515625 530.367188 366.410156 C 541.328125 365.304688 550.722656 361.253906 559.703125 355.3125 C 567.898438 349.925781 576.695312 345.964844 586.871094 347.945312 C 592.121094 348.957031 594.191406 344.722656 597.277344 342.234375 C 598.660156 341.128906 599.210938 338.964844 600.222656 337.355469 C 603.035156 332.980469 606.761719 330.308594 612.242188 331.046875 C 617.355469 331.734375 620.070312 335.050781 621.546875 339.65625 C 623.203125 344.859375 624.167969 350.246094 624.859375 355.636719 C 626.75 370.601562 627.761719 385.707031 630.480469 400.578125 C 633.425781 416.835938 638.492188 432.261719 647.054688 446.488281 C 654.699219 459.105469 662.4375 471.726562 668.285156 485.355469 C 670.957031 491.570312 673.351562 497.742188 673.257812 504.789062 C 673.164062 511.464844 676.390625 517.128906 680.257812 522.378906 C 685.414062 529.378906 691.492188 535.59375 698.078125 541.304688 C 711.15625 552.679688 724.464844 563.824219 737.359375 575.425781 C 796.898438 628.84375 837.699219 693.496094 855.382812 772.054688 C 857.636719 782.09375 859.203125 792.269531 860.125 802.492188 C 860.355469 804.886719 861.046875 807.46875 859.617188 810 Z M 492.195312 460.074219 L 491.964844 460.351562 C 495.140625 455.652344 493.070312 450.402344 493.574219 445.429688 C 493.851562 442.804688 495.648438 439.078125 492.425781 437.554688 C 489.246094 436.035156 485.425781 437.003906 482.246094 438.800781 C 476.996094 441.839844 473.867188 446.949219 475.0625 452.476562 C 478.425781 467.71875 474.234375 479.738281 463.691406 491.019531 C 458.070312 497.050781 460.144531 506.492188 466.773438 511.558594 C 477.226562 519.523438 489.015625 524.265625 502.324219 524.589844 C 506.054688 524.679688 509.554688 523.851562 512.269531 520.261719 C 474.832031 510.082031 472.347656 509.023438 466.589844 501.519531 C 469.953125 501.886719 472.484375 504.050781 475.292969 505.386719 C 487.265625 511.097656 499.792969 514.78125 512.960938 516.300781 C 518.257812 516.898438 521.480469 515.195312 523.597656 509.808594 C 509.785156 505.707031 496.199219 501.792969 484.367188 491.984375 C 488.140625 491.113281 489.660156 493.183594 491.503906 494.152344 C 501.171875 499.261719 511.210938 503.40625 521.804688 506.261719 C 525.347656 507.226562 529.171875 508.425781 531.058594 503.128906 C 524.335938 499.078125 515.910156 499.445312 510.152344 493.921875 C 514.941406 494.566406 519.5 495.902344 524.011719 497.28125 C 530.582031 499.277344 535.464844 499.769531 538.65625 498.753906 C 533.175781 495.578125 528.34375 492.632812 523.414062 489.867188 C 510.476562 482.59375 497.902344 474.949219 492.148438 460.121094 Z M 562.878906 451.554688 C 592.027344 476.882812 623.296875 498.386719 660.363281 510.636719 C 651.660156 499.261719 642.082031 488.992188 630.984375 480.199219 C 622.925781 473.796875 614.867188 467.441406 607.132812 460.628906 C 591.84375 447.179688 580.332031 431.292969 575.542969 411.078125 C 574.070312 404.816406 574.070312 398.414062 573.46875 392.105469 C 573.238281 389.851562 573.425781 387.6875 571.398438 385.980469 C 565.042969 380.59375 554.542969 380.6875 549.480469 386.257812 C 540.085938 396.617188 540.128906 397.402344 550.261719 406.425781 C 552.886719 408.777344 555.648438 411.03125 558.042969 413.609375 C 559.011719 414.625 561.773438 415.316406 559.933594 417.941406 C 555.234375 415.359375 551.503906 411.722656 547.957031 408.085938 C 542.710938 402.742188 537.644531 398.785156 530 403.941406 C 528.296875 405.09375 525.625 404.863281 523.460938 405.414062 C 519.410156 406.425781 514.113281 407.070312 512.871094 411.078125 C 511.625 414.945312 516.875 416.925781 519.222656 419.78125 C 521.066406 421.992188 523.367188 423.832031 525.164062 426.089844 C 526.683594 427.976562 529.492188 429.269531 529.308594 434.839844 C 522.863281 427.933594 517.84375 422.5 512.777344 417.109375 C 511.535156 415.820312 510.246094 413.703125 508.125 415.683594 C 506.238281 417.433594 505.871094 419.503906 507.851562 421.53125 C 509.417969 423.144531 510.9375 424.800781 512.5 426.414062 C 522.585938 437.28125 534.144531 446.535156 545.289062 456.207031 C 547.683594 458.324219 549.9375 460.628906 552.242188 462.835938 C 534.144531 451.785156 518.671875 437.972656 504.074219 421.761719 C 499.46875 429.542969 497.535156 437.140625 498.273438 445.246094 C 499.421875 457.816406 506.421875 466.0625 518.394531 469.605469 C 528.574219 472.644531 535.941406 478.449219 540.683594 487.980469 C 542.984375 492.585938 546.714844 496.269531 551.183594 499.03125 C 572.964844 512.617188 596.769531 521.136719 621.546875 526.984375 C 629.328125 528.824219 637.570312 530.574219 645.859375 527.949219 C 629.511719 525.371094 613.300781 522.285156 598.015625 515.839844 C 582.910156 509.4375 567.945312 502.761719 555.097656 492.171875 C 557.628906 492.585938 559.839844 493.691406 561.957031 494.886719 C 574.574219 501.980469 587.5625 508.332031 601.054688 513.539062 C 618.921875 520.492188 637.476562 523.804688 656.632812 523.992188 C 660.777344 523.992188 664.96875 524.21875 665.660156 518.1875 C 659.859375 517.035156 654.285156 515.886719 648.621094 514.828125 C 642.589844 513.722656 636.789062 511.832031 631.078125 509.714844 C 625.644531 507.734375 620.253906 505.664062 614.960938 503.3125 C 609.386719 500.828125 603.953125 498.066406 598.566406 495.210938 C 593.914062 492.722656 589.171875 490.238281 585.71875 486 C 604.367188 495.855469 623.203125 504.742188 643.742188 509.578125 C 613.945312 494.058594 585.535156 476.789062 562.925781 451.417969 Z M 588.113281 359.597656 C 586.316406 359.824219 586.085938 360.746094 585.902344 361.574219 C 582.21875 377.832031 582.449219 393.535156 593.085938 407.441406 C 601.144531 417.984375 607.316406 429.496094 612.152344 441.839844 C 617.816406 456.390625 626.335938 469.054688 637.664062 479.921875 C 644.617188 486.597656 650.96875 493.828125 657.695312 500.734375 C 659.121094 502.210938 660.042969 504.511719 662.941406 504.648438 C 662.804688 500.917969 660.824219 497.925781 659.398438 494.839844 C 652.582031 480.199219 643.050781 467.257812 633.148438 454.59375 C 622.097656 440.410156 611.550781 425.859375 602.066406 410.570312 C 600.316406 407.71875 597.921875 405.046875 597.738281 400.347656 C 601.097656 402.511719 602.113281 405.230469 603.632812 407.488281 C 612.613281 421.210938 621.960938 434.609375 632.089844 447.503906 C 645.8125 464.957031 658.9375 482.730469 667.226562 503.589844 C 667.410156 504.050781 668.148438 504.28125 668.929688 504.878906 C 670.355469 499.445312 668.46875 494.703125 666.535156 490.050781 C 661.652344 478.125 655.300781 466.980469 648.667969 456.023438 C 641.667969 444.464844 634.898438 432.8125 631.445312 419.597656 C 629.234375 411.214844 626.378906 403.066406 623.710938 394.824219 C 620.898438 386.210938 618.046875 377.507812 618.460938 368.113281 C 619.703125 371.0625 620.898438 374.007812 622.972656 378.9375 C 623.523438 370.464844 622.464844 364.476562 621.773438 358.445312 C 621.085938 352.6875 620.394531 346.933594 618.597656 341.453125 C 616.894531 336.109375 613.902344 333.945312 609.574219 334.683594 C 604.828125 335.464844 602.25 338.644531 601.835938 343.25 C 601.558594 346.425781 601.605469 349.742188 602.25 352.828125 C 603.632812 359.734375 605.703125 366.503906 607.039062 373.457031 C 607.777344 377.277344 610.21875 380.917969 608.652344 386.394531 C 602.527344 373.457031 600.824219 360.472656 597.828125 347.761719 C 592.121094 350.523438 590.96875 354.300781 591.980469 359.367188 C 593.363281 366.6875 596.308594 373.457031 598.75 380.410156 C 599.855469 383.496094 602.066406 386.394531 600.914062 391.277344 C 594.421875 380.730469 591.75 369.863281 588.207031 359.597656 Z M 659.027344 531.589844 C 638.398438 534.027344 618.734375 531.449219 599.441406 524.496094 C 584.335938 519.0625 569.28125 513.539062 554.867188 506.445312 C 550.125 504.097656 546.4375 504.605469 542.480469 507.734375 C 537.089844 512.019531 532.761719 517.128906 529.675781 523.207031 C 523 536.5625 512.457031 542.457031 497.535156 540.84375 C 492.792969 540.335938 487.863281 540.566406 483.492188 543.191406 C 479.578125 545.496094 477.320312 548.902344 477.640625 553.507812 C 477.964844 557.929688 481.097656 560.230469 484.871094 561.613281 C 486.667969 562.257812 488.554688 562.671875 490.445312 562.949219 C 505.273438 565.066406 518.304688 559.402344 531.425781 553.785156 C 518.949219 552.308594 506.605469 553.875 494.175781 554.105469 C 495.921875 552.769531 497.71875 551.988281 499.5625 551.757812 C 524.796875 548.625 550.125 548.855469 575.402344 550.238281 C 587.882812 550.929688 600.222656 553.371094 612.75 553.644531 C 625.550781 553.96875 637.664062 551.851562 648.714844 545.035156 C 653.6875 541.949219 657.921875 538.21875 658.84375 531.542969 Z M 586.871094 351.628906 C 577.660156 349.742188 570.984375 352.964844 564.582031 356.601562 C 555.972656 361.484375 548.003906 367.699219 537.734375 368.988281 C 534.28125 369.402344 536.078125 373.132812 535.296875 373.59375 C 532.53125 375.113281 531.75 368.621094 530.230469 370.648438 C 527.742188 373.917969 523.875 371.382812 521.664062 374.101562 C 519.640625 376.585938 517.382812 378.9375 516.96875 382.296875 C 516.277344 387.410156 516.460938 392.519531 517.703125 397.585938 C 518.625 401.269531 520.515625 403.203125 524.566406 401.683594 C 532.300781 398.828125 539.484375 395.652344 544.183594 387.960938 C 549.800781 378.753906 554.914062 377.234375 564.351562 379.441406 C 567.53125 380.179688 571.121094 384.230469 573.839844 380.960938 C 576.324219 378.015625 572.78125 374.46875 571.488281 371.292969 C 571.351562 371.015625 571.304688 370.695312 571.214844 370.371094 C 571.03125 369.542969 571.257812 369.082031 571.90625 369.035156 C 573.101562 369.957031 574.34375 370.878906 576.09375 372.214844 C 578.582031 364.984375 582.726562 358.996094 586.960938 351.722656 Z M 580.148438 375.941406 C 570.386719 403.019531 584.9375 444.140625 619.886719 464.863281 C 613.808594 454.503906 609.296875 444.28125 605.058594 433.964844 C 602.617188 428.023438 599.71875 422.222656 595.710938 417.203125 C 586.085938 405.136719 579.273438 392.058594 580.148438 375.941406 Z M 537.691406 505.847656 C 532.164062 507.828125 528.386719 511.742188 524.566406 515.5625 C 517.472656 522.746094 509.554688 528.226562 499.238281 529.976562 C 493.4375 530.945312 487.589844 532.878906 482.847656 538.910156 C 490.214844 536.976562 496.570312 537.207031 502.96875 537.390625 C 511.996094 537.667969 519.085938 533.984375 523.785156 526.15625 C 528.019531 519.109375 532.257812 512.0625 537.734375 505.753906 Z M 456.78125 498.664062 C 458.53125 490.28125 463.734375 484.800781 468.570312 478.953125 C 473.820312 472.554688 473.636719 465.324219 471.058594 457.449219 C 454.800781 473.289062 447.527344 486.96875 456.78125 498.664062 Z M 498.273438 460.441406 C 504.628906 479.828125 523.230469 484.15625 538.058594 493.183594 C 534.835938 483.46875 529.261719 476.515625 519.085938 473.566406 C 511.027344 471.265625 503.796875 467.121094 498.273438 460.441406 Z M 498.273438 460.441406 " fill-opacity="1" fill-rule="nonzero"/><path fill="#ffffff" d="M 861.597656 250.230469 C 859.480469 223.613281 862.289062 197.367188 869.242188 171.53125 C 865.375 197.597656 863.164062 223.84375 861.597656 250.230469 Z M 861.597656 250.230469 " fill-opacity="1" fill-rule="nonzero"/><path fill="#ffffff" d="M 830.605469 210.167969 C 824.574219 198.886719 819.785156 187.003906 820.339844 173.742188 C 822.964844 186.039062 827.613281 197.78125 830.605469 210.167969 Z M 830.605469 210.167969 " fill-opacity="1" fill-rule="nonzero"/><path fill="#ffffff" d="M 578.859375 28.042969 C 583.1875 30.578125 585.949219 34.492188 588.160156 38.910156 C 584.199219 36.054688 580.332031 33.203125 578.257812 28.550781 C 578.257812 28.550781 578.8125 27.996094 578.8125 27.996094 Z M 578.859375 28.042969 " fill-opacity="1" fill-rule="nonzero"/><path fill="#ffffff" d="M 586.179688 111.621094 C 581.941406 109.964844 579.824219 107.386719 576.96875 104.945312 C 581.757812 105.867188 581.804688 105.820312 586.179688 111.621094 Z M 586.179688 111.621094 " fill-opacity="1" fill-rule="nonzero"/><path fill="#ffffff" d="M 595.574219 118.714844 C 591.707031 117.746094 590.1875 115.996094 587.421875 113.003906 C 591.707031 113.878906 593.316406 115.535156 595.574219 118.714844 Z M 595.574219 118.714844 " fill-opacity="1" fill-rule="nonzero"/><path fill="#ffffff" d="M 534.238281 109.320312 C 539.210938 111.117188 543.03125 114.429688 546.070312 118.667969 L 545.703125 119.082031 C 540.867188 117.054688 536.585938 114.292969 534.238281 109.320312 Z M 534.238281 109.320312 " fill-opacity="1" fill-rule="nonzero"/><path fill="#ffffff" d="M 605.660156 167.113281 C 601.191406 167.066406 599.996094 162.78125 597.277344 160.480469 C 600.914062 161.632812 603.953125 163.519531 605.472656 167.296875 Z M 605.660156 167.113281 " fill-opacity="1" fill-rule="nonzero"/><path fill="#ffffff" d="M 605.472656 167.296875 C 609.480469 168.125 612.011719 170.933594 614.222656 174.109375 C 610.585938 172.730469 606.992188 171.300781 605.660156 167.113281 C 605.660156 167.113281 605.472656 167.296875 605.472656 167.296875 Z M 605.472656 167.296875 " fill-opacity="1" fill-rule="nonzero"/><path fill="#ffffff" d="M 546.023438 118.714844 C 548.878906 119.40625 550.8125 121.109375 553.070312 124.882812 C 549.109375 123.132812 546.761719 121.984375 545.609375 119.128906 C 545.609375 119.128906 545.980469 118.714844 545.980469 118.714844 Z M 546.023438 118.714844 " fill-opacity="1" fill-rule="nonzero"/><path fill="#ffffff" d="M 721.976562 159.328125 C 723.957031 139.667969 724.832031 120.050781 722.253906 100.292969 C 719.722656 80.953125 713.503906 62.441406 710.328125 43.332031 C 723.265625 81.09375 732.9375 119.21875 722.023438 159.328125 Z M 721.976562 159.328125 " fill-opacity="1" fill-rule="nonzero"/><path fill="#ffffff" d="M 689.328125 122.03125 C 685.597656 120.695312 686.613281 118.023438 687.210938 115.121094 C 689.191406 117.378906 688.222656 120.050781 689.144531 122.214844 Z M 689.328125 122.03125 " fill-opacity="1" fill-rule="nonzero"/><path fill="#ffffff" d="M 689.144531 122.214844 C 690.113281 124.46875 690.988281 126.679688 689.421875 130.089844 C 688.269531 126.863281 688.085938 124.515625 689.28125 122.03125 C 689.28125 122.03125 689.144531 122.214844 689.144531 122.214844 Z M 689.144531 122.214844 " fill-opacity="1" fill-rule="nonzero"/><path fill="#ffffff" d="M 817.667969 242.539062 C 809.285156 234.664062 806.570312 223.84375 801.917969 214.035156 C 802.5625 213.714844 803.207031 213.390625 803.851562 213.066406 C 808.503906 222.832031 813.199219 232.59375 817.851562 242.355469 C 817.851562 242.355469 817.667969 242.539062 817.667969 242.539062 Z M 817.667969 242.539062 " fill-opacity="1" fill-rule="nonzero"/><path fill="#ffffff" d="M 612.105469 473.75 C 604.136719 471.769531 598.058594 466.707031 591.660156 462.238281 C 586.5 458.648438 581.527344 454.777344 578.074219 448.929688 C 583.785156 453.121094 589.496094 457.265625 595.160156 461.457031 C 600.777344 465.554688 606.441406 469.652344 612.105469 473.75 Z M 612.105469 473.75 " fill-opacity="1" fill-rule="nonzero"/><path fill="#ffffff" d="M 569.140625 403.433594 C 564.351562 400.71875 560.53125 397.035156 557.722656 392.382812 C 562.511719 395.097656 566.378906 398.691406 569.140625 403.433594 Z M 569.140625 403.433594 " fill-opacity="1" fill-rule="nonzero"/><path fill="#ffffff" d="M 603.679688 504.605469 C 599.578125 503.683594 597.460938 502.625 595.804688 499.953125 C 598.75 500.414062 600.683594 501.792969 603.679688 504.605469 Z M 603.679688 504.605469 " fill-opacity="1" fill-rule="nonzero"/><path fill="#ffffff" d="M 624.167969 540.292969 C 599.121094 537.4375 575.3125 530.988281 553.851562 517.128906 C 557.03125 518.554688 560.160156 520.078125 563.386719 521.457031 C 585.996094 531.402344 609.296875 537.941406 634.347656 536.054688 C 638.492188 535.734375 642.636719 535.503906 646.59375 533.84375 C 648.851562 532.921875 651.429688 532.234375 654.652344 534.582031 C 619.933594 550.515625 585.949219 548.671875 551.964844 534.8125 C 575.726562 540.429688 599.394531 546.921875 624.214844 540.335938 Z M 624.167969 540.292969 " fill-opacity="1" fill-rule="nonzero"/><path fill="#ffffff" d="M 548.003906 541.902344 C 542.617188 542.917969 537.230469 544.023438 530.277344 540.476562 C 537.507812 541.074219 542.753906 541.488281 548.003906 541.902344 Z M 548.003906 541.902344 " fill-opacity="1" fill-rule="nonzero"/><path fill="#ffffff" d="M 492.195312 460.074219 C 489.753906 460.628906 487.542969 460.535156 484.410156 456.574219 C 488.234375 458.234375 490.628906 457.910156 491.917969 460.351562 C 491.917969 460.351562 492.195312 460.074219 492.195312 460.074219 Z M 492.195312 460.074219 " fill-opacity="1" fill-rule="nonzero"/></svg>