<svg xmlns="http://www.w3.org/2000/svg" xmlns:xlink="http://www.w3.org/1999/xlink" width="500" zoomAndPan="magnify" viewBox="0 0 375 374.999991" height="500" preserveAspectRatio="xMidYMid meet" version="1.0"><defs><clipPath id="8220014519"><path d="M 172 7 L 332 7 L 332 353 L 172 353 Z M 172 7 " clip-rule="nonzero"/></clipPath><clipPath id="5541fd3555"><path d="M 120.070312 57.605469 L 316.578125 0.0976562 L 411.789062 325.449219 L 215.28125 382.957031 Z M 120.070312 57.605469 " clip-rule="nonzero"/></clipPath><clipPath id="404542d3d6"><path d="M 120.070312 57.605469 L 316.578125 0.0976562 L 411.789062 325.449219 L 215.28125 382.957031 Z M 120.070312 57.605469 " clip-rule="nonzero"/></clipPath></defs><g clip-path="url(#8220014519)"><g clip-path="url(#5541fd3555)"><g clip-path="url(#404542d3d6)"><path fill="#ffffff" d="M 331.558594 50.164062 C 331.519531 50.03125 331.390625 50.015625 331.191406 50.074219 C 330.710938 50.214844 329.828125 50.800781 328.867188 51.328125 C 323.371094 54.347656 309.398438 56.785156 297.855469 66.40625 C 293.554688 69.988281 289.378906 73.878906 286.386719 78.652344 C 277.175781 93.339844 279.636719 104.867188 280.878906 115.855469 C 281.6875 122.996094 281.488281 127.859375 277.324219 136.484375 C 273.40625 144.609375 273.601562 143.253906 270.859375 147.320312 C 271.734375 140.394531 271.734375 131.824219 271.15625 126.035156 C 269.71875 111.621094 267.617188 109.664062 267.347656 94.058594 C 268.808594 90.148438 271.457031 84.941406 274.144531 81.742188 C 279.078125 75.871094 291.53125 66.992188 295.070312 55.125 C 296.035156 51.890625 296.265625 48.496094 296.378906 45.140625 C 296.703125 35.335938 294.867188 26.398438 292.644531 9.167969 C 292.597656 8.785156 292.519531 8.394531 292.425781 8.070312 C 292.285156 7.59375 292.101562 7.257812 291.902344 7.316406 C 291.804688 7.34375 291.703125 7.46875 291.601562 7.714844 C 291.054688 8.300781 289.921875 11.5625 288.878906 13.808594 C 280.175781 32.523438 269.671875 39.238281 264.691406 50.46875 C 260.136719 60.730469 260.375 72.421875 263.523438 83.183594 C 263.875 84.382812 264.261719 85.574219 264.683594 86.746094 C 265.03125 87.71875 265.386719 88.683594 265.671875 89.664062 C 265.945312 90.589844 266.15625 91.527344 266.246094 92.507812 C 266.089844 93.671875 266.085938 94.863281 266.003906 96.035156 C 264.871094 111.984375 270.996094 116.492188 269.347656 143.632812 C 268.691406 154.441406 265.972656 164.964844 263.203125 175.472656 C 262.421875 178.433594 261.65625 181.402344 260.820312 184.351562 C 261.136719 178.867188 261.277344 173.433594 260.027344 168.105469 C 260.039062 167.867188 259.871094 165.964844 260.09375 164.285156 C 261.269531 155.316406 270.394531 144.164062 263.425781 120.359375 C 263.136719 119.367188 262.820312 118.355469 262.472656 117.324219 C 257.320312 101.972656 246.269531 93.214844 240.234375 83.761719 C 239.757812 83.015625 239.359375 82.804688 239.117188 82.878906 C 238.929688 82.933594 238.835938 83.15625 238.867188 83.433594 C 238.730469 84.320312 239.632812 89.460938 237.0625 100.179688 C 234.390625 111.316406 231.710938 124.328125 234.980469 135.5 C 239.894531 152.300781 254.289062 153.152344 258.226562 166.601562 C 260.632812 174.824219 258.988281 185.050781 258.980469 190.460938 C 256.609375 197.789062 252.558594 209.242188 249.828125 222.535156 C 245.84375 241.953125 246.0625 247.382812 247.757812 259.457031 C 246.128906 255.710938 244.320312 252.148438 241.960938 248.851562 C 241.886719 248.640625 241.816406 248.425781 241.753906 248.207031 C 238.84375 238.261719 247.113281 219.820312 243.046875 205.929688 C 239.503906 193.816406 230.050781 186.59375 225.671875 180.761719 C 222.785156 176.914062 220.652344 172.363281 217.28125 168.867188 C 213.632812 165.082031 209.542969 161.765625 205.648438 158.242188 C 202.167969 155.09375 199.144531 151.21875 195.460938 148.207031 C 193.730469 146.792969 188.257812 142.726562 187.269531 142.089844 C 186.625 141.675781 186.117188 141.480469 185.804688 141.574219 C 185.484375 141.667969 185.371094 142.070312 185.539062 142.847656 C 186.371094 146.753906 189.144531 154.757812 189.332031 162.773438 C 189.433594 167.054688 189.46875 171.34375 189.496094 175.628906 C 189.554688 185.160156 188.988281 192.210938 191.808594 201.847656 C 192.46875 204.101562 193.3125 206.496094 194.390625 209.097656 C 195.886719 212.691406 197.519531 216.273438 199.757812 219.472656 C 201.941406 222.59375 204.507812 225.460938 207.464844 227.871094 C 213.164062 232.523438 220.730469 235.277344 223.046875 236.449219 C 236.148438 243.070312 238.871094 246.195312 245.640625 259.101562 C 246.644531 261.019531 247.808594 263.269531 248.789062 265.730469 C 249.386719 268.890625 250.148438 272.019531 251.054688 275.109375 C 254.164062 285.742188 258.964844 295.941406 264.597656 305.394531 C 262.328125 303.175781 259.902344 301.101562 257.28125 299.320312 C 251.800781 293.917969 251.269531 292.054688 249.03125 286.039062 C 240.175781 262.21875 229.855469 260.179688 222.730469 255.265625 C 218.566406 252.394531 211.90625 246.234375 200.703125 244.394531 C 190.992188 242.800781 186.773438 243.515625 176.445312 236.164062 C 173.800781 234.28125 173.125 233.140625 172.488281 233.324219 C 172.101562 233.4375 172.003906 234.015625 172.128906 234.4375 C 173.9375 240.621094 175.402344 246.605469 177.035156 252.179688 C 179.554688 260.785156 182.46875 268.410156 187.664062 274.265625 C 191.210938 278.265625 196.285156 280.4375 200.199219 284.019531 C 218.742188 300.988281 234.421875 290.472656 251.683594 298.457031 C 261.59375 303.046875 268.210938 311.859375 268.953125 312.503906 C 282.324219 333.003906 299.089844 344.363281 320.808594 352.164062 C 320.976562 352.222656 321.148438 352.222656 321.308594 352.175781 C 321.738281 352.050781 322.070312 351.59375 321.917969 351.066406 C 321.488281 349.601562 307.804688 346.574219 291.941406 334.292969 C 290.960938 333.136719 289.507812 331.050781 288.738281 329.566406 C 287.515625 327.199219 286.523438 324.550781 285.71875 321.800781 C 284.523438 317.726562 283.742188 313.429688 283.222656 309.503906 C 282.144531 301.359375 282.152344 303.835938 290.152344 291.007812 C 293.648438 285.402344 297.3125 279.753906 299.316406 273.40625 C 301.800781 265.523438 301.808594 257.714844 299.679688 250.449219 C 298.953125 247.957031 297.972656 245.53125 296.757812 243.183594 C 285.039062 220.59375 277.515625 216.726562 272.515625 208.332031 C 271.539062 206.695312 270.867188 205.195312 270.300781 205.363281 C 269.714844 205.535156 269.378906 207.488281 268.613281 210.542969 C 265.734375 222.035156 265.621094 222.113281 266.765625 233.902344 C 268.050781 247.164062 263.773438 252.699219 268.0625 267.355469 C 269.445312 272.078125 271.714844 277.75 275.351562 284.929688 C 277.023438 288.238281 278.769531 291.554688 279.828125 295.121094 C 279.84375 295.175781 279.859375 295.226562 279.875 295.28125 C 281.980469 302.476562 281.046875 306.144531 281.839844 312.164062 C 282.230469 315.113281 282.84375 318.222656 283.730469 321.25 C 284.75 324.734375 286.128906 328.113281 287.941406 331.011719 C 281.816406 325.695312 276.3125 319.613281 271.777344 312.90625 C 268.464844 308.003906 265.242188 303.003906 262.554688 297.726562 C 257.21875 287.25 255.453125 283.136719 253.382812 276.066406 C 250.738281 267.019531 248.972656 257.644531 248.632812 248.21875 C 247.914062 228.160156 258.109375 201.273438 262.820312 184.652344 C 266.253906 178.15625 270.617188 173.183594 272.949219 170.261719 C 272.957031 170.257812 272.964844 170.257812 272.972656 170.253906 C 273.527344 170.09375 274.113281 169.289062 278.222656 167.800781 C 294.503906 161.898438 300.273438 159.625 309.554688 150.90625 C 318.496094 142.503906 323.558594 135.203125 326.46875 122.0625 C 327.367188 118 329.230469 111.625 328.957031 110.691406 C 328.925781 110.585938 328.859375 110.554688 328.746094 110.585938 C 328.09375 110.777344 325.859375 113.132812 319.761719 116.023438 C 301.132812 124.863281 285.101562 125.285156 279.082031 154.214844 C 276.378906 167.203125 272.304688 167.144531 264.488281 178.601562 C 268.378906 164.234375 269.328125 158.25 270.355469 151.015625 C 271.613281 148.660156 273.683594 146.414062 274.988281 144.390625 C 278.394531 139.121094 281.589844 131.988281 282.433594 125.984375 C 282.570312 125.871094 282.675781 125.707031 282.71875 125.527344 C 285.25 120.148438 295.777344 111.972656 303.421875 104.460938 C 310.128906 97.871094 312.871094 92.878906 317.871094 82.964844 C 319.96875 78.800781 321.5 74.402344 323.230469 70.082031 C 324.09375 67.925781 325 65.785156 325.765625 63.589844 C 328.9375 54.453125 331.796875 50.976562 331.558594 50.164062 Z M 266.851562 73.324219 C 267.394531 69.734375 268.6875 66.292969 269.5625 62.773438 C 270.25 60.007812 270.335938 57.136719 271.046875 54.382812 C 271.921875 50.988281 273.160156 47.546875 274.734375 44.398438 C 277.308594 39.246094 283.019531 34.128906 287.878906 21.550781 C 286.527344 28.550781 286.773438 29.550781 282.953125 36.375 C 281.050781 39.769531 278.925781 43.027344 277.039062 46.425781 C 273.550781 52.710938 274.101562 58.109375 272.46875 63.949219 C 270.628906 70.527344 267.265625 74.972656 266.574219 85.554688 C 266.164062 82.757812 266.152344 77.957031 266.851562 73.324219 Z M 268.53125 85.171875 C 271.019531 75.914062 274.972656 70.230469 277.558594 63.917969 C 279.300781 59.671875 279.996094 55.105469 281.3125 50.730469 C 284.527344 40.050781 289.371094 36.507812 290.832031 22.585938 C 290.886719 24.902344 291 27.230469 290.746094 29.546875 C 289.890625 37.3125 288.453125 39.984375 287.191406 43.230469 C 285.199219 48.332031 284.996094 53.890625 283.453125 59.117188 C 282.441406 62.535156 280.675781 65.65625 278.828125 68.683594 C 275.539062 74.078125 272.050781 76.757812 268.53125 85.171875 Z M 267.765625 83.351562 C 268.625 74.292969 272.148438 69.785156 273.820312 62.621094 C 275.285156 56.363281 274.605469 53.125 278.132812 46.5 C 280.855469 41.390625 284.246094 36.640625 286.511719 31.292969 C 288.394531 26.847656 288.371094 23.753906 290.003906 17.226562 C 287.960938 40.96875 283.085938 38.421875 279.578125 52.558594 C 278.230469 58 276.789062 63.457031 274.101562 68.425781 C 271.535156 73.171875 269.265625 78.160156 267.765625 83.351562 Z M 279.574219 70.332031 C 286.359375 59.601562 285.496094 53.921875 286.949219 47.636719 C 287.839844 43.792969 289.695312 40.253906 290.605469 36.410156 C 292.378906 28.933594 291.714844 26.167969 291.792969 19.507812 C 292.15625 23.035156 293.703125 32.289062 291.929688 39.664062 C 291.304688 42.257812 290.542969 44.816406 290.085938 47.476562 C 289.589844 50.339844 289.25 53.230469 288.625 56.070312 C 287.109375 62.96875 280.398438 70.023438 275.789062 75.472656 C 277.09375 73.796875 278.449219 72.105469 279.574219 70.332031 Z M 272.828125 46.351562 C 267.941406 59.234375 270.257812 58.414062 267.976562 65.085938 C 266.242188 70.164062 265.164062 75.496094 265.273438 80.855469 C 264.164062 71.398438 265.105469 68.308594 266 63.320312 C 269.71875 42.609375 274.148438 45.15625 284.410156 26.785156 C 279.308594 37.289062 275.023438 40.558594 272.828125 46.351562 Z M 276.113281 76.875 C 281.425781 70.496094 285.03125 66.683594 287.566406 61.9375 C 289.742188 57.867188 290.335938 53.285156 290.992188 48.792969 C 291.980469 42.03125 293.738281 40.261719 293.746094 31.21875 C 293.964844 33.242188 294.144531 35.277344 294.347656 37.316406 C 296.503906 58.863281 286.628906 66.433594 276.113281 76.875 Z M 269.429688 45.859375 C 274.167969 38.476562 278.429688 34.964844 284.324219 25.429688 C 275.589844 40.882812 270.34375 44.601562 266.9375 53.214844 C 266.113281 55.300781 265.777344 57.539062 265.460938 59.75 C 264.617188 65.585938 263.523438 69.9375 263.9375 76.828125 C 261.675781 65.335938 263.949219 54.398438 269.429688 45.859375 Z M 239.496094 95.769531 C 239.644531 94.507812 239.894531 93.261719 240.011719 92 C 240.011719 92.136719 239.59375 97.320312 239.527344 99.777344 C 239.433594 103.429688 240.199219 107.050781 239.960938 110.699219 C 239.664062 115.238281 239.15625 119.78125 239.542969 124.339844 C 239.800781 127.371094 240.363281 130.183594 241.125 132.796875 C 244.050781 142.792969 249.964844 149.84375 253.355469 155.140625 C 248.113281 149.238281 243.019531 144.421875 240.507812 137.714844 C 240.019531 136.410156 239.621094 135.214844 239.289062 134.089844 C 237.824219 129.085938 237.796875 125.515625 237.882812 120.21875 C 238.058594 109.96875 237.765625 110.515625 239.496094 95.769531 Z M 244.238281 92.585938 C 245.410156 94.390625 246.464844 96.320312 247.660156 98.121094 C 250.253906 102.023438 252.179688 106.34375 253.628906 110.789062 C 253.75 111.152344 253.859375 111.519531 253.96875 111.882812 C 254.914062 115.113281 255.472656 118.464844 256.417969 121.695312 C 257.667969 125.96875 258.664062 126.871094 260.054688 131.621094 C 262.628906 140.421875 261.140625 147.042969 259.917969 151.929688 C 259.816406 147.265625 258.917969 138.800781 257.378906 133.542969 C 256.347656 130.007812 254.921875 126.914062 253.796875 123.066406 C 253.179688 120.953125 252.648438 118.613281 252.320312 115.84375 C 251.890625 112.214844 251.359375 109.542969 250.726562 107.375 C 248.8125 100.832031 245.957031 98.871094 242.109375 89.003906 C 242.769531 90.328125 243.300781 91.152344 244.238281 92.585938 Z M 245.082031 139.757812 C 243.738281 136.863281 242.757812 134.238281 242.054688 131.835938 C 239.363281 122.640625 240.71875 116.675781 240.980469 110.949219 C 241.121094 107.820312 240.769531 105.222656 240.609375 102.152344 C 241.003906 104.277344 241.742188 106.324219 242.125 108.449219 C 243.359375 115.328125 241.449219 120.960938 243.777344 128.921875 C 246.527344 138.316406 253.351562 146.535156 256.664062 157.867188 C 256.796875 158.3125 256.921875 158.761719 257.039062 159.214844 C 251.472656 149.523438 248.015625 146.066406 245.082031 139.757812 Z M 241.164062 97.523438 C 241.054688 95.753906 240.953125 93.988281 240.890625 92.222656 C 241.046875 92.894531 241.226562 93.570312 241.421875 94.246094 C 243.046875 99.796875 245.917969 105.289062 247.324219 110.097656 C 249.996094 119.234375 248.648438 127.566406 251.097656 135.933594 C 252.5625 140.945312 254.796875 144.792969 256.285156 149.875 C 256.90625 151.996094 257.394531 154.328125 257.644531 157.054688 C 257.628906 156.992188 257.609375 156.929688 257.59375 156.871094 C 255.25 148.859375 250.566406 141.988281 248.660156 137.988281 C 246.957031 134.414062 245.761719 131.785156 244.953125 129.027344 C 244.1875 126.410156 243.769531 123.675781 243.589844 119.902344 C 243.429688 116.542969 243.808594 113.15625 243.484375 109.800781 C 243.09375 105.757812 241.558594 103.894531 241.164062 97.523438 Z M 255.902344 132.144531 C 258.164062 139.875 259.027344 148.152344 258.636719 155.511719 C 258.339844 153 257.871094 150.867188 257.296875 148.910156 C 255.898438 144.125 253.878906 140.40625 252.257812 134.867188 C 252.078125 134.246094 251.902344 133.601562 251.730469 132.933594 C 249.839844 125.492188 251.003906 118.054688 248.6875 110.132812 C 246.824219 103.761719 244.09375 98.894531 242.386719 93.058594 C 242.105469 92.097656 241.851562 91.109375 241.632812 90.085938 C 244.46875 97.554688 248.226562 101.144531 250.046875 107.363281 C 251.613281 112.710938 251.039062 116.832031 253.0625 123.746094 C 254.125 127.378906 254.652344 127.878906 255.902344 132.144531 Z M 247.976562 96.191406 C 254.179688 103.566406 258.828125 112.015625 261.464844 121.019531 C 263.640625 128.460938 264.445312 136.285156 263.609375 144.203125 C 263.121094 148.820312 261.328125 153.09375 259.949219 157.480469 C 260.289062 155.445312 260.726562 153.464844 261.246094 151.449219 C 261.296875 151.253906 264.226562 141.367188 261.429688 131.800781 C 260.15625 127.449219 258.296875 124.042969 257.332031 120.738281 C 256.230469 116.980469 255.949219 114.355469 255 111.101562 C 253.914062 107.390625 251.953125 102.867188 246.902344 94.910156 Z M 236.675781 135.195312 C 235.207031 130.179688 234.71875 123.644531 235.8125 114.597656 C 236.214844 111.265625 236.933594 107.984375 237.65625 104.707031 C 235.722656 124.042969 237.4375 131.949219 238.136719 134.332031 C 238.265625 134.78125 238.363281 135.03125 238.390625 135.128906 C 240.476562 142.261719 243.78125 146.511719 248.71875 151.625 C 243.832031 147.3125 239.007812 143.175781 236.675781 135.195312 Z M 214.722656 182.910156 C 221.441406 192.605469 231.992188 207.527344 234.839844 217.257812 C 237.703125 227.039062 236.039062 232.4375 237.757812 241.4375 C 236.566406 237.320312 236.453125 233.085938 235.378906 228.675781 C 234.703125 225.914062 233.976562 223.15625 233.175781 220.421875 C 232.691406 218.773438 232.183594 217.132812 231.644531 215.503906 C 229.007812 207.539062 224.867188 204.714844 222.679688 201.128906 C 219.5625 196.023438 217.25 190.421875 213.457031 185.730469 C 208.363281 179.4375 205.570312 177.640625 201.578125 170.398438 C 198.339844 164.519531 197.933594 157.574219 192.476562 149.277344 C 194.792969 152.003906 198.691406 155.785156 201.726562 161.730469 C 203.558594 165.320312 204.988281 169.121094 207.070312 172.578125 C 209.289062 176.257812 212.277344 179.382812 214.722656 182.910156 Z M 211.453125 205.0625 C 208.851562 199.851562 207.015625 194.109375 203.660156 189.269531 C 199.476562 183.234375 197.640625 179.550781 196.546875 175.816406 C 195.082031 170.8125 194.878906 165.328125 192.496094 157.1875 C 191.773438 154.710938 190.847656 151.992188 189.621094 148.964844 C 194.890625 160.144531 196.644531 170.261719 201.835938 180.195312 C 204.742188 185.761719 208.96875 190.449219 212.945312 195.25 C 225.699219 210.652344 229.121094 228.511719 235.253906 240.527344 C 229.449219 232.695312 228.503906 228.742188 225.195312 223.292969 C 220.5625 215.675781 214.722656 211.613281 211.453125 205.0625 Z M 194.125 177.878906 C 192.199219 171.304688 192.675781 164.609375 191.664062 158.160156 C 193.402344 164.683594 194.074219 170.753906 195.722656 176.386719 C 198.570312 186.117188 203.085938 189.105469 206.226562 196.308594 C 208.089844 200.585938 209.625 205.039062 212.167969 208.992188 C 215.890625 214.78125 221.183594 217.605469 227.929688 231.246094 C 228.984375 233.378906 230.203125 235.429688 231.472656 237.441406 C 226.6875 233.195312 224.121094 231.039062 222.007812 228.519531 C 219.628906 225.675781 217.859375 222.386719 215.507812 219.53125 C 211.972656 215.242188 204.152344 209.484375 200.796875 198.019531 C 200.035156 195.417969 199.460938 192.757812 198.695312 190.152344 C 198.503906 189.492188 198.300781 188.835938 198.074219 188.183594 C 196.8125 184.488281 195.050781 181.050781 194.125 177.878906 Z M 213.613281 187.484375 C 217.007812 192.007812 218.988281 197.363281 222.125 202.039062 C 224.957031 206.257812 228.710938 209.054688 231.222656 217.648438 C 235.800781 233.292969 234.554688 231.03125 235.789062 238.15625 C 230.859375 228.351562 227.511719 210.921875 215.097656 195.535156 C 208.058594 186.808594 205.539062 185.671875 199.246094 171.589844 C 196.152344 164.667969 194.78125 156.722656 189.207031 146.234375 C 196.882812 156.234375 196.925781 164.09375 201.066406 171.480469 C 204.414062 177.460938 209.53125 182.054688 213.613281 187.484375 Z M 193.953125 190.441406 C 192.804688 186.515625 192.21875 182.382812 192.207031 174.421875 C 192.484375 175.988281 192.796875 177.292969 193.144531 178.480469 C 193.972656 181.316406 195.023438 183.515625 196.414062 187.078125 C 196.859375 188.230469 197.242188 189.398438 197.585938 190.578125 C 198.339844 193.152344 198.925781 195.769531 199.675781 198.335938 C 200.269531 200.363281 200.96875 202.359375 201.9375 204.269531 C 206.566406 213.386719 209.925781 214.699219 215.074219 221.070312 C 217.984375 224.675781 220.113281 228.894531 223.554688 232.070312 C 225.917969 234.25 228.449219 236.242188 230.835938 238.386719 C 226.824219 235.308594 222.324219 233.085938 218.175781 230.535156 C 210.710938 225.953125 204.617188 219.210938 201.019531 211.183594 C 199.398438 207.5625 199.210938 205.046875 195.949219 196.222656 C 195.160156 194.089844 194.496094 192.289062 193.953125 190.441406 Z M 217.617188 172.203125 C 220.335938 175.921875 222.316406 180.144531 225.269531 183.707031 C 229.765625 189.125 237.960938 195.480469 241.546875 207.742188 C 244.085938 216.414062 240.792969 227.429688 239.757812 238.664062 C 239.117188 225.1875 241.953125 221.84375 238.691406 210.703125 C 236.929688 204.675781 232.507812 197.089844 229.195312 192.710938 C 224.472656 186.460938 218.738281 181.023438 214.53125 174.367188 C 212.085938 170.5 210.339844 166.277344 208.144531 163.011719 C 210.460938 165.035156 215.800781 169.71875 217.617188 172.203125 Z M 204.617188 159.871094 C 209.820312 165.511719 210.773438 170.769531 214.386719 176.378906 C 215.777344 178.535156 217.464844 180.472656 219.066406 182.46875 C 224.007812 188.617188 230.269531 193.894531 235.828125 206.382812 C 236.6875 208.3125 237.335938 210.082031 237.816406 211.734375 C 240.382812 220.503906 238.3125 226.03125 238.40625 235.292969 C 238.113281 230.628906 238.40625 225.226562 236.476562 218.191406 C 236.371094 217.800781 236.261719 217.410156 236.148438 217.023438 C 235.21875 213.839844 234.046875 210.734375 232.375 207.886719 C 231.945312 207.148438 222.792969 190.132812 210.230469 174.96875 C 206.105469 169.992188 204.507812 163.574219 201.03125 158.203125 C 197.503906 152.75 194.179688 149.75 192.183594 147.496094 C 196.765625 150.898438 200.308594 155.203125 204.617188 159.871094 Z M 213.097656 229.472656 C 203.484375 223.808594 197.199219 213.359375 194.113281 202.816406 C 192.15625 196.125 191.339844 189.042969 191.402344 181.894531 C 191.722656 186.164062 192.296875 189.085938 193.078125 191.753906 C 194.296875 195.917969 196.019531 199.457031 198.078125 206.496094 C 200.359375 214.289062 204.824219 221.371094 210.941406 226.742188 C 214.191406 229.59375 217.882812 231.777344 221.617188 233.914062 C 218.707031 232.566406 215.863281 231.097656 213.097656 229.472656 Z M 286.121094 230.445312 C 287.070312 232.914062 287.71875 235.53125 288.589844 238.023438 C 290.203125 242.636719 292.371094 246.605469 293.90625 251.859375 C 299.101562 269.601562 291.804688 282.546875 288.867188 288.546875 C 292.828125 277.964844 293.949219 264.097656 291.761719 253.945312 C 291.628906 253.332031 291.472656 252.722656 291.300781 252.125 C 290.242188 248.519531 288.5 245.160156 287.109375 241.675781 C 286.886719 241.113281 286.695312 240.539062 286.523438 239.960938 C 286.03125 238.269531 285.714844 236.523438 285.257812 234.824219 C 285.125 234.316406 284.988281 233.828125 284.851562 233.355469 C 282.601562 225.679688 280.011719 222.519531 275.808594 215.402344 C 276.464844 216.167969 277.132812 216.917969 277.8125 217.667969 C 279.546875 220.507812 284.011719 224.96875 286.121094 230.445312 Z M 270.207031 215.523438 C 270.222656 220.894531 271.09375 224.457031 271.988281 227.519531 C 272.246094 228.394531 272.503906 229.230469 272.742188 230.050781 C 273.144531 231.417969 273.496094 232.757812 273.714844 234.207031 C 275.007812 242.832031 274.945312 250.773438 276.628906 256.527344 C 276.675781 256.6875 276.726562 256.847656 276.773438 257.003906 C 278.03125 260.972656 279.96875 264.742188 281.132812 268.71875 C 281.664062 270.53125 282.03125 272.390625 282.101562 274.328125 C 282.300781 279.832031 281.339844 282.898438 281.386719 291.902344 C 280.808594 289.742188 280.175781 287.59375 279.835938 285.378906 C 278.871094 279.105469 279.75 273.53125 277.515625 265.894531 C 277.203125 264.824219 276.828125 263.714844 276.378906 262.558594 C 275.320312 259.824219 274.109375 257.140625 273.285156 254.324219 C 273.152344 253.875 273.03125 253.425781 272.921875 252.972656 C 272.132812 249.6875 272.808594 249.640625 271.335938 234.269531 C 270.820312 228.898438 269.195312 223.929688 270.207031 215.523438 Z M 285.199219 291.722656 C 287.746094 279.308594 285.785156 268.125 282.457031 255.566406 C 281.125 250.527344 281.378906 245.308594 280.3125 240.199219 C 280.152344 239.429688 279.933594 238.59375 279.671875 237.695312 C 278.414062 233.398438 276.125 227.660156 274.179688 221.003906 C 273.253906 217.851562 272.410156 214.492188 271.785156 210.980469 C 272.101562 212.320312 272.417969 213.523438 272.753906 214.671875 C 273.574219 217.46875 274.492188 219.921875 275.714844 223.140625 C 276.960938 226.417969 279.070312 229.328125 280.570312 234.457031 C 281.976562 239.253906 281.550781 242.441406 282.515625 246.4375 C 282.59375 246.765625 282.679688 247.082031 282.769531 247.386719 C 283.519531 249.949219 284.582031 251.761719 285.441406 254.691406 C 288.40625 264.824219 287.992188 284.769531 285.199219 291.722656 Z M 271.121094 212.96875 C 271.613281 216 272.339844 218.925781 273.175781 221.773438 C 274.792969 227.304688 276.816406 232.550781 278.328125 237.707031 C 279.785156 242.691406 279.636719 243.894531 280.113281 249.855469 C 280.84375 258.992188 285.363281 264.761719 284.871094 282.9375 C 284.746094 287.566406 283.671875 292.0625 282.550781 296.546875 C 282.511719 293.390625 282.1875 290.234375 282.339844 287.074219 C 282.679688 280.136719 283.992188 274.546875 281.957031 267.589844 C 280.722656 263.378906 278.609375 259.457031 277.378906 255.253906 C 277.070312 254.191406 276.816406 253.117188 276.648438 252.011719 C 275.578125 245.054688 275.648438 237.921875 273.929688 231.070312 C 272.113281 223.824219 270.847656 220.460938 271.121094 212.96875 Z M 286.78125 290.523438 C 287.472656 288.125 288.808594 279.734375 288.515625 272.355469 C 288.132812 262.691406 287.246094 257.914062 286.28125 254.625 C 285.59375 252.273438 284.867188 250.679688 284.261719 248.601562 C 282.796875 243.605469 283.125 239.003906 281.796875 234.46875 C 281.738281 234.261719 281.675781 234.054688 281.605469 233.847656 C 279.550781 227.574219 277.464844 227.269531 272.324219 210.753906 C 272.699219 211.347656 273.097656 211.929688 273.507812 212.5 C 275.050781 216.097656 278.570312 221.65625 280.265625 224.730469 C 281.71875 227.367188 282.695312 230.199219 283.539062 233.085938 C 284.175781 235.261719 284.738281 237.46875 285.375 239.636719 C 287.089844 245.503906 288.964844 248.386719 290.105469 252.285156 C 290.269531 252.84375 290.417969 253.417969 290.546875 254.027344 C 293 265.5 291.0625 280.15625 286.78125 290.523438 Z M 272.550781 255.578125 C 273.441406 258.617188 275.359375 262.113281 276.683594 266.636719 C 277.257812 268.59375 277.71875 270.746094 277.933594 273.132812 C 278.417969 278.445312 278.222656 282.878906 279.351562 287.964844 C 277.789062 283.457031 277.503906 282.585938 272.199219 266.09375 C 272.089844 265.746094 271.980469 265.402344 271.882812 265.054688 C 268.480469 253.429688 270.914062 242.636719 269.832031 230.210938 C 271.84375 243.890625 270.691406 249.222656 272.550781 255.578125 Z M 294.660156 242.472656 C 296.179688 245.148438 297.488281 247.921875 298.347656 250.851562 C 298.664062 251.941406 298.921875 253.050781 299.101562 254.183594 C 301.316406 268.085938 297.609375 275.921875 290.386719 287.664062 C 294.246094 279.726562 297.980469 270.308594 296.070312 258.386719 C 295.679688 255.945312 295.257812 253.5 294.566406 251.132812 C 294.378906 250.496094 294.175781 249.867188 293.945312 249.246094 C 292.628906 245.683594 291.011719 242.246094 289.683594 238.6875 C 288.496094 235.5 287.390625 230.355469 285.277344 226.660156 C 288.765625 231.691406 291.640625 237.160156 294.660156 242.472656 Z M 269.65625 267.324219 L 269.636719 267.261719 C 265.359375 252.632812 268.78125 248.5 268.660156 238.019531 C 268.59375 232.0625 266.875 226.21875 268.945312 217.054688 C 268.65625 220.0625 268.503906 221.621094 268.734375 225.15625 C 268.996094 229.140625 268.992188 247.382812 269.101562 252.515625 C 269.238281 258.71875 270.03125 263.03125 271.300781 267.367188 C 272.699219 272.144531 274.675781 276.949219 276.988281 284.339844 C 277.171875 284.925781 277.382812 285.496094 277.585938 286.070312 C 274.648438 280.523438 271.46875 273.503906 269.65625 267.324219 Z M 177.378906 238.898438 C 187.820312 247.695312 194.203125 249.097656 200.75 253.433594 C 202.464844 254.570312 204.222656 255.910156 205.964844 257.070312 C 213.3125 261.949219 218.207031 262.488281 223.308594 265.382812 C 228.707031 268.449219 233.332031 272.679688 237.464844 277.3125 C 242.851562 283.363281 244.734375 287.804688 248.425781 293.199219 C 243.15625 287.410156 237.9375 279.636719 225.769531 272.457031 C 210.914062 263.695312 206.222656 263.125 200.980469 259.230469 C 197.546875 256.679688 195.097656 253.03125 191.632812 250.496094 C 184.839844 245.523438 183.035156 245.230469 177.101562 238.699219 C 177.195312 238.765625 177.289062 238.828125 177.378906 238.898438 Z M 177.265625 241.953125 C 180.535156 246.8125 184.898438 250.804688 189.203125 254.742188 C 195.480469 260.488281 198.605469 265.554688 207.832031 270.3125 C 214.628906 273.8125 219.039062 273.957031 228.039062 279.667969 C 233.964844 283.433594 239.035156 288.40625 244.566406 292.707031 C 238.996094 290.222656 229.546875 287.386719 223.320312 283.375 C 220.335938 281.453125 217.75 278.992188 214.816406 277 C 211.015625 274.414062 206.363281 273.726562 202.386719 271.507812 C 195.148438 267.46875 189.289062 258.453125 184.894531 253.539062 C 180.902344 249.078125 179.328125 246.03125 177.265625 241.953125 Z M 176.613281 239.375 C 182.410156 246.40625 187.285156 248.289062 192.082031 252.300781 C 196.09375 255.65625 197.214844 258.765625 203.519531 262.292969 C 206.765625 264.109375 210.230469 265.511719 213.53125 267.226562 C 225.535156 273.460938 232.640625 276.304688 245.480469 291.582031 C 240.046875 287.25 235.445312 282.421875 226.824219 277.113281 C 219.765625 272.765625 211.328125 271.277344 204.429688 266.648438 C 197.554688 262.039062 195.085938 258.449219 190.921875 254.578125 C 186.347656 250.320312 182.230469 247.785156 176.613281 239.375 Z M 243.480469 283.113281 C 241.507812 280.175781 239.175781 277.496094 236.804688 274.871094 C 233.339844 271.035156 229.296875 267.660156 224.863281 265.003906 C 218.503906 261.195312 214.554688 261.3125 206.632812 256.160156 C 204.226562 254.597656 201.953125 252.832031 199.496094 251.347656 C 194.203125 248.148438 190.464844 247.964844 182.679688 242.167969 C 182.804688 242.230469 182.929688 242.289062 183.054688 242.34375 C 188.988281 246.613281 198.011719 248.480469 204.109375 251.363281 C 207.203125 252.824219 209.972656 254.792969 212.855469 256.644531 C 215.707031 258.476562 218.785156 259.882812 221.757812 261.492188 C 224.011719 262.71875 226.082031 264.25 228.125 265.792969 C 236.421875 272.050781 240.320312 277.28125 243.480469 283.113281 Z M 180.566406 249.753906 C 182.8125 253.09375 184.359375 254.484375 186.34375 256.917969 C 190.707031 262.265625 194.824219 268.054688 200.679688 271.902344 C 203.988281 274.074219 207.917969 274.886719 211.476562 276.527344 C 215.859375 278.550781 217.257812 280.535156 221.171875 283.324219 C 227.75 288.003906 235.179688 290.167969 242.703125 293.070312 C 237.410156 292.078125 232.734375 291.503906 221.660156 287.933594 C 212.183594 284.878906 204.882812 281.042969 195.285156 269.640625 C 189.214844 262.429688 186.269531 262.25 180.566406 249.753906 Z M 200.84375 246.578125 C 210.703125 248.402344 214.699219 252.375 222.535156 257.644531 C 229.5 262.328125 233.539062 262.636719 239.929688 271.988281 C 244.429688 278.574219 246.449219 285.195312 248.316406 289.601562 C 245.976562 285.273438 243.230469 278.6875 237.40625 272.359375 C 233.703125 268.335938 229.273438 265.035156 224.695312 262.070312 C 221.476562 259.988281 217.957031 258.433594 214.652344 256.496094 C 211.082031 254.402344 207.746094 251.894531 203.921875 250.257812 C 198.003906 247.726562 192.964844 246.683594 187.621094 244.085938 C 192.105469 245.429688 197.453125 245.949219 200.84375 246.578125 Z M 214.976562 290.824219 C 206.011719 287.980469 203.507812 283.832031 198.132812 279.820312 C 190.683594 274.257812 186.839844 273.90625 179.988281 255.222656 C 179.453125 253.761719 178.984375 252.273438 178.542969 250.777344 C 177.699219 247.894531 176.976562 244.964844 176.136719 242.082031 C 181.488281 253.695312 181.894531 257.785156 190.433594 266.011719 C 193.320312 268.796875 195.855469 271.773438 198.523438 274.796875 C 204.71875 281.8125 214.414062 288.964844 237.480469 293.105469 C 228.566406 292.339844 221.144531 292.78125 214.976562 290.824219 Z M 286.835938 148.121094 C 290.597656 143.453125 295.75 140.234375 300.03125 136.085938 C 301.398438 134.765625 302.429688 133.164062 303.640625 131.707031 C 310.453125 123.496094 318.753906 121.765625 324.078125 117.054688 C 320.949219 120.613281 313.050781 125.773438 308.566406 129.175781 C 303.550781 132.972656 300.183594 138.34375 296.230469 143.136719 C 291.351562 149.050781 284.578125 153.273438 280.4375 159.851562 C 280.035156 160.488281 279.601562 161.105469 279.160156 161.710938 C 281.503906 157.285156 283.328125 152.476562 286.835938 148.121094 Z M 309.71875 137.832031 C 307.65625 139.9375 305.964844 142.367188 304.027344 144.585938 C 300.085938 149.105469 297.398438 153.042969 288.433594 158.679688 C 291.742188 156.203125 293.253906 154.6875 295.53125 152.042969 C 297.8125 149.394531 300.191406 146.8125 302.183594 143.929688 C 309.820312 132.871094 311.644531 136.960938 319.714844 127.675781 C 320.757812 126.472656 321.75 125.222656 322.621094 123.894531 C 318.96875 131.453125 313.238281 134.226562 309.71875 137.832031 Z M 320.996094 124.652344 C 315.59375 132.007812 312.539062 132.890625 308.082031 135.949219 C 304.183594 138.625 301.957031 142.878906 298.972656 146.410156 C 290.816406 156.058594 288.863281 156.816406 279.367188 163.519531 C 281.34375 161.097656 282.367188 159.1875 284.0625 157.148438 C 287.5625 152.949219 291.976562 149.625 295.738281 145.660156 C 300.734375 140.394531 302.332031 135.644531 310.152344 129.683594 C 322.117188 120.566406 323.859375 118.738281 325.625 116.296875 C 324.625 118.246094 323.222656 121.621094 320.996094 124.652344 Z M 301.179688 149.371094 C 304.667969 145.605469 307.410156 141.214844 311.101562 137.660156 C 313.839844 135.027344 317.179688 133.316406 320.355469 129.441406 C 317.605469 134.613281 313.078125 138.5 309.113281 142.742188 C 302.859375 149.4375 304.972656 152.1875 279.859375 164.585938 C 280.898438 163.910156 292.804688 158.417969 301.179688 149.371094 Z M 322.667969 116.695312 C 317.5625 120.765625 310.128906 123.585938 304.816406 128.835938 C 303.078125 130.558594 301.859375 132.691406 300.328125 134.574219 C 296.398438 139.398438 289.488281 142.242188 284.238281 150.089844 C 283.074219 151.828125 282.078125 153.675781 281.136719 155.546875 C 283.65625 147.925781 286.730469 143.925781 293.75 137.339844 C 299.074219 132.34375 297.855469 132.660156 301.132812 129.652344 C 307.152344 124.128906 314.601562 121.683594 322.667969 116.695312 Z M 308.207031 149.296875 C 304.425781 152.796875 300.394531 156.039062 295.816406 158.441406 C 292.109375 160.386719 288.191406 162.164062 284.261719 163.605469 C 289.675781 160.976562 290.585938 160.230469 294.871094 157.738281 C 303.324219 152.824219 305.472656 149.234375 308.273438 145.414062 C 310.722656 142.074219 314.148438 139.613281 316.769531 136.402344 C 320.6875 131.601562 322.195312 128.148438 324.703125 122.144531 C 324.605469 122.5 324.5 122.851562 324.410156 123.207031 C 321.867188 133.34375 315.820312 142.238281 308.207031 149.296875 Z M 293.558594 130.628906 C 299.5625 125.574219 304.542969 124.125 317.214844 118.765625 C 310.417969 122.199219 304.980469 124.808594 300.648438 128.574219 C 298.1875 130.714844 296.347656 133.441406 293.914062 135.617188 C 289.097656 139.929688 284.355469 144.835938 281.742188 150.847656 C 283.457031 143.199219 286.675781 136.421875 293.558594 130.628906 Z M 315.589844 76.25 C 313.992188 79.308594 311.855469 82.039062 310.171875 85.046875 C 307.613281 89.617188 307.296875 92.875 298 102.726562 C 294.558594 106.371094 291.5625 108.742188 286.378906 116.105469 C 288.183594 113.105469 294.703125 100.707031 296.46875 97.691406 C 298.683594 93.902344 302.433594 92.796875 307.894531 85.335938 C 309.296875 83.414062 310.40625 81.296875 311.773438 79.347656 C 316.289062 72.902344 315.859375 71.347656 317.996094 67.464844 C 320.375 63.140625 323.4375 59.425781 326.945312 56.042969 C 326.921875 56.082031 326.902344 56.121094 326.878906 56.164062 C 320.925781 62.753906 319.210938 69.289062 315.589844 76.25 Z M 322.058594 55.894531 C 322.484375 55.6875 322.9375 55.550781 323.378906 55.378906 C 318.109375 58.394531 313.414062 60.484375 310.011719 66.238281 C 308.171875 69.351562 307.230469 73.199219 304.277344 76.417969 C 302.097656 78.796875 299.613281 80.886719 297.554688 83.390625 C 295.574219 85.800781 293.664062 88.277344 291.667969 90.675781 C 289.722656 93.023438 287.933594 95.523438 286.664062 98.300781 C 284.488281 103.0625 283.027344 108.152344 282.394531 113.355469 C 282.621094 100.941406 284.871094 97.953125 287.597656 91.726562 C 289.0625 88.382812 289.894531 84.75 291.941406 81.683594 C 295.152344 76.867188 300.433594 74.445312 307.179688 66.78125 C 313.085938 60.066406 313.644531 60.015625 322.058594 55.894531 Z M 327.886719 53.457031 C 322.917969 58.125 318.5625 58.933594 313.523438 68.003906 C 310.574219 73.3125 309.695312 78.390625 299.839844 88.023438 C 293.445312 94.277344 289.511719 97.875 286.078125 106.089844 C 284.652344 109.503906 283.75 113.476562 282.835938 117.527344 C 283.105469 114.984375 283.371094 112.679688 284.105469 109.378906 C 286.859375 97.054688 289.601562 94.820312 297.0625 85.394531 C 301.828125 79.367188 304.191406 78.207031 306.449219 74.980469 C 308.035156 72.710938 308.957031 70.078125 310.160156 67.601562 C 313.925781 59.871094 321.980469 57.394531 326.839844 53.960938 C 327.191406 53.800781 327.539062 53.632812 327.886719 53.457031 Z M 283.804688 118.605469 C 286.820312 106.265625 288.421875 101.109375 299.320312 90.53125 C 310.984375 79.210938 311.117188 75.347656 314.148438 69.410156 C 315.964844 65.851562 318.5 62.648438 321.519531 60.019531 C 322.394531 59.253906 323.332031 58.519531 324.265625 57.777344 C 314.609375 67.640625 316.820312 70.839844 311.707031 77.753906 C 310.0625 79.980469 308.808594 82.457031 307.207031 84.703125 C 302.265625 91.636719 299.496094 92.082031 296.535156 95.6875 C 294.972656 97.59375 294.53125 99.015625 289.394531 109.023438 C 287.707031 112.316406 285.503906 115.320312 283.804688 118.605469 Z M 284.167969 87.878906 C 286.820312 81.332031 289.050781 77.238281 294.292969 72.410156 C 302.304688 65.027344 307.246094 61.890625 315.917969 58.34375 C 307.742188 62.835938 306.953125 66.535156 301.8125 70.898438 C 294.773438 76.875 292.96875 78.300781 291.332031 80.683594 C 288.804688 84.371094 287.914062 88.839844 286.101562 92.863281 C 284.433594 96.566406 282.609375 99.609375 281.804688 106.957031 C 281.410156 102.464844 280.628906 96.605469 284.167969 87.878906 Z M 320.269531 71.921875 C 318.464844 76.6875 317.964844 78.1875 313.742188 86.285156 C 309.28125 94.84375 308.292969 96.867188 300.25 104.785156 C 296.339844 108.632812 289.90625 114.355469 286.011719 118.472656 C 292.171875 109.617188 296.1875 106.445312 299.085938 103.199219 C 302.273438 99.617188 305.558594 96.015625 307.871094 91.789062 C 309.367188 89.054688 310.570312 86.167969 312.214844 83.511719 C 313.5625 81.335938 315.152344 79.308594 316.363281 77.046875 C 319.433594 71.328125 321.484375 65.0625 325.183594 59.695312 C 323.539062 63.769531 321.824219 67.8125 320.269531 71.921875 Z M 320.269531 71.921875 " fill-opacity="1" fill-rule="nonzero"/></g></g></g></svg>