<svg xmlns="http://www.w3.org/2000/svg" xmlns:xlink="http://www.w3.org/1999/xlink" width="500" zoomAndPan="magnify" viewBox="0 0 375 374.999991" height="500" preserveAspectRatio="xMidYMid meet" version="1.0"><defs><clipPath id="7479dc7256"><path d="M 146.53125 37.5 L 328 37.5 L 328 219 L 146.53125 219 Z M 146.53125 37.5 " clip-rule="nonzero"/></clipPath><clipPath id="dd7a6771f9"><path d="M 40 158.472656 L 176 158.472656 L 176 334 L 40 334 Z M 40 158.472656 " clip-rule="nonzero"/></clipPath></defs><g clip-path="url(#7479dc7256)"><path fill="#ffffff" d="M 237.199219 37.5 C 187.125 37.5 146.53125 78.09375 146.53125 128.164062 C 146.53125 178.238281 187.125 218.832031 237.199219 218.832031 C 287.269531 218.832031 327.863281 178.238281 327.863281 128.164062 C 327.863281 78.09375 287.273438 37.5 237.199219 37.5 Z M 237.199219 202.308594 C 196.253906 202.308594 163.054688 169.117188 163.054688 128.164062 C 163.054688 87.214844 196.253906 54.027344 237.199219 54.027344 C 278.144531 54.027344 311.339844 87.21875 311.339844 128.167969 C 311.339844 169.121094 278.144531 202.308594 237.199219 202.308594 Z M 280.347656 137.574219 L 232.792969 160.246094 C 227.152344 162.933594 220.484375 162.222656 215.539062 158.402344 C 211.480469 155.269531 209.105469 150.429688 209.105469 145.304688 L 209.105469 110.660156 C 209.105469 102.757812 214.164062 95.742188 221.660156 93.242188 C 226.945312 91.480469 232.742188 92.214844 237.425781 95.238281 L 281.246094 123.527344 C 286.546875 126.945312 286.039062 134.855469 280.347656 137.574219 Z M 280.347656 137.574219 " fill-opacity="1" fill-rule="nonzero"/></g><g clip-path="url(#dd7a6771f9)"><path fill="#ffffff" d="M 118.761719 158.472656 L 105.308594 158.472656 L 105.308594 278.90625 C 96.714844 274.152344 84.972656 272.609375 72.90625 275.523438 C 51.710938 280.597656 37.582031 297.46875 41.359375 313.183594 C 45.140625 328.90625 65.390625 337.492188 86.585938 332.398438 C 105.984375 327.761719 119.433594 313.269531 118.726562 298.804688 L 118.761719 298.804688 L 118.761719 200.308594 C 140.769531 216.546875 160.113281 214.386719 163.679688 253.042969 C 206.410156 188.074219 120.558594 189.785156 118.761719 158.472656 Z M 118.761719 158.472656 " fill-opacity="1" fill-rule="nonzero"/></g></svg>