<svg xmlns="http://www.w3.org/2000/svg" xmlns:xlink="http://www.w3.org/1999/xlink" width="500" zoomAndPan="magnify" viewBox="0 0 375 374.999991" height="500" preserveAspectRatio="xMidYMid meet" version="1.0"><defs><clipPath id="eb4a5eb88a"><path d="M 146.53125 37.5 L 328 37.5 L 328 219 L 146.53125 219 Z M 146.53125 37.5 " clip-rule="nonzero"/></clipPath><clipPath id="9fac025a41"><path d="M 40 158.472656 L 176 158.472656 L 176 334 L 40 334 Z M 40 158.472656 " clip-rule="nonzero"/></clipPath></defs><g clip-path="url(#eb4a5eb88a)"><path fill="#ffffff" d="M 209.996094 164.425781 L 228.128906 164.425781 L 228.128906 91.898438 L 209.996094 91.898438 Z M 237.195312 37.5 C 187.105469 37.5 146.53125 78.070312 146.53125 128.160156 C 146.53125 178.253906 187.105469 218.824219 237.195312 218.824219 C 287.285156 218.824219 327.855469 178.253906 327.855469 128.160156 C 327.855469 78.070312 287.285156 37.5 237.195312 37.5 Z M 237.195312 200.691406 C 197.210938 200.691406 164.664062 168.144531 164.664062 128.160156 C 164.664062 88.179688 197.210938 55.632812 237.195312 55.632812 C 277.175781 55.632812 309.722656 88.179688 309.722656 128.160156 C 309.722656 168.144531 277.175781 200.691406 237.195312 200.691406 Z M 246.261719 164.425781 L 264.394531 164.425781 L 264.394531 91.898438 L 246.261719 91.898438 Z M 246.261719 164.425781 " fill-opacity="1" fill-rule="nonzero"/></g><g clip-path="url(#9fac025a41)"><path fill="#ffffff" d="M 118.761719 158.472656 L 105.308594 158.472656 L 105.308594 278.90625 C 96.714844 274.152344 84.972656 272.609375 72.90625 275.523438 C 51.710938 280.597656 37.582031 297.46875 41.359375 313.183594 C 45.140625 328.90625 65.390625 337.492188 86.585938 332.398438 C 105.984375 327.761719 119.433594 313.269531 118.726562 298.804688 L 118.761719 298.804688 L 118.761719 200.308594 C 140.769531 216.546875 160.113281 214.386719 163.679688 253.042969 C 206.410156 188.074219 120.558594 189.785156 118.761719 158.472656 Z M 118.761719 158.472656 " fill-opacity="1" fill-rule="nonzero"/></g></svg>