<svg xmlns="http://www.w3.org/2000/svg" xmlns:xlink="http://www.w3.org/1999/xlink" width="500" zoomAndPan="magnify" viewBox="0 0 375 374.999991" height="500" preserveAspectRatio="xMidYMid meet" version="1.0"><defs><g/></defs><g fill="#e4e2dd" fill-opacity="1"><g transform="translate(57.773563, 219.843125)"><g><path d="M 14.671875 -55.265625 C 15.179688 -57.078125 16.039062 -58.410156 17.25 -59.265625 C 18.46875 -60.128906 19.679688 -60.5625 20.890625 -60.5625 C 22.148438 -60.5625 23.265625 -60.128906 24.234375 -59.265625 C 25.210938 -58.410156 25.703125 -57.164062 25.703125 -55.53125 C 25.703125 -54.601562 25.539062 -53.648438 25.21875 -52.671875 L 8.734375 -5.3125 C 8.128906 -3.539062 7.242188 -2.210938 6.078125 -1.328125 C 4.910156 -0.441406 3.722656 0 2.515625 0 C 1.253906 0 0.132812 -0.441406 -0.84375 -1.328125 C -1.820312 -2.210938 -2.3125 -3.445312 -2.3125 -5.03125 C -2.3125 -5.957031 -2.144531 -6.910156 -1.8125 -7.890625 Z M 14.671875 -55.265625 "/></g></g></g><g fill="#e4e2dd" fill-opacity="1"><g transform="translate(76.144976, 219.843125)"><g><path d="M 38.984375 -20.125 C 39.359375 -21.28125 40 -22.125 40.90625 -22.65625 C 41.8125 -23.195312 42.726562 -23.46875 43.65625 -23.46875 C 44.726562 -23.46875 45.679688 -23.175781 46.515625 -22.59375 C 47.359375 -22.007812 47.78125 -21.160156 47.78125 -20.046875 C 47.78125 -19.578125 47.664062 -19.039062 47.4375 -18.4375 C 45.851562 -13.925781 43.988281 -10.316406 41.84375 -7.609375 C 39.695312 -4.910156 37.425781 -2.96875 35.03125 -1.78125 C 32.632812 -0.59375 30.25 0 27.875 0 C 25.914062 0 24.070312 -0.367188 22.34375 -1.109375 C 20.625 -1.859375 19.238281 -2.96875 18.1875 -4.4375 C 17.144531 -5.90625 16.625 -7.707031 16.625 -9.84375 C 16.625 -10.59375 16.703125 -11.347656 16.859375 -12.109375 C 17.023438 -12.878906 17.25 -13.660156 17.53125 -14.453125 L 22.640625 -28.859375 C 22.867188 -29.554688 22.984375 -30.132812 22.984375 -30.59375 C 22.984375 -31.25 22.785156 -31.773438 22.390625 -32.171875 C 21.992188 -32.566406 21.46875 -32.765625 20.8125 -32.765625 C 19.832031 -32.765625 18.769531 -32.34375 17.625 -31.5 C 16.488281 -30.664062 15.457031 -29.363281 14.53125 -27.59375 C 13.738281 -25.351562 12.863281 -22.867188 11.90625 -20.140625 C 10.957031 -17.421875 10.003906 -14.710938 9.046875 -12.015625 C 8.085938 -9.316406 7.191406 -6.828125 6.359375 -4.546875 C 5.847656 -2.960938 4.972656 -1.785156 3.734375 -1.015625 C 2.503906 -0.242188 1.28125 0.140625 0.0625 0.140625 C -1.050781 0.140625 -2.035156 -0.179688 -2.890625 -0.828125 C -3.753906 -1.484375 -4.1875 -2.460938 -4.1875 -3.765625 C -4.1875 -4.378906 -4.09375 -4.960938 -3.90625 -5.515625 L 7.75 -38.140625 C 8.125 -39.117188 8.726562 -39.835938 9.5625 -40.296875 C 10.40625 -40.765625 11.316406 -41 12.296875 -41 C 13.222656 -41 14.082031 -40.835938 14.875 -40.515625 C 15.664062 -40.191406 16.15625 -39.703125 16.34375 -39.046875 C 18.113281 -40.347656 20.347656 -41 23.046875 -41 C 24.910156 -41 26.625 -40.566406 28.1875 -39.703125 C 29.75 -38.847656 31.003906 -37.6875 31.953125 -36.21875 C 32.910156 -34.75 33.390625 -33.085938 33.390625 -31.234375 C 33.390625 -30.109375 33.132812 -28.828125 32.625 -27.390625 L 27.171875 -11.875 C 26.941406 -11.082031 26.828125 -10.5 26.828125 -10.125 C 26.828125 -8.914062 27.476562 -8.3125 28.78125 -8.3125 C 30.414062 -8.3125 32.140625 -9.226562 33.953125 -11.0625 C 35.765625 -12.90625 37.441406 -15.925781 38.984375 -20.125 Z M 38.984375 -20.125 "/></g></g></g><g fill="#e4e2dd" fill-opacity="1"><g transform="translate(112.8878, 219.843125)"><g><path d="M 38.703125 -20.75 C 39.078125 -21.769531 39.660156 -22.515625 40.453125 -22.984375 C 41.242188 -23.453125 42.082031 -23.6875 42.96875 -23.6875 C 44.03125 -23.6875 45.015625 -23.359375 45.921875 -22.703125 C 46.835938 -22.046875 47.296875 -21.140625 47.296875 -19.984375 C 47.296875 -19.796875 47.296875 -19.617188 47.296875 -19.453125 C 47.296875 -19.296875 47.25 -19.097656 47.15625 -18.859375 C 46.082031 -15.273438 44.320312 -12.421875 41.875 -10.296875 C 39.4375 -8.179688 36.515625 -7.125 33.109375 -7.125 C 29.335938 -7.125 26.425781 -8.335938 24.375 -10.765625 L 21.796875 -7.609375 C 20.253906 -5.835938 18.898438 -4.394531 17.734375 -3.28125 C 16.578125 -2.164062 15.40625 -1.335938 14.21875 -0.796875 C 13.03125 -0.265625 11.597656 0 9.921875 0 C 7.222656 0 4.972656 -0.882812 3.171875 -2.65625 C 1.378906 -4.425781 0.484375 -6.867188 0.484375 -9.984375 C 0.484375 -11.148438 0.625 -12.363281 0.90625 -13.625 L 6.015625 -36.390625 C 6.378906 -37.878906 7.109375 -39.019531 8.203125 -39.8125 C 9.296875 -40.601562 10.472656 -41 11.734375 -41 C 12.941406 -41 14.035156 -40.59375 15.015625 -39.78125 C 15.992188 -38.96875 16.484375 -37.722656 16.484375 -36.046875 C 16.484375 -35.347656 16.390625 -34.648438 16.203125 -33.953125 L 10.890625 -11.53125 C 10.710938 -10.832031 10.625 -10.15625 10.625 -9.5 C 10.625 -9.082031 10.738281 -8.875 10.96875 -8.875 C 11.289062 -8.875 11.734375 -9.128906 12.296875 -9.640625 C 12.859375 -10.148438 13.425781 -10.753906 14 -11.453125 C 14.582031 -12.148438 15.039062 -12.753906 15.375 -13.265625 L 19.21875 -19.078125 C 18.65625 -20.472656 18.375 -22.007812 18.375 -23.6875 C 18.375 -25.550781 18.664062 -27.484375 19.25 -29.484375 C 19.832031 -31.484375 20.671875 -33.351562 21.765625 -35.09375 C 22.859375 -36.84375 24.132812 -38.265625 25.59375 -39.359375 C 27.0625 -40.453125 28.679688 -41 30.453125 -41 C 32.367188 -41 33.8125 -40.460938 34.78125 -39.390625 C 35.757812 -38.328125 36.25 -36.929688 36.25 -35.203125 C 36.25 -33.296875 35.691406 -31.28125 34.578125 -29.15625 C 33.460938 -27.039062 31.953125 -24.257812 30.046875 -20.8125 C 29.804688 -20.113281 29.6875 -19.488281 29.6875 -18.9375 C 29.6875 -18 29.976562 -17.203125 30.5625 -16.546875 C 31.144531 -15.898438 32.019531 -15.578125 33.1875 -15.578125 C 34.488281 -15.578125 35.582031 -16.03125 36.46875 -16.9375 C 37.351562 -17.84375 38.097656 -19.113281 38.703125 -20.75 Z M 38.703125 -20.75 "/></g></g></g><g fill="#e4e2dd" fill-opacity="1"><g transform="translate(149.211509, 219.843125)"><g><path d="M 18.796875 -47.4375 C 17.210938 -47.4375 15.859375 -48.003906 14.734375 -49.140625 C 13.617188 -50.285156 13.0625 -51.648438 13.0625 -53.234375 C 13.0625 -54.816406 13.617188 -56.15625 14.734375 -57.25 C 15.859375 -58.34375 17.210938 -58.890625 18.796875 -58.890625 C 20.378906 -58.890625 21.726562 -58.34375 22.84375 -57.25 C 23.957031 -56.15625 24.515625 -54.816406 24.515625 -53.234375 C 24.515625 -51.648438 23.957031 -50.285156 22.84375 -49.140625 C 21.726562 -48.003906 20.378906 -47.4375 18.796875 -47.4375 Z M 9.359375 -11.8125 C 9.222656 -11.382812 9.15625 -11.007812 9.15625 -10.6875 C 9.15625 -10.03125 9.398438 -9.46875 9.890625 -9 C 10.378906 -8.539062 11.019531 -8.3125 11.8125 -8.3125 C 13.207031 -8.3125 14.773438 -9.171875 16.515625 -10.890625 C 18.265625 -12.617188 19.957031 -15.742188 21.59375 -20.265625 C 22.007812 -21.328125 22.644531 -22.113281 23.5 -22.625 C 24.363281 -23.144531 25.265625 -23.40625 26.203125 -23.40625 C 27.265625 -23.40625 28.226562 -23.085938 29.09375 -22.453125 C 29.957031 -21.828125 30.390625 -20.976562 30.390625 -19.90625 C 30.390625 -19.488281 30.316406 -19.070312 30.171875 -18.65625 C 28.546875 -13.851562 26.671875 -10.085938 24.546875 -7.359375 C 22.429688 -4.640625 20.195312 -2.734375 17.84375 -1.640625 C 15.5 -0.546875 13.179688 0 10.890625 0 C 8.753906 0 6.789062 -0.40625 5 -1.21875 C 3.207031 -2.03125 1.757812 -3.207031 0.65625 -4.75 C -0.4375 -6.289062 -0.984375 -8.15625 -0.984375 -10.34375 C -0.984375 -10.945312 -0.863281 -11.664062 -0.625 -12.5 C -0.394531 -13.34375 -0.1875 -14.113281 0 -14.8125 C 0.75 -17 1.550781 -19.328125 2.40625 -21.796875 C 3.269531 -24.265625 4.128906 -26.734375 4.984375 -29.203125 C 5.847656 -31.671875 6.65625 -34 7.40625 -36.1875 C 7.96875 -37.8125 8.769531 -39.019531 9.8125 -39.8125 C 10.863281 -40.601562 11.925781 -41 13 -41 C 14.207031 -41 15.285156 -40.601562 16.234375 -39.8125 C 17.191406 -39.019531 17.671875 -37.859375 17.671875 -36.328125 C 17.671875 -36.003906 17.597656 -35.609375 17.453125 -35.140625 C 17.316406 -34.671875 17.179688 -34.203125 17.046875 -33.734375 Z M 9.359375 -11.8125 "/></g></g></g><g fill="#e4e2dd" fill-opacity="1"><g transform="translate(168.560869, 219.843125)"><g><path d="M 24.9375 -19.703125 C 25.351562 -20.816406 25.992188 -21.628906 26.859375 -22.140625 C 27.722656 -22.648438 28.597656 -22.90625 29.484375 -22.90625 C 30.554688 -22.90625 31.519531 -22.601562 32.375 -22 C 33.238281 -21.394531 33.671875 -20.554688 33.671875 -19.484375 C 33.671875 -19.304688 33.644531 -19.085938 33.59375 -18.828125 C 33.550781 -18.566406 33.484375 -18.320312 33.390625 -18.09375 C 31.390625 -12.363281 28.609375 -7.914062 25.046875 -4.75 C 21.484375 -1.582031 17.46875 0 13 0 C 10.625 0 8.398438 -0.441406 6.328125 -1.328125 C 4.253906 -2.210938 2.585938 -3.503906 1.328125 -5.203125 C 0.0664062 -6.898438 -0.5625 -8.9375 -0.5625 -11.3125 C -0.5625 -12.757812 -0.28125 -14.320312 0.28125 -16 L 0.28125 -15.921875 L 6.140625 -32.765625 L 3.84375 -32.765625 C 2.90625 -32.765625 2.15625 -33.125 1.59375 -33.84375 C 1.039062 -34.5625 0.765625 -35.410156 0.765625 -36.390625 C 0.765625 -37.515625 1.195312 -38.5625 2.0625 -39.53125 C 2.925781 -40.507812 4.285156 -41 6.140625 -41 L 9.078125 -41 L 14.671875 -56.59375 C 15.085938 -57.800781 15.75 -58.773438 16.65625 -59.515625 C 17.570312 -60.265625 18.609375 -60.640625 19.765625 -60.640625 C 21.304688 -60.640625 22.503906 -60.179688 23.359375 -59.265625 C 24.222656 -58.359375 24.65625 -57.253906 24.65625 -55.953125 C 24.65625 -55.578125 24.585938 -55.132812 24.453125 -54.625 L 19.765625 -41 L 22.90625 -41 C 24.257812 -41 25.238281 -40.660156 25.84375 -39.984375 C 26.445312 -39.316406 26.75 -38.515625 26.75 -37.578125 C 26.75 -36.421875 26.285156 -35.328125 25.359375 -34.296875 C 24.429688 -33.273438 23.082031 -32.765625 21.3125 -32.765625 L 16.765625 -32.765625 L 9.921875 -13.265625 C 9.867188 -13.035156 9.804688 -12.78125 9.734375 -12.5 C 9.671875 -12.21875 9.640625 -11.960938 9.640625 -11.734375 C 9.640625 -10.804688 10 -10.003906 10.71875 -9.328125 C 11.445312 -8.648438 12.4375 -8.3125 13.6875 -8.3125 C 15.738281 -8.3125 17.773438 -9.253906 19.796875 -11.140625 C 21.828125 -13.023438 23.539062 -15.878906 24.9375 -19.703125 Z M 24.9375 -19.703125 "/></g></g></g><g fill="#e4e2dd" fill-opacity="1"><g transform="translate(191.472746, 219.843125)"><g><path d="M 43.796875 -23.609375 C 44.828125 -23.609375 45.722656 -23.304688 46.484375 -22.703125 C 47.253906 -22.097656 47.640625 -21.191406 47.640625 -19.984375 C 47.640625 -19.378906 47.476562 -18.609375 47.15625 -17.671875 C 46.832031 -16.742188 46.410156 -15.601562 45.890625 -14.25 C 44.398438 -10.476562 42.617188 -7.566406 40.546875 -5.515625 C 38.472656 -3.460938 36.332031 -2.03125 34.125 -1.21875 C 31.914062 -0.40625 29.832031 0 27.875 0 C 27.175781 0 26.234375 -0.09375 25.046875 -0.28125 C 23.859375 -0.46875 22.671875 -0.828125 21.484375 -1.359375 C 20.296875 -1.898438 19.328125 -2.703125 18.578125 -3.765625 C 17.273438 -2.609375 15.820312 -1.691406 14.21875 -1.015625 C 12.613281 -0.335938 10.992188 0 9.359375 0 C 7.304688 0 5.460938 -0.472656 3.828125 -1.421875 C 2.203125 -2.378906 0.914062 -3.660156 -0.03125 -5.265625 C -0.988281 -6.878906 -1.46875 -8.640625 -1.46875 -10.546875 C -1.46875 -11.203125 -1.394531 -11.84375 -1.25 -12.46875 C -1.113281 -13.09375 -0.953125 -13.710938 -0.765625 -14.328125 L 5.796875 -33.109375 C 6.734375 -35.816406 8.316406 -37.804688 10.546875 -39.078125 C 12.785156 -40.359375 15.046875 -41 17.328125 -41 C 19.097656 -41 20.644531 -40.789062 21.96875 -40.375 C 23.300781 -39.957031 24.335938 -39.515625 25.078125 -39.046875 C 25.640625 -39.929688 26.382812 -40.59375 27.3125 -41.03125 C 28.25 -41.476562 29.203125 -41.703125 30.171875 -41.703125 C 31.484375 -41.703125 32.660156 -41.304688 33.703125 -40.515625 C 34.753906 -39.722656 35.28125 -38.5625 35.28125 -37.03125 C 35.28125 -36.332031 35.140625 -35.5625 34.859375 -34.71875 L 27.03125 -12.078125 C 26.800781 -11.242188 26.6875 -10.570312 26.6875 -10.0625 C 26.6875 -8.894531 27.316406 -8.3125 28.578125 -8.3125 C 29.640625 -8.3125 30.785156 -8.671875 32.015625 -9.390625 C 33.253906 -10.117188 34.476562 -11.320312 35.6875 -13 C 36.90625 -14.675781 37.957031 -16.929688 38.84375 -19.765625 C 39.257812 -21.117188 39.941406 -22.097656 40.890625 -22.703125 C 41.847656 -23.304688 42.816406 -23.609375 43.796875 -23.609375 Z M 20.75 -24.3125 C 21.3125 -26.082031 21.59375 -27.457031 21.59375 -28.4375 C 21.59375 -29.644531 21.285156 -30.5625 20.671875 -31.1875 C 20.066406 -31.820312 19.441406 -32.140625 18.796875 -32.140625 C 18.234375 -32.140625 17.519531 -31.867188 16.65625 -31.328125 C 15.800781 -30.796875 15.046875 -29.457031 14.390625 -27.3125 L 9.921875 -13.265625 C 9.828125 -12.941406 9.734375 -12.582031 9.640625 -12.1875 C 9.546875 -11.789062 9.5 -11.359375 9.5 -10.890625 C 9.5 -9.171875 10.269531 -8.3125 11.8125 -8.3125 C 12.550781 -8.3125 13.476562 -8.671875 14.59375 -9.390625 C 15.71875 -10.117188 16.648438 -11.625 17.390625 -13.90625 Z M 20.75 -24.3125 "/></g></g></g><g fill="#e4e2dd" fill-opacity="1"><g transform="translate(228.215567, 219.843125)"><g><path d="M 35.421875 -20.265625 C 35.742188 -21.328125 36.300781 -22.078125 37.09375 -22.515625 C 37.882812 -22.960938 38.722656 -23.1875 39.609375 -23.1875 C 40.722656 -23.1875 41.757812 -22.875 42.71875 -22.25 C 43.675781 -21.625 44.15625 -20.773438 44.15625 -19.703125 C 44.15625 -19.378906 44.082031 -19.003906 43.9375 -18.578125 C 41.894531 -12.660156 39.226562 -8.082031 35.9375 -4.84375 C 32.65625 -1.613281 29.101562 0 25.28125 0 C 23.375 0 21.601562 -0.414062 19.96875 -1.25 C 18.34375 -2.09375 17.050781 -3.269531 16.09375 -4.78125 C 15.144531 -6.300781 14.671875 -8.0625 14.671875 -10.0625 C 14.671875 -11.457031 14.953125 -12.945312 15.515625 -14.53125 L 18.578125 -23.046875 C 18.722656 -23.566406 18.796875 -23.988281 18.796875 -24.3125 C 18.796875 -25.101562 18.550781 -25.707031 18.0625 -26.125 C 17.570312 -26.539062 16.976562 -26.878906 16.28125 -27.140625 C 15.582031 -27.398438 14.90625 -27.617188 14.25 -27.796875 L 10.34375 -17.328125 C 9.914062 -16.210938 9.25 -15.375 8.34375 -14.8125 C 7.4375 -14.25 6.492188 -13.96875 5.515625 -13.96875 C 4.535156 -13.96875 3.660156 -14.257812 2.890625 -14.84375 C 2.128906 -15.425781 1.75 -16.300781 1.75 -17.46875 C 1.75 -17.925781 1.816406 -18.4375 1.953125 -19 L 7.0625 -32.765625 C 5.894531 -34.203125 5.3125 -35.851562 5.3125 -37.71875 C 5.3125 -39.726562 5.890625 -41.5 7.046875 -43.03125 C 8.210938 -44.570312 9.820312 -45.34375 11.875 -45.34375 C 13.457031 -45.34375 14.851562 -44.757812 16.0625 -43.59375 C 17.28125 -42.425781 17.890625 -41.03125 17.890625 -39.40625 C 17.890625 -38.75 17.796875 -38.164062 17.609375 -37.65625 C 18.585938 -37.375 19.757812 -36.960938 21.125 -36.421875 C 22.5 -35.890625 23.863281 -35.203125 25.21875 -34.359375 C 26.570312 -33.523438 27.691406 -32.515625 28.578125 -31.328125 C 29.460938 -30.140625 29.90625 -28.707031 29.90625 -27.03125 C 29.90625 -26.425781 29.84375 -25.804688 29.71875 -25.171875 C 29.601562 -24.546875 29.429688 -23.882812 29.203125 -23.1875 L 25.078125 -11.734375 C 24.890625 -11.222656 24.796875 -10.710938 24.796875 -10.203125 C 24.796875 -9.734375 24.921875 -9.300781 25.171875 -8.90625 C 25.429688 -8.507812 25.796875 -8.3125 26.265625 -8.3125 C 27.753906 -8.3125 29.328125 -9.453125 30.984375 -11.734375 C 32.640625 -14.015625 34.117188 -16.859375 35.421875 -20.265625 Z M 35.421875 -20.265625 "/></g></g></g><g fill="#e4e2dd" fill-opacity="1"><g transform="translate(261.326022, 219.843125)"><g><path d="M 9.578125 -11.390625 C 9.523438 -11.203125 9.460938 -10.988281 9.390625 -10.75 C 9.328125 -10.519531 9.296875 -10.335938 9.296875 -10.203125 C 9.296875 -9.691406 9.476562 -9.25 9.84375 -8.875 C 10.21875 -8.5 10.753906 -8.3125 11.453125 -8.3125 C 13.085938 -8.3125 14.847656 -9.253906 16.734375 -11.140625 C 18.617188 -13.023438 20.351562 -16.066406 21.9375 -20.265625 C 22.445312 -21.566406 23.117188 -22.492188 23.953125 -23.046875 C 24.796875 -23.609375 25.660156 -23.890625 26.546875 -23.890625 C 27.617188 -23.890625 28.570312 -23.523438 29.40625 -22.796875 C 30.25 -22.078125 30.671875 -21.160156 30.671875 -20.046875 C 30.671875 -19.628906 30.597656 -19.164062 30.453125 -18.65625 C 28.828125 -13.8125 26.882812 -10.035156 24.625 -7.328125 C 22.363281 -4.628906 20.019531 -2.734375 17.59375 -1.640625 C 15.175781 -0.546875 12.851562 0 10.625 0 C 8.570312 0 6.671875 -0.382812 4.921875 -1.15625 C 3.179688 -1.925781 1.785156 -3.054688 0.734375 -4.546875 C -0.316406 -6.035156 -0.84375 -7.847656 -0.84375 -9.984375 C -0.84375 -11.429688 -0.5625 -12.945312 0 -14.53125 L 14.53125 -56.03125 C 15.601562 -59.101562 17.441406 -60.640625 20.046875 -60.640625 C 21.117188 -60.640625 22.15625 -60.242188 23.15625 -59.453125 C 24.15625 -58.660156 24.65625 -57.585938 24.65625 -56.234375 C 24.65625 -55.492188 24.515625 -54.703125 24.234375 -53.859375 Z M 9.578125 -11.390625 "/></g></g></g><g fill="#e4e2dd" fill-opacity="1"><g transform="translate(280.884945, 219.843125)"><g><path d="M 9.640625 -12.015625 C 9.410156 -11.316406 9.296875 -10.734375 9.296875 -10.265625 C 9.296875 -8.921875 9.96875 -8.25 11.3125 -8.25 C 12.25 -8.25 13.296875 -8.644531 14.453125 -9.4375 C 15.617188 -10.226562 16.765625 -11.550781 17.890625 -13.40625 L 25.921875 -37.03125 C 26.429688 -38.425781 27.148438 -39.4375 28.078125 -40.0625 C 29.015625 -40.6875 29.972656 -41 30.953125 -41 C 32.253906 -41 33.425781 -40.554688 34.46875 -39.671875 C 35.519531 -38.796875 36.046875 -37.632812 36.046875 -36.1875 C 36.046875 -35.625 35.953125 -35.066406 35.765625 -34.515625 L 25.921875 -6.078125 C 28.671875 -7.472656 31.148438 -9.285156 33.359375 -11.515625 C 35.566406 -13.753906 37.320312 -16.644531 38.625 -20.1875 C 39.144531 -21.539062 39.859375 -22.53125 40.765625 -23.15625 C 41.671875 -23.78125 42.585938 -24.09375 43.515625 -24.09375 C 44.585938 -24.09375 45.507812 -23.765625 46.28125 -23.109375 C 47.050781 -22.460938 47.4375 -21.535156 47.4375 -20.328125 C 47.4375 -19.765625 47.34375 -19.226562 47.15625 -18.71875 C 45.945312 -15.039062 44.429688 -11.910156 42.609375 -9.328125 C 40.796875 -6.742188 38.769531 -4.566406 36.53125 -2.796875 C 34.300781 -1.023438 31.960938 0.441406 29.515625 1.609375 C 27.066406 2.773438 24.585938 3.753906 22.078125 4.546875 C 21.566406 5.984375 21.039062 7.445312 20.5 8.9375 C 19.96875 10.425781 19.445312 11.914062 18.9375 13.40625 C 17.488281 17.457031 15.257812 20.4375 12.25 22.34375 C 9.25 24.257812 6.023438 25.21875 2.578125 25.21875 C 0.296875 25.21875 -1.84375 24.75 -3.84375 23.8125 C -5.84375 22.882812 -7.457031 21.570312 -8.6875 19.875 C -9.925781 18.175781 -10.546875 16.207031 -10.546875 13.96875 C -10.546875 11.832031 -10.066406 9.984375 -9.109375 8.421875 C -8.160156 6.859375 -6.867188 5.539062 -5.234375 4.46875 C -3.609375 3.394531 -1.796875 2.5 0.203125 1.78125 C 2.210938 1.0625 4.285156 0.46875 6.421875 0 C 4.140625 -0.46875 2.253906 -1.503906 0.765625 -3.109375 C -0.722656 -4.710938 -1.46875 -6.703125 -1.46875 -9.078125 C -1.46875 -10.429688 -1.234375 -11.738281 -0.765625 -13 L 7.6875 -37.03125 C 8.195312 -38.425781 8.914062 -39.4375 9.84375 -40.0625 C 10.78125 -40.6875 11.738281 -41 12.71875 -41 C 14.019531 -41 15.191406 -40.554688 16.234375 -39.671875 C 17.285156 -38.796875 17.8125 -37.632812 17.8125 -36.1875 C 17.8125 -35.53125 17.671875 -34.804688 17.390625 -34.015625 Z M 9.296875 7.75 C 7.015625 8.351562 5.082031 9.023438 3.5 9.765625 C 1.914062 10.515625 0.863281 11.5 0.34375 12.71875 C 0.15625 13.132812 0.0625 13.625 0.0625 14.1875 C 0.0625 14.789062 0.25 15.3125 0.625 15.75 C 1 16.195312 1.582031 16.421875 2.375 16.421875 C 3.445312 16.421875 4.472656 16.09375 5.453125 15.4375 C 6.429688 14.78125 7.148438 13.800781 7.609375 12.5 Z M 9.296875 7.75 "/></g></g></g></svg>