<svg xmlns="http://www.w3.org/2000/svg" xmlns:xlink="http://www.w3.org/1999/xlink" width="500" zoomAndPan="magnify" viewBox="0 0 375 374.999991" height="500" preserveAspectRatio="xMidYMid meet" version="1.0"><defs><clipPath id="e19217b1ba"><path d="M 68.671875 0 L 306.421875 0 L 306.421875 375 L 68.671875 375 Z M 68.671875 0 " clip-rule="nonzero"/></clipPath></defs><g clip-path="url(#e19217b1ba)"><path fill="#bc9c22" d="M 164.917969 116.058594 C 228.824219 100.972656 225.945312 43.167969 227.445312 0.078125 C 229.898438 41.980469 238.609375 112.203125 306.339844 123.652344 C 227.742188 133.414062 235.144531 189.597656 226.582031 262.871094 C 225.449219 190.574219 219.015625 135.277344 164.917969 116.058594 Z M 106.066406 256.082031 C 110.601562 203.78125 107.742188 185.003906 156.292969 178.847656 C 114.246094 169.953125 112.097656 129.097656 110.144531 99.113281 C 109.664062 129.910156 108.070312 161.824219 68.671875 171.941406 C 102.359375 186.246094 104.609375 204.378906 106.066406 256.082031 Z M 167.609375 374.949219 C 171.121094 334.464844 168.90625 319.929688 206.488281 315.164062 C 173.941406 308.277344 172.277344 276.652344 170.765625 253.441406 C 170.394531 277.28125 169.160156 301.984375 138.664062 309.816406 C 164.738281 320.890625 166.480469 334.925781 167.609375 374.949219 Z M 167.609375 374.949219 " fill-opacity="1" fill-rule="nonzero"/></g></svg>